<?xml version="1.0" encoding="UTF-8" standalone="no"?>
<svg
   xmlns:dc="http://purl.org/dc/elements/1.1/"
   xmlns:cc="http://creativecommons.org/ns#"
   xmlns:rdf="http://www.w3.org/1999/02/22-rdf-syntax-ns#"
   xmlns:svg="http://www.w3.org/2000/svg"
   xmlns="http://www.w3.org/2000/svg"
   xmlns:sodipodi="http://sodipodi.sourceforge.net/DTD/sodipodi-0.dtd"
   xmlns:inkscape="http://www.inkscape.org/namespaces/inkscape"
   inkscape:version="1.0 (4035a4fb49, 2020-05-01)"
   sodipodi:docname="ansible.svg"
   id="svg4541"
   version="1.1"
   viewBox="0 0 23.848023 100.54167"
   height="379.99997"
   width="90.134254">
  <defs
     id="defs4535" />
  <sodipodi:namedview
     inkscape:document-rotation="0"
     units="px"
     inkscape:window-maximized="0"
     inkscape:window-y="135"
     inkscape:window-x="366"
     inkscape:window-height="1094"
     inkscape:window-width="1826"
     fit-margin-bottom="0"
     fit-margin-right="0"
     fit-margin-left="0"
     fit-margin-top="0"
     showgrid="false"
     inkscape:current-layer="g13224"
     inkscape:document-units="mm"
     inkscape:cy="142.84668"
     inkscape:cx="70.617525"
     inkscape:zoom="2.7084698"
     inkscape:pageshadow="2"
     inkscape:pageopacity="0.0"
     borderopacity="1.0"
     bordercolor="#666666"
     pagecolor="#ffffff"
     id="base" />
  <metadata
     id="metadata4538">
    <rdf:RDF>
      <cc:Work
         rdf:about="">
        <dc:format>image/svg+xml</dc:format>
        <dc:type
           rdf:resource="http://purl.org/dc/dcmitype/StillImage" />
        <dc:title />
      </cc:Work>
    </rdf:RDF>
  </metadata>
  <g
     transform="translate(-61.978028,-53.744307)"
     id="layer1"
     inkscape:groupmode="layer"
     inkscape:label="Layer 1">
    <g
       style="stroke-width:0.9585526"
       id="g13122"
       transform="matrix(0.27602379,0,0,0.27602379,354.09618,57.736346)">
      <g
         style="stroke-width:0.91882312"
         id="g13178"
         transform="translate(-167.07644,-20.557569)">
        <g
           style="stroke-width:0.88074034"
           id="g13224"
           transform="translate(-99.2314,6.0949065)">
          <path
             id="path25105"
             d="m -791.73442,0.265625 h 85.87109 V 363.98828 h -85.87109 z m 0,0"
             style="fill:#e6e6e6;fill-opacity:1;fill-rule:nonzero;stroke:none;stroke-width:0.88074034" />
          <g
             id="text7121"
             style="font-style:italic;font-variant:normal;font-weight:normal;font-stretch:normal;font-size:38.34210587px;line-height:1.25;font-family:'Gill Sans';-inkscape-font-specification:'Gill Sans Italic';letter-spacing:0px;word-spacing:0px;fill:#000000;fill-opacity:1;stroke:none;stroke-width:0.84423596"
             aria-label="1">
            <path
               id="path7227"
               style="font-size:7.66842127px;stroke-width:0.84423596"
               d="m -785.46429,58.594504 -0.8275,5.29825 h -0.6927 l 0.83873,-5.29825 z" />
          </g>
          <g
             transform="translate(-73.436756,17.368684)"
             id="text7125"
             style="font-style:italic;font-variant:normal;font-weight:normal;font-stretch:normal;font-size:38.3421px;line-height:1.25;font-family:'Gill Sans';-inkscape-font-specification:'Gill Sans Italic';letter-spacing:0px;word-spacing:0px;fill:#000000;fill-opacity:1;stroke:none;stroke-width:0.844236"
             aria-label="2">
            <path
               inkscape:connector-curvature="0"
               id="path7224"
               style="font-size:7.66842px;stroke-width:0.844236"
               d="m -713.87379,80.160443 0.0974,-0.745125 q 0.60284,-0.359457 1.18321,-0.359457 0.5654,0 0.91362,0.34448 0.35197,0.344479 0.35197,0.906131 0,0.565397 -0.498,1.351709 -0.49425,0.782569 -1.55764,2.051902 h 1.99199 l -0.0899,0.644028 h -3.1752 q 1.52769,-1.868429 2.09309,-2.729629 0.56539,-0.864944 0.56539,-1.265589 0,-0.303292 -0.1947,-0.475532 -0.19471,-0.175984 -0.53919,-0.175984 -0.52795,0 -1.14202,0.453066 z" />
          </g>
          <g
             transform="translate(-73.37835,52.94502)"
             id="text7129"
             style="font-style:italic;font-variant:normal;font-weight:normal;font-stretch:normal;font-size:38.3421px;line-height:1.25;font-family:'Gill Sans';-inkscape-font-specification:'Gill Sans Italic';letter-spacing:0px;word-spacing:0px;fill:#000000;fill-opacity:1;stroke:none;stroke-width:0.844236"
             aria-label="4">
            <path
               inkscape:connector-curvature="0"
               id="path7221"
               style="font-size:7.66842px;stroke-width:0.844236"
               d="m -711.40303,115.39606 -0.48302,3.12653 h 0.75261 l -0.0786,0.56165 h -0.77508 l -0.25087,1.61007 h -0.67024 l 0.27708,-1.61007 h -1.96203 v -0.29954 l 2.77456,-3.38864 z m -2.31026,3.12653 h 1.16823 l 0.30704,-1.81601 z" />
          </g>
          <g
             transform="translate(0.1433,35.81777)"
             id="text7133"
             style="font-style:italic;font-variant:normal;font-weight:normal;font-stretch:normal;font-size:38.3421px;line-height:1.25;font-family:'Gill Sans';-inkscape-font-specification:'Gill Sans Italic';letter-spacing:0px;word-spacing:0px;fill:#000000;fill-opacity:1;stroke:none;stroke-width:0.844236"
             aria-label="3">
            <path
               id="path7218"
               style="font-size:7.66842px;stroke-width:0.844236"
               d="m -787.42733,97.492352 0.1011,-0.722658 q 0.5317,-0.228405 1.08212,-0.228405 0.63279,0 1.01472,0.37069 0.38566,0.37069 0.38566,0.984763 0,0.872433 -1.01846,1.250612 0.70394,0.299547 0.70394,1.183216 0,0.61033 -0.47928,1.09335 -0.47553,0.48302 -1.33673,0.48302 -0.61407,0 -1.2581,-0.28832 l 0.0936,-0.62156 q 0.57663,0.29206 1.13454,0.29206 0.50548,0 0.81626,-0.26585 0.31078,-0.26585 0.31078,-0.6927 0,-0.423114 -0.28457,-0.662752 -0.28457,-0.243383 -0.66649,-0.213428 l 0.0824,-0.621562 q 0.56539,-0.04119 0.87243,-0.314525 0.31078,-0.273337 0.31078,-0.614072 0,-0.333247 -0.22466,-0.535442 -0.22466,-0.205939 -0.59535,-0.205939 -0.53544,0 -1.04468,0.329502 z" />
          </g>
          <g
             transform="translate(73.609146,22.600211)"
             aria-label="1"
             style="font-style:italic;font-variant:normal;font-weight:normal;font-stretch:normal;font-size:38.3421px;line-height:1.25;font-family:'Gill Sans';-inkscape-font-specification:'Gill Sans Italic';letter-spacing:0px;word-spacing:0px;fill:#000000;fill-opacity:1;stroke:none;stroke-width:0.844236"
             id="text7121-8">
            <path
               d="m -785.46429,58.594504 -0.8275,5.29825 h -0.6927 l 0.83873,-5.29825 z"
               style="font-size:7.66842px;stroke-width:0.844236"
               id="path7227-1" />
          </g>
          <g
             aria-label="2"
             style="font-style:italic;font-variant:normal;font-weight:normal;font-stretch:normal;font-size:38.3421px;line-height:1.25;font-family:'Gill Sans';-inkscape-font-specification:'Gill Sans Italic';letter-spacing:0px;word-spacing:0px;fill:#000000;fill-opacity:1;stroke:none;stroke-width:0.844236"
             id="text7125-5"
             transform="translate(0.172396,39.968895)">
            <path
               d="m -713.87379,80.160443 0.0974,-0.745125 q 0.60284,-0.359457 1.18321,-0.359457 0.5654,0 0.91362,0.34448 0.35197,0.344479 0.35197,0.906131 0,0.565397 -0.498,1.351709 -0.49425,0.782569 -1.55764,2.051902 h 1.99199 l -0.0899,0.644028 h -3.1752 q 1.52769,-1.868429 2.09309,-2.729629 0.56539,-0.864944 0.56539,-1.265589 0,-0.303292 -0.1947,-0.475532 -0.19471,-0.175984 -0.53919,-0.175984 -0.52795,0 -1.14202,0.453066 z"
               style="font-size:7.66842px;stroke-width:0.844236"
               id="path7224-9"
               inkscape:connector-curvature="0" />
          </g>
          <g
             aria-label="4"
             style="font-style:italic;font-variant:normal;font-weight:normal;font-stretch:normal;font-size:38.3421px;line-height:1.25;font-family:'Gill Sans';-inkscape-font-specification:'Gill Sans Italic';letter-spacing:0px;word-spacing:0px;fill:#000000;fill-opacity:1;stroke:none;stroke-width:0.844236"
             id="text7129-9"
             transform="translate(0.2308,75.545229)">
            <path
               d="m -711.40303,115.39606 -0.48302,3.12653 h 0.75261 l -0.0786,0.56165 h -0.77508 l -0.25087,1.61007 h -0.67024 l 0.27708,-1.61007 h -1.96203 v -0.29954 l 2.77456,-3.38864 z m -2.31026,3.12653 h 1.16823 l 0.30704,-1.81601 z"
               style="font-size:7.66842px;stroke-width:0.844236"
               id="path7221-8"
               inkscape:connector-curvature="0" />
          </g>
          <g
             aria-label="3"
             style="font-style:italic;font-variant:normal;font-weight:normal;font-stretch:normal;font-size:38.3421px;line-height:1.25;font-family:'Gill Sans';-inkscape-font-specification:'Gill Sans Italic';letter-spacing:0px;word-spacing:0px;fill:#000000;fill-opacity:1;stroke:none;stroke-width:0.844236"
             id="text7133-5"
             transform="translate(73.75245,58.417979)">
            <path
               d="m -787.42733,97.492352 0.1011,-0.722658 q 0.5317,-0.228405 1.08212,-0.228405 0.63279,0 1.01472,0.37069 0.38566,0.37069 0.38566,0.984763 0,0.872433 -1.01846,1.250612 0.70394,0.299547 0.70394,1.183216 0,0.61033 -0.47928,1.09335 -0.47553,0.48302 -1.33673,0.48302 -0.61407,0 -1.2581,-0.28832 l 0.0936,-0.62156 q 0.57663,0.29206 1.13454,0.29206 0.50548,0 0.81626,-0.26585 0.31078,-0.26585 0.31078,-0.6927 0,-0.423114 -0.28457,-0.662752 -0.28457,-0.243383 -0.66649,-0.213428 l 0.0824,-0.621562 q 0.56539,-0.04119 0.87243,-0.314525 0.31078,-0.273337 0.31078,-0.614072 0,-0.333247 -0.22466,-0.535442 -0.22466,-0.205939 -0.59535,-0.205939 -0.53544,0 -1.04468,0.329502 z"
               style="font-size:7.66842px;stroke-width:0.844236"
               id="path7218-7" />
          </g>
        </g>
      </g>
    </g>
  </g>
</svg>
