<?xml version="1.0" encoding="UTF-8" standalone="no"?>
<svg
   inkscape:version="1.2.2 (732a01da63, 2022-12-09)"
   sodipodi:docname="earthsea.svg"
   id="svg4541"
   version="1.1"
   viewBox="0 0 23.848023 100.54167"
   height="379.99997"
   width="90.134254"
   xmlns:inkscape="http://www.inkscape.org/namespaces/inkscape"
   xmlns:sodipodi="http://sodipodi.sourceforge.net/DTD/sodipodi-0.dtd"
   xmlns:xlink="http://www.w3.org/1999/xlink"
   xmlns="http://www.w3.org/2000/svg"
   xmlns:svg="http://www.w3.org/2000/svg"
   xmlns:rdf="http://www.w3.org/1999/02/22-rdf-syntax-ns#"
   xmlns:cc="http://creativecommons.org/ns#"
   xmlns:dc="http://purl.org/dc/elements/1.1/">
  <defs
     id="defs4535" />
  <sodipodi:namedview
     inkscape:document-rotation="0"
     units="px"
     inkscape:window-maximized="1"
     inkscape:window-y="-8"
     inkscape:window-x="2552"
     inkscape:window-height="1017"
     inkscape:window-width="1920"
     fit-margin-bottom="0"
     fit-margin-right="0"
     fit-margin-left="0"
     fit-margin-top="0"
     showgrid="false"
     inkscape:current-layer="g11730"
     inkscape:document-units="mm"
     inkscape:cy="215.09335"
     inkscape:cx="-23.125321"
     inkscape:zoom="1.7945697"
     inkscape:pageshadow="2"
     inkscape:pageopacity="0.0"
     borderopacity="1.0"
     bordercolor="#666666"
     pagecolor="#ffffff"
     id="base"
     inkscape:showpageshadow="2"
     inkscape:pagecheckerboard="0"
     inkscape:deskcolor="#d1d1d1" />
  <metadata
     id="metadata4538">
    <rdf:RDF>
      <cc:Work
         rdf:about="">
        <dc:format>image/svg+xml</dc:format>
        <dc:type
           rdf:resource="http://purl.org/dc/dcmitype/StillImage" />
        <dc:title />
      </cc:Work>
    </rdf:RDF>
  </metadata>
  <g
     style="display:inline"
     inkscape:label="Panel"
     inkscape:groupmode="layer"
     id="g1138"
     transform="translate(-61.978028,-53.744307)">
    <path
       id="path1128"
       d="M 62.051345,53.817626 H 85.753808 V 154.21373 H 62.051345 Z m 0,0"
       style="fill:#e6e6e6;fill-opacity:1;fill-rule:nonzero;stroke:none;stroke-width:0.243105"
       transform="translate(1.2916667e-6)" />
    <image
       xlink:href="earthsea.jpg"
       transform="translate(1.2916667e-6)"
       style="opacity:0.5;stroke-width:0.88074"
       width="23.8125"
       height="100.54166"
       preserveAspectRatio="none"
       id="image1130"
       x="61.941311"
       y="53.672066" />
    <path
       style="fill:#e6e6e6;fill-opacity:1;fill-rule:nonzero;stroke:none;stroke-width:0.243105"
       d="M 62.051345,53.817626 H 85.753808 V 154.21373 H 62.051345 Z m 0,0"
       id="path1140"
       transform="translate(1.2916667e-6)" />
  </g>
  <g
     style="display:inline"
     transform="translate(-61.978028,-53.744307)"
     id="g1150"
     inkscape:groupmode="layer"
     inkscape:label="Image">
    <image
       xlink:href="earthsea.jpg"
       y="53.672066"
       x="61.941311"
       id="image1142"
       preserveAspectRatio="none"
       height="100.54166"
       width="23.8125"
       style="opacity:0.5;stroke-width:0.88074" />
  </g>
  <g
     style="display:inline"
     transform="translate(-61.978028,-53.744307)"
     id="layer1"
     inkscape:groupmode="layer"
     inkscape:label="Graphics">
    <path
       id="path6189"
       style="fill:none;stroke:#000000;stroke-width:0.165;stroke-linecap:butt;stroke-linejoin:miter;stroke-miterlimit:4;stroke-dasharray:none;stroke-opacity:1"
       d="m 70.642494,67.116672 -3.587785,6.458016 m 3.587785,-6.458016 3.508058,6.378287 m -3.508058,-6.378287 0.07973,-6.378287"
       inkscape:connector-curvature="0" />
    <path
       id="path6189-7"
       style="fill:none;stroke:#000000;stroke-width:0.165;stroke-linecap:butt;stroke-linejoin:miter;stroke-miterlimit:4;stroke-dasharray:none;stroke-opacity:1"
       d="m 70.602769,89.701603 -3.428329,6.537745 m 3.428329,-6.537745 3.508058,6.378286 m -3.508058,-6.378286 0.07973,-6.378289"
       inkscape:connector-curvature="0" />
    <path
       inkscape:connector-curvature="0"
       id="path6189-7-5"
       style="fill:none;stroke:#000000;stroke-width:0.165;stroke-linecap:butt;stroke-linejoin:miter;stroke-miterlimit:4;stroke-dasharray:none;stroke-opacity:1"
       d="m 70.603017,112.35604 -3.428328,6.53774 m 3.428328,-6.53774 3.508058,6.37828 m -3.508058,-6.37828 0.07973,-6.37829" />
  </g>
  <g
     style="display:inline"
     inkscape:label="Text"
     id="layer2"
     inkscape:groupmode="layer">
    <text
       xml:space="preserve"
       style="font-style:italic;font-size:50.8px;line-height:100%;font-family:CoreHumanistSans;-inkscape-font-specification:'CoreHumanistSans, Italic';letter-spacing:0px;word-spacing:0px;writing-mode:lr-tb;display:inline;fill:none;stroke:#000000;stroke-width:0.264583px;stroke-linecap:butt;stroke-linejoin:miter;stroke-opacity:1"
       x="6.6764989"
       y="2.7553082"
       id="text880"><tspan
         sodipodi:role="line"
         id="tspan878"
         x="6.6764989"
         y="2.7553082"
         style="font-style:italic;font-variant:normal;font-weight:normal;font-stretch:normal;font-size:1.94028px;font-family:CoreHumanistSans;-inkscape-font-specification:'CoreHumanistSans, Italic';font-variant-ligatures:normal;font-variant-caps:normal;font-variant-numeric:normal;font-variant-east-asian:normal;fill:#000000;fill-opacity:1;stroke:none;stroke-width:0.264583px">EARTHSEA</tspan></text>
    <text
       id="text884-0"
       y="20.113886"
       x="15.969032"
       style="font-style:italic;font-variant:normal;font-weight:normal;font-stretch:normal;font-size:1.94028px;line-height:100%;font-family:CoreHumanistSans;-inkscape-font-specification:'CoreHumanistSans, Italic';font-variant-ligatures:normal;font-variant-caps:normal;font-variant-numeric:normal;font-variant-east-asian:normal;letter-spacing:0px;word-spacing:0px;writing-mode:lr-tb;display:inline;fill:none;stroke:#000000;stroke-width:0.264583px;stroke-linecap:butt;stroke-linejoin:miter;stroke-opacity:1"
       xml:space="preserve"><tspan
         style="font-style:italic;font-variant:normal;font-weight:normal;font-stretch:normal;font-size:1.94028px;font-family:CoreHumanistSans;-inkscape-font-specification:'CoreHumanistSans, Italic';font-variant-ligatures:normal;font-variant-caps:normal;font-variant-numeric:normal;font-variant-east-asian:normal;fill:#000000;fill-opacity:1;stroke:none;stroke-width:0.264583px"
         y="20.113886"
         x="15.969032"
         id="tspan882-9"
         sodipodi:role="line">1</tspan></text>
    <text
       xml:space="preserve"
       style="font-style:italic;font-variant:normal;font-weight:normal;font-stretch:normal;font-size:1.94028px;line-height:100%;font-family:CoreHumanistSans;-inkscape-font-specification:'CoreHumanistSans, Italic';font-variant-ligatures:normal;font-variant-caps:normal;font-variant-numeric:normal;font-variant-east-asian:normal;letter-spacing:0px;word-spacing:0px;writing-mode:lr-tb;display:inline;fill:none;stroke:#000000;stroke-width:0.264583px;stroke-linecap:butt;stroke-linejoin:miter;stroke-opacity:1"
       x="15.894846"
       y="42.393715"
       id="text884-2-8"><tspan
         sodipodi:role="line"
         id="tspan882-3-3"
         x="15.894846"
         y="42.393715"
         style="font-style:italic;font-variant:normal;font-weight:normal;font-stretch:normal;font-size:1.94028px;font-family:CoreHumanistSans;-inkscape-font-specification:'CoreHumanistSans, Italic';font-variant-ligatures:normal;font-variant-caps:normal;font-variant-numeric:normal;font-variant-east-asian:normal;fill:#000000;fill-opacity:1;stroke:none;stroke-width:0.264583px">2</tspan></text>
    <text
       id="text884-2-5-3"
       y="64.204727"
       x="15.996191"
       style="font-style:italic;font-variant:normal;font-weight:normal;font-stretch:normal;font-size:1.94028px;line-height:100%;font-family:CoreHumanistSans;-inkscape-font-specification:'CoreHumanistSans, Italic';font-variant-ligatures:normal;font-variant-caps:normal;font-variant-numeric:normal;font-variant-east-asian:normal;letter-spacing:0px;word-spacing:0px;writing-mode:lr-tb;display:inline;fill:none;stroke:#000000;stroke-width:0.264583px;stroke-linecap:butt;stroke-linejoin:miter;stroke-opacity:1"
       xml:space="preserve"><tspan
         style="font-style:italic;font-variant:normal;font-weight:normal;font-stretch:normal;font-size:1.94028px;font-family:CoreHumanistSans;-inkscape-font-specification:'CoreHumanistSans, Italic';font-variant-ligatures:normal;font-variant-caps:normal;font-variant-numeric:normal;font-variant-east-asian:normal;fill:#000000;fill-opacity:1;stroke:none;stroke-width:0.264583px"
         y="64.204727"
         x="15.996191"
         id="tspan882-3-0-9"
         sodipodi:role="line">3</tspan></text>
    <text
       id="text884-2-5-2-7-7"
       y="80.026382"
       x="4.8677268"
       style="font-style:italic;font-variant:normal;font-weight:normal;font-stretch:normal;font-size:1.94028px;line-height:100%;font-family:CoreHumanistSans;-inkscape-font-specification:'CoreHumanistSans, Italic';font-variant-ligatures:normal;font-variant-caps:normal;font-variant-numeric:normal;font-variant-east-asian:normal;letter-spacing:0px;word-spacing:0px;writing-mode:lr-tb;display:inline;fill:none;stroke:#000000;stroke-width:0.264583px;stroke-linecap:butt;stroke-linejoin:miter;stroke-opacity:1"
       xml:space="preserve"><tspan
         style="font-style:italic;font-variant:normal;font-weight:normal;font-stretch:normal;font-size:1.94028px;font-family:CoreHumanistSans;-inkscape-font-specification:'CoreHumanistSans, Italic';font-variant-ligatures:normal;font-variant-caps:normal;font-variant-numeric:normal;font-variant-east-asian:normal;fill:#000000;fill-opacity:1;stroke:none;stroke-width:0.264583px"
         y="80.026382"
         x="4.8677268"
         id="tspan882-3-0-3-1-7"
         sodipodi:role="line">edge</tspan></text>
    <text
       xml:space="preserve"
       style="font-style:italic;font-variant:normal;font-weight:normal;font-stretch:normal;font-size:1.94028px;line-height:100%;font-family:CoreHumanistSans;-inkscape-font-specification:'CoreHumanistSans, Italic';font-variant-ligatures:normal;font-variant-caps:normal;font-variant-numeric:normal;font-variant-east-asian:normal;letter-spacing:0px;word-spacing:0px;writing-mode:lr-tb;display:inline;fill:none;stroke:#000000;stroke-width:0.264583px;stroke-linecap:butt;stroke-linejoin:miter;stroke-opacity:1"
       x="14.846147"
       y="84.995712"
       id="text884-2-5-2-7-7-0"><tspan
         sodipodi:role="line"
         id="tspan882-3-0-3-1-7-7"
         x="14.846147"
         y="84.995712"
         style="font-style:italic;font-variant:normal;font-weight:normal;font-stretch:normal;font-size:1.94028px;font-family:CoreHumanistSans;-inkscape-font-specification:'CoreHumanistSans, Italic';font-variant-ligatures:normal;font-variant-caps:normal;font-variant-numeric:normal;font-variant-east-asian:normal;fill:#000000;fill-opacity:1;stroke:none;stroke-width:0.264583px">pos</tspan></text>
  </g>
  <g
     style="display:inline"
     inkscape:label="Text copy"
     id="g11730"
     inkscape:groupmode="layer">
    <g
       aria-label="EARTHSEA"
       id="text11708"
       style="font-style:italic;font-size:50.8px;line-height:100%;font-family:CoreHumanistSans;-inkscape-font-specification:'CoreHumanistSans, Italic';letter-spacing:0px;word-spacing:0px;display:inline;fill:none;stroke:#000000;stroke-width:0.264583px">
      <path
         d="m 7.6911668,1.5871611 c 0,-0.040738 -0.032212,-0.07295 -0.072003,-0.07295 H 7.0061949 c -0.036001,0 -0.066318,0.027475 -0.071055,0.063476 L 6.7930294,2.7373075 c -0.00568,0.042633 0.028422,0.081477 0.071055,0.081477 h 0.5978108 c 0.039791,0 0.07295,-0.033159 0.07295,-0.07295 0,-0.039791 -0.033159,-0.072002 -0.07295,-0.072002 H 6.9455612 l 0.054002,-0.4348577 h 0.4670693 c 0.039791,0 0.072003,-0.032212 0.072003,-0.072003 0,-0.039791 -0.032212,-0.072003 -0.072003,-0.072003 H 7.0166163 l 0.054002,-0.435805 h 0.5485459 c 0.039791,0 0.072003,-0.032212 0.072003,-0.072003 z"
         style="font-size:1.94028px;fill:#000000;stroke:none"
         id="path11772" />
      <path
         d="m 8.4130874,1.5644234 c -0.00853,-0.029369 -0.035054,-0.049265 -0.065371,-0.049265 -0.02558,0 -0.048317,0.013264 -0.060634,0.036949 L 7.6873772,2.7202543 c -0.017053,0.033159 -0.00379,0.07295 0.029369,0.090003 0.032212,0.017053 0.074845,0.00379 0.091898,-0.02937 L 7.9630713,2.4815089 h 0.5665466 l 0.081477,0.2870629 c 0.011369,0.038844 0.05116,0.059686 0.089056,0.045475 0.032212,-0.011369 0.050212,-0.046423 0.040738,-0.081477 z M 8.0322316,2.3450829 8.3287686,1.7671675 8.4907744,2.3450829 Z"
         style="font-size:1.94028px;fill:#000000;stroke:none"
         id="path11774" />
      <path
         d="m 9.8720869,1.8969616 c 0,-0.19327 -0.1724272,-0.3827505 -0.3694869,-0.3827505 H 9.182378 c -0.036949,0 -0.067265,0.027475 -0.072002,0.063476 L 8.9682651,2.7373075 c -0.00474,0.038844 0.022738,0.074845 0.062529,0.080529 0.039791,0.00474 0.075792,-0.023685 0.080529,-0.063476 L 9.16343,2.3308719 h 0.256746 l 0.2633779,0.4519109 c 0.019895,0.034107 0.064423,0.045475 0.09853,0.02558 0.034107,-0.019896 0.046423,-0.064423 0.026527,-0.09853 L 9.5793396,2.3166609 C 9.7612409,2.2645537 9.8720869,2.0798103 9.8720869,1.8969616 Z m -0.1449525,0 c 0,0.1421104 -0.099477,0.2899052 -0.2529564,0.2899052 H 9.1814306 L 9.245854,1.6591637 H 9.5026 c 0.1136883,0 0.2245344,0.1212675 0.2245344,0.2377979 z"
         style="font-size:1.94028px;fill:#000000;stroke:none"
         id="path11776" />
      <path
         d="m 11.024128,1.5871611 c 0,-0.040738 -0.03221,-0.07295 -0.072,-0.07295 H 10.08241 c -0.03979,0 -0.072,0.032212 -0.072,0.07295 0,0.039791 0.03221,0.072003 0.072,0.072003 h 0.353381 l -0.132636,1.0781438 c -0.0047,0.039791 0.02369,0.075792 0.06348,0.080529 0.03884,0.00474 0.07484,-0.022738 0.07958,-0.062528 l 0.134531,-1.0961445 h 0.371382 c 0.03979,0 0.072,-0.032212 0.072,-0.072003 z"
         style="font-size:1.94028px;fill:#000000;stroke:none"
         id="path11778" />
      <path
         d="m 12.201749,1.5956877 c 0.0047,-0.039791 -0.02369,-0.075792 -0.06348,-0.080529 -0.03979,-0.00474 -0.07579,0.022738 -0.08053,0.062529 l -0.06063,0.4935966 h -0.676445 l 0.05874,-0.475596 c 0.0047,-0.039791 -0.02368,-0.075792 -0.06253,-0.080529 -0.03979,-0.00474 -0.07579,0.022738 -0.08053,0.062529 l -0.14211,1.1596204 c -0.0047,0.039791 0.02274,0.075792 0.06253,0.080529 0.03979,0.00474 0.07579,-0.023685 0.08053,-0.063476 l 0.06632,-0.5381245 h 0.676445 l -0.06442,0.5210713 c -0.0047,0.039791 0.02368,0.075792 0.06348,0.080529 0.03884,0.00474 0.07579,-0.023685 0.08053,-0.063476 z"
         style="font-size:1.94028px;fill:#000000;stroke:none"
         id="path11780" />
      <path
         d="m 13.250523,1.6354786 c 0.01326,-0.036949 -0.0066,-0.078634 -0.04453,-0.091898 -0.08527,-0.02937 -0.217903,-0.043581 -0.310748,-0.043581 -0.247272,0 -0.430121,0.1297941 -0.430121,0.3874875 0,0.1752695 0.113688,0.2349558 0.198954,0.2794837 l 0.236851,0.1250571 c 0.08053,0.042633 0.122215,0.068213 0.122215,0.1496896 0,0.1771642 -0.12032,0.2453772 -0.286116,0.2453772 -0.07863,0 -0.194217,-0.011369 -0.263377,-0.035054 -0.03695,-0.013264 -0.07864,0.00663 -0.0919,0.044528 -0.01326,0.037896 0.0066,0.078634 0.04453,0.091898 0.09095,0.032212 0.224535,0.043581 0.310748,0.043581 0.247272,0 0.430121,-0.1307415 0.430121,-0.3884349 0,-0.174322 -0.113688,-0.2340084 -0.198954,-0.2794837 L 12.732294,2.039072 c -0.08148,-0.042633 -0.123162,-0.068213 -0.123162,-0.1496896 0,-0.1771642 0.12032,-0.2453772 0.286116,-0.2453772 0.07863,0 0.194217,0.011369 0.263377,0.035054 0.03695,0.012316 0.07863,-0.00568 0.0919,-0.043581 z"
         style="font-size:1.94028px;fill:#000000;stroke:none"
         id="path11782" />
      <path
         d="m 14.32772,1.5871611 c 0,-0.040738 -0.03221,-0.07295 -0.072,-0.07295 h -0.612969 c -0.036,0 -0.06632,0.027475 -0.07105,0.063476 l -0.14211,1.1596204 c -0.0057,0.042633 0.02842,0.081477 0.07106,0.081477 h 0.597811 c 0.03979,0 0.07295,-0.033159 0.07295,-0.07295 0,-0.039791 -0.03316,-0.072002 -0.07295,-0.072002 h -0.516335 l 0.054,-0.4348577 h 0.46707 c 0.03979,0 0.072,-0.032212 0.072,-0.072003 0,-0.039791 -0.03221,-0.072003 -0.072,-0.072003 H 13.65317 l 0.054,-0.435805 h 0.548545 c 0.03979,0 0.072,-0.032212 0.072,-0.072003 z"
         style="font-size:1.94028px;fill:#000000;stroke:none"
         id="path11784" />
      <path
         d="m 15.049641,1.5644234 c -0.0085,-0.029369 -0.03505,-0.049265 -0.06537,-0.049265 -0.02558,0 -0.04832,0.013264 -0.06063,0.036949 L 14.32393,2.7202543 c -0.01705,0.033159 -0.0038,0.07295 0.02937,0.090003 0.03221,0.017053 0.07484,0.00379 0.0919,-0.02937 l 0.154426,-0.2993791 h 0.566547 l 0.08148,0.2870629 c 0.01137,0.038844 0.05116,0.059686 0.08906,0.045475 0.03221,-0.011369 0.05021,-0.046423 0.04074,-0.081477 z m -0.380856,0.7806595 0.296537,-0.5779154 0.162006,0.5779154 z"
         style="font-size:1.94028px;fill:#000000;stroke:none"
         id="path11786" />
    </g>
    <g
       aria-label="1"
       id="text11712"
       style="font-style:italic;font-size:1.94028px;line-height:100%;font-family:CoreHumanistSans;-inkscape-font-specification:'CoreHumanistSans, Italic';letter-spacing:0px;word-spacing:0px;display:inline;fill:none;stroke:#000000;stroke-width:0.264583px">
      <path
         d="m 16.714638,20.103464 c 0,-0.03979 -0.03316,-0.072 -0.07295,-0.072 H 16.449365 L 16.546,19.240381 c 0.0028,-0.02369 -0.0057,-0.04642 -0.02369,-0.06253 -0.01705,-0.01516 -0.04074,-0.02179 -0.06348,-0.01705 l -0.297484,0.06158 c -0.03979,0.0085 -0.06442,0.04642 -0.0559,0.08621 0.0076,0.03884 0.04642,0.06253 0.08527,0.05495 l 0.198955,-0.04074 -0.08716,0.708657 h -0.213166 c -0.03979,0 -0.072,0.03221 -0.072,0.072 0,0.04074 0.03221,0.07295 0.072,0.07295 h 0.552336 c 0.03979,0 0.07295,-0.03221 0.07295,-0.07295 z"
         style="fill:#000000;stroke:none"
         id="path11789" />
    </g>
    <g
       aria-label="2"
       id="text11716"
       style="font-style:italic;font-size:1.94028px;line-height:100%;font-family:CoreHumanistSans;-inkscape-font-specification:'CoreHumanistSans, Italic';letter-spacing:0px;word-spacing:0px;display:inline;fill:none;stroke:#000000;stroke-width:0.264583px">
      <path
         d="m 16.734244,41.751376 c 0.02653,-0.21506 -0.1639,-0.327801 -0.358118,-0.327801 -0.09285,0 -0.217902,0.02558 -0.276641,0.04358 -0.03884,0.01232 -0.05969,0.05306 -0.04832,0.09095 0.01232,0.0379 0.05211,0.05969 0.09095,0.04737 0.04263,-0.01326 0.154427,-0.0379 0.234008,-0.0379 0.10232,0 0.229272,0.04263 0.214113,0.166743 -0.01042,0.08906 -0.04642,0.103267 -0.180954,0.144952 -0.05305,0.01611 -0.114635,0.03505 -0.183796,0.06537 -0.234955,0.101372 -0.261483,0.324012 -0.274746,0.431068 -0.0047,0.04263 0.02842,0.08053 0.07106,0.08053 h 0.560862 c 0.03979,0 0.072,-0.03221 0.072,-0.072 0,-0.03979 -0.03221,-0.072 -0.072,-0.072 h -0.476543 c 0.01989,-0.09663 0.06158,-0.184743 0.177164,-0.234955 0.06158,-0.02653 0.118425,-0.04453 0.168638,-0.05969 0.133583,-0.04074 0.259588,-0.07958 0.282325,-0.26622 z"
         style="fill:#000000;stroke:none"
         id="path11792" />
    </g>
    <g
       aria-label="3"
       id="text11720"
       style="font-style:italic;font-size:1.94028px;line-height:100%;font-family:CoreHumanistSans;-inkscape-font-specification:'CoreHumanistSans, Italic';letter-spacing:0px;word-spacing:0px;display:inline;fill:none;stroke:#000000;stroke-width:0.264583px">
      <path
         d="m 16.810957,63.621127 c 0.02937,-0.242535 -0.17148,-0.38654 -0.396014,-0.38654 -0.09,0 -0.223587,0.02558 -0.229272,0.02653 -0.03884,0.0076 -0.06442,0.04548 -0.05684,0.08432 0.0076,0.03884 0.04548,0.06442 0.08432,0.05684 0.03505,-0.0066 0.138321,-0.02369 0.201797,-0.02369 0.136426,0 0.270957,0.07011 0.252009,0.225482 -0.01516,0.126952 -0.113688,0.198955 -0.27001,0.198955 h -0.1459 c -0.03979,0 -0.072,0.03316 -0.072,0.07295 0,0.03979 0.03221,0.072 0.072,0.072 h 0.130742 c 0.139268,0 0.248219,0.07674 0.230219,0.226429 -0.0199,0.167691 -0.180954,0.202744 -0.312643,0.202744 -0.07958,0 -0.199902,-0.02463 -0.20085,-0.02558 -0.03884,-0.0076 -0.07769,0.01705 -0.08527,0.0559 -0.0085,0.03884 0.01611,0.07769 0.0559,0.08621 0.0047,9.47e-4 0.135479,0.02747 0.230219,0.02747 0.261483,0 0.432015,-0.123163 0.456648,-0.328749 0.01421,-0.116531 -0.02558,-0.228324 -0.114636,-0.305064 0.105162,-0.06348 0.157269,-0.166742 0.169585,-0.26622 z"
         style="fill:#000000;stroke:none"
         id="path11795" />
    </g>
    <g
       aria-label="edge"
       id="text11724"
       style="font-style:italic;font-size:1.94028px;line-height:100%;font-family:CoreHumanistSans;-inkscape-font-specification:'CoreHumanistSans, Italic';letter-spacing:0px;word-spacing:0px;display:inline;fill:none;stroke:#000000;stroke-width:0.264583px">
      <path
         d="m 5.7734434,79.525207 c 0,-0.228324 -0.1345311,-0.388435 -0.3704343,-0.388435 -0.2349558,0 -0.4064356,0.160111 -0.4376999,0.409277 l -0.00947,0.07579 c -0.032212,0.25864 0.1326363,0.48128 0.4064356,0.48128 0.1241097,0 0.2055863,-0.04074 0.2150603,-0.04547 0.033159,-0.01705 0.045475,-0.05874 0.028422,-0.0919 -0.018001,-0.03411 -0.058739,-0.04642 -0.091898,-0.02842 -9.474e-4,0 -0.059686,0.02937 -0.1515844,0.02937 -0.1563214,0 -0.26622,-0.106109 -0.2737993,-0.26622 l 0.616759,-0.03884 c 0.033159,-0.0019 0.059686,-0.02747 0.063476,-0.05969 0.00284,-0.02653 0.00474,-0.05211 0.00474,-0.07674 z m -0.6726556,0.0379 c 0.010421,-0.07863 0.061581,-0.290853 0.3022213,-0.290853 0.1591636,0 0.2340084,0.100425 0.2340084,0.256746 z"
         style="fill:#000000;stroke:none"
         id="path11798" />
      <path
         d="m 6.8364288,78.858235 c 0.00474,-0.03979 -0.023685,-0.07579 -0.062528,-0.08053 -0.039791,-0.0047 -0.075792,0.02369 -0.080529,0.06253 l -0.042633,0.345802 c -0.061581,-0.02179 -0.1610584,-0.05116 -0.228324,-0.05116 -0.3079057,0 -0.4755959,0.24443 -0.4755959,0.530545 0,0.243483 0.1610584,0.4377 0.4140148,0.4377 0.063476,0 0.1449525,-0.02558 0.1999019,-0.04642 0.011369,0.01705 0.030317,0.02937 0.052107,0.03221 0.039791,0.0047 0.075792,-0.02369 0.080529,-0.06253 z M 6.563577,79.899431 c -0.05116,0.02274 -0.1496896,0.05969 -0.2027441,0.05969 -0.1714798,0 -0.2700097,-0.128847 -0.2700097,-0.2918 0,-0.208429 0.1023195,-0.388435 0.3315908,-0.388435 0.048318,0 0.1468474,0.03032 0.2103233,0.05306 z"
         style="fill:#000000;stroke:none"
         id="path11800" />
      <path
         d="m 7.8321487,79.232459 c 0.00474,-0.03979 -0.023685,-0.07579 -0.063476,-0.08053 -0.02558,-0.0038 -0.052107,0.0076 -0.067266,0.02937 -0.048318,-0.02274 -0.1174779,-0.04642 -0.2036915,-0.04642 -0.3088532,0 -0.4935966,0.231166 -0.4935966,0.524861 0,0.241587 0.1563214,0.431068 0.4064356,0.431068 0.067266,0 0.1269519,-0.01421 0.174322,-0.03221 l -0.010421,0.08432 c -0.015158,0.119373 -0.1089513,0.173375 -0.1970597,0.173375 -0.017053,0 -0.058739,-0.0019 -0.07295,-0.0028 -0.040738,-9.47e-4 -0.074845,0.02653 -0.07674,0.06727 -0.00189,0.04074 0.027475,0.0739 0.068213,0.07674 0.00568,0 0.057792,0.0028 0.081477,0.0028 0.179059,0 0.3192746,-0.123163 0.3410648,-0.299379 z m -0.2264291,0.666972 c 0,0 -0.1013721,0.04642 -0.1951649,0.04642 -0.1676902,0 -0.2624305,-0.124109 -0.2624305,-0.28422 0,-0.217903 0.1222149,-0.382751 0.3495915,-0.382751 0.090951,0 0.1762168,0.04358 0.1762168,0.04358 z"
         style="fill:#000000;stroke:none"
         id="path11802" />
      <path
         d="m 8.8667121,79.525207 c 0,-0.228324 -0.1345312,-0.388435 -0.3704344,-0.388435 -0.2349557,0 -0.4064355,0.160111 -0.4376998,0.409277 l -0.00947,0.07579 c -0.032212,0.25864 0.1326363,0.48128 0.4064355,0.48128 0.1241098,0 0.2055864,-0.04074 0.2150604,-0.04547 0.033159,-0.01705 0.045475,-0.05874 0.028422,-0.0919 -0.018001,-0.03411 -0.058739,-0.04642 -0.091898,-0.02842 -9.474e-4,0 -0.059686,0.02937 -0.1515844,0.02937 -0.1563213,0 -0.26622,-0.106109 -0.2737992,-0.26622 l 0.6167589,-0.03884 c 0.033159,-0.0019 0.059686,-0.02747 0.063476,-0.05969 0.00284,-0.02653 0.00474,-0.05211 0.00474,-0.07674 z m -0.6726557,0.0379 c 0.010421,-0.07863 0.061581,-0.290853 0.3022213,-0.290853 0.1591636,0 0.2340084,0.100425 0.2340084,0.256746 z"
         style="fill:#000000;stroke:none"
         id="path11804" />
    </g>
    <g
       aria-label="pos"
       id="text11728"
       style="font-style:italic;font-size:1.94028px;line-height:100%;font-family:CoreHumanistSans;-inkscape-font-specification:'CoreHumanistSans, Italic';letter-spacing:0px;word-spacing:0px;display:inline;fill:none;stroke:#000000;stroke-width:0.264583px">
      <path
         d="m 15.796391,84.543801 c 0,-0.248219 -0.16769,-0.439594 -0.422541,-0.439594 -0.06537,0 -0.148742,0.02653 -0.205587,0.04737 -0.01137,-0.018 -0.02937,-0.03032 -0.05211,-0.03316 -0.03884,-0.0047 -0.07484,0.02369 -0.07958,0.06253 l -0.14211,1.155831 c -0.0047,0.03979 0.02274,0.07579 0.06253,0.08053 0.03979,0.0047 0.07579,-0.02369 0.08053,-0.06348 l 0.04169,-0.332538 c 0.06253,0.02084 0.164848,0.05116 0.234008,0.05116 0.308853,0 0.483175,-0.238746 0.483175,-0.528651 z m -0.144952,-0.0019 c 0,0.21127 -0.107057,0.38654 -0.338223,0.38654 -0.05021,0 -0.151584,-0.03032 -0.216008,-0.054 l 0.06916,-0.575073 c 0.03505,-0.01611 0.146847,-0.05116 0.207481,-0.05116 0.173374,0 0.277589,0.126004 0.277589,0.293695 z"
         style="fill:#000000;stroke:none"
         id="path11807" />
      <path
         d="m 16.902957,84.551381 c 0,-0.241588 -0.172427,-0.44528 -0.422541,-0.44528 -0.290853,0 -0.482228,0.24443 -0.482228,0.520124 0,0.241588 0.172427,0.446227 0.421594,0.446227 0.290852,0 0.483175,-0.24443 0.483175,-0.521071 z m -0.144953,0 c 0,0.196112 -0.127899,0.376118 -0.338222,0.376118 -0.168638,0 -0.277589,-0.139268 -0.277589,-0.300326 0,-0.19706 0.128847,-0.377066 0.338223,-0.377066 0.169585,0 0.277588,0.139268 0.277588,0.301274 z"
         style="fill:#000000;stroke:none"
         id="path11809" />
      <path
         d="m 17.766988,84.224527 c 0.01042,-0.03884 -0.01232,-0.07863 -0.05116,-0.08906 -0.06348,-0.01705 -0.197059,-0.02937 -0.256746,-0.02937 -0.256746,0 -0.312642,0.148743 -0.324011,0.237798 -0.0199,0.165796 0.07484,0.227377 0.147794,0.260536 l 0.224535,0.101372 c 0.05021,0.02274 0.07106,0.03979 0.06253,0.111794 -0.0038,0.03316 -0.01326,0.110846 -0.180953,0.110846 -0.05211,0 -0.17148,-0.01042 -0.221693,-0.02463 -0.03884,-0.01042 -0.07863,0.01232 -0.08906,0.05021 -0.01042,0.03884 0.01137,0.07863 0.05021,0.08906 0.07106,0.01895 0.207481,0.02937 0.260536,0.02937 0.256746,0 0.312642,-0.148742 0.324011,-0.237798 0.0199,-0.165796 -0.0739,-0.227377 -0.146847,-0.260536 l -0.224535,-0.101372 c -0.05021,-0.02274 -0.072,-0.03979 -0.06253,-0.111793 0.0038,-0.03316 0.01326,-0.110846 0.180006,-0.110846 0.054,0 0.174322,0.01232 0.21885,0.02463 0.03884,0.01042 0.07864,-0.01232 0.08906,-0.05021 z"
         style="fill:#000000;stroke:none"
         id="path11811" />
    </g>
  </g>
</svg>
