<?xml version="1.0" encoding="UTF-8" standalone="no"?>
<svg
   sodipodi:docname="FaderBackground60mm-dark.svg"
   inkscape:version="1.2.2 (732a01da63, 2022-12-09)"
   id="svg49872"
   version="1.1"
   viewBox="0 0 10.000001 68.000001"
   height="68mm"
   width="10mm"
   xmlns:inkscape="http://www.inkscape.org/namespaces/inkscape"
   xmlns:sodipodi="http://sodipodi.sourceforge.net/DTD/sodipodi-0.dtd"
   xmlns:xlink="http://www.w3.org/1999/xlink"
   xmlns="http://www.w3.org/2000/svg"
   xmlns:svg="http://www.w3.org/2000/svg"
   xmlns:rdf="http://www.w3.org/1999/02/22-rdf-syntax-ns#"
   xmlns:cc="http://creativecommons.org/ns#"
   xmlns:dc="http://purl.org/dc/elements/1.1/">
  <defs
     id="defs49866">
    <clipPath
       id="clip12">
      <path
         inkscape:connector-curvature="0"
         id="path28860"
         d="m 143,129.75 h 3 V 158 h -3 z m 0,0" />
    </clipPath>
    <clipPath
       id="clip11">
      <path
         inkscape:connector-curvature="0"
         id="path28857"
         d="m 117.39453,129.75 h 54 v 54.00391 h -54 z m 0,0" />
    </clipPath>
    <clipPath
       id="clip150">
      <path
         inkscape:connector-curvature="0"
         id="path29465"
         d="m 176,208.92578 h 2 V 228 h -2 z m 0,0" />
    </clipPath>
    <clipPath
       id="clip149">
      <path
         inkscape:connector-curvature="0"
         id="path29462"
         d="m 159.27734,208.92578 h 36 v 36 h -36 z m 0,0" />
    </clipPath>
    <clipPath
       id="clip142">
      <path
         inkscape:connector-curvature="0"
         id="path29320"
         d="m 110,208.92578 h 3 V 228 h -3 z m 0,0" />
    </clipPath>
    <clipPath
       id="clip141">
      <path
         inkscape:connector-curvature="0"
         id="path29317"
         d="m 93.511719,208.92578 h 36.000001 v 36 H 93.511719 Z m 0,0" />
    </clipPath>
    <clipPath
       clipPathUnits="userSpaceOnUse"
       id="clipPath23059">
      <g
         inkscape:label="Clip"
         id="use23061"
         style="display:inline" />
    </clipPath>
    <linearGradient
       inkscape:collect="always"
       xlink:href="#linearGradient8811-0"
       id="linearGradient8943-5"
       gradientUnits="userSpaceOnUse"
       gradientTransform="matrix(0.88187392,0,0,1.0061898,-5.6129615,3.8721938)"
       x1="77.316139"
       y1="126.26028"
       x2="77.976181"
       y2="126.26028" />
    <linearGradient
       inkscape:collect="always"
       id="linearGradient8811-0">
      <stop
         style="stop-color:#1a1a1a;stop-opacity:0.40000001;"
         offset="0"
         id="stop8807-7" />
      <stop
         style="stop-color:#17171a;stop-opacity:1;"
         offset="1"
         id="stop8809-7" />
    </linearGradient>
    <linearGradient
       inkscape:collect="always"
       xlink:href="#linearGradient9092-1"
       id="linearGradient9086-1"
       gradientUnits="userSpaceOnUse"
       x1="77.505386"
       y1="170.76913"
       x2="77.949722"
       y2="171.07317"
       gradientTransform="translate(-14.923243,-22.897899)" />
    <linearGradient
       inkscape:collect="always"
       id="linearGradient9092-1">
      <stop
         style="stop-color:#eaeaff;stop-opacity:0;"
         offset="0"
         id="stop9088-6" />
      <stop
         style="stop-color:#958d99;stop-opacity:1;"
         offset="1"
         id="stop9090-9" />
    </linearGradient>
    <linearGradient
       inkscape:collect="always"
       xlink:href="#linearGradient8949-9"
       id="linearGradient8941-2"
       gradientUnits="userSpaceOnUse"
       gradientTransform="matrix(0.88187392,0,0,1.0061898,-5.6129615,3.8721938)"
       x1="79.700424"
       y1="126.26028"
       x2="80.316315"
       y2="126.26028" />
    <linearGradient
       inkscape:collect="always"
       id="linearGradient8949-9">
      <stop
         style="stop-color:#17171a;stop-opacity:1;"
         offset="0"
         id="stop8947-8" />
      <stop
         style="stop-color:#17171a;stop-opacity:0.39622647;"
         offset="1"
         id="stop8945-5" />
    </linearGradient>
    <linearGradient
       inkscape:collect="always"
       xlink:href="#linearGradient9232-1"
       id="linearGradient9157-6"
       gradientUnits="userSpaceOnUse"
       x1="77.505386"
       y1="170.76913"
       x2="77.949722"
       y2="171.07317"
       gradientTransform="matrix(-1,0,0,1,142.70717,-22.895832)" />
    <linearGradient
       inkscape:collect="always"
       id="linearGradient9232-1">
      <stop
         style="stop-color:#eaeaff;stop-opacity:0;"
         offset="0"
         id="stop9228-3" />
      <stop
         style="stop-color:#878698;stop-opacity:1;"
         offset="1"
         id="stop9230-2" />
    </linearGradient>
    <linearGradient
       inkscape:collect="always"
       xlink:href="#linearGradient9066-3"
       id="linearGradient9068-6"
       x1="78.51683"
       y1="168.50653"
       x2="78.51683"
       y2="171.42979"
       gradientUnits="userSpaceOnUse"
       gradientTransform="translate(-14.923243,-22.897899)" />
    <linearGradient
       inkscape:collect="always"
       id="linearGradient9066-3">
      <stop
         style="stop-color:#eaeaff;stop-opacity:0;"
         offset="0"
         id="stop9062-9" />
      <stop
         style="stop-color:#777777;stop-opacity:0.43829787;"
         offset="1"
         id="stop9064-5" />
    </linearGradient>
  </defs>
  <sodipodi:namedview
     inkscape:document-rotation="0"
     inkscape:pagecheckerboard="true"
     inkscape:object-paths="true"
     inkscape:snap-bbox-edge-midpoints="true"
     inkscape:snap-object-midpoints="true"
     inkscape:snap-bbox-midpoints="true"
     inkscape:snap-bbox="true"
     inkscape:snap-global="true"
     inkscape:window-maximized="1"
     inkscape:window-y="-9"
     inkscape:window-x="2551"
     inkscape:window-height="1361"
     inkscape:window-width="2560"
     units="mm"
     fit-margin-bottom="0"
     fit-margin-right="0"
     fit-margin-left="0"
     fit-margin-top="0"
     showgrid="false"
     inkscape:current-layer="layer1-6"
     inkscape:document-units="mm"
     inkscape:cy="226.375"
     inkscape:cx="31.75"
     inkscape:zoom="4"
     inkscape:pageshadow="2"
     inkscape:pageopacity="0.0"
     borderopacity="1.0"
     bordercolor="#666666"
     pagecolor="#ffffff"
     id="base"
     inkscape:showpageshadow="2"
     inkscape:deskcolor="#d1d1d1" />
  <metadata
     id="metadata49869">
    <rdf:RDF>
      <cc:Work
         rdf:about="">
        <dc:format>image/svg+xml</dc:format>
        <dc:type
           rdf:resource="http://purl.org/dc/dcmitype/StillImage" />
      </cc:Work>
    </rdf:RDF>
  </metadata>
  <g
     transform="translate(-58.891236,-83.266553)"
     id="layer1-6"
     inkscape:groupmode="layer"
     inkscape:label="Layer 1"
     style="display:inline">
    <path
       style="opacity:0.97;fill:#17171a;fill-opacity:1;stroke:none;stroke-width:0.00190908;stroke-linejoin:round"
       d="m 63.153683,85.356233 v 4.332335 h 1.495915 v -4.332335 z"
       id="rect852-9"
       inkscape:label="plug-top"
       sodipodi:nodetypes="ccccc" />
    <path
       style="opacity:0.97;fill:#46464b;fill-opacity:1;stroke:none;stroke-width:0.00189869;stroke-linejoin:round"
       d="m 63.160894,144.58782 v 3.93659 h 1.47941 v -3.93659 z"
       id="rect852-3-8"
       inkscape:label="plug-bottom" />
    <path
       style="opacity:0.97;fill:url(#linearGradient8943-5);stroke:#000000;stroke-width:0.000892365;stroke-linejoin:round"
       d="m 63.160423,148.52498 0,-63.167901 h -0.05736 c -0.294973,0 -0.532784,0.237294 -0.532784,0.532267 l 0,62.103364 c 0,0.29497 0.237811,0.53227 0.532784,0.53227 z"
       id="path8799-5"
       inkscape:label="gradient-left"
       sodipodi:nodetypes="ccssssc" />
    <path
       id="path9084-9"
       style="opacity:0.97;fill:url(#linearGradient9086-1);fill-opacity:1;stroke:none;stroke-width:0.00189869;stroke-linejoin:round"
       d="m 62.570278,145.60265 v 2.38797 c 0,0.29497 0.237811,0.53227 0.532784,0.53227 h 0.05736 v -2.92024 z m 0.590661,0 v 2.92179 h 0.730705 v -2.92179 z"
       inkscape:label="highlight-left" />
    <path
       style="opacity:0.97;fill:url(#linearGradient8941-2);stroke:#000000;stroke-width:0.000892365;stroke-linejoin:round"
       d="m 64.640436,85.356046 0,63.168934 h 0.04237 c 0.294974,0 0.532784,-0.2373 0.532784,-0.53227 l 0,-62.104397 c 0,-0.294973 -0.23781,-0.532267 -0.532784,-0.532267 z"
       id="path8795-7"
       inkscape:label="gradient-right"
       sodipodi:nodetypes="ccssssc" />
    <path
       id="path9155-2"
       style="opacity:0.97;fill:url(#linearGradient9157-6);fill-opacity:1;stroke:none;stroke-width:0.00189869;stroke-linejoin:round"
       d="m 65.213636,145.60471 v 2.38797 c 0,0.29497 -0.237811,0.53227 -0.532784,0.53227 h -0.05736 v -2.92024 z m -0.590661,0 v 2.92179 H 63.89227 v -2.92179 z"
       inkscape:label="highlight-right" />
    <path
       id="path9057-2"
       style="display:inline;opacity:0.97;fill:url(#linearGradient9068-6);fill-opacity:1;stroke:none;stroke-width:0.00189869;stroke-linejoin:round"
       d="m 62.570279,145.60265 v 2.38797 c 0,0.29497 0.237811,0.53227 0.532784,0.53227 h 0.05736 v -2.92024 z m 0.590662,0 v 2.92179 h 1.479496 v -0.002 h 0.04237 c 0.294974,0 0.532784,-0.2373 0.532784,-0.53227 v -2.38745 z"
       inkscape:label="highlight-bottom" />
    <path
       id="rect856-0"
       style="opacity:0.97;stroke:#000000;stroke-width:0.000667741;stroke-linejoin:round"
       inkscape:label="slot"
       d="m 63.406201,85.98264 h 0.973563 c 0.145672,0 0.262946,0.117274 0.262946,0.262946 l 0,61.287434 c 0,0.14567 -0.117274,0.26294 -0.262946,0.26294 h -0.973563 c -0.145672,0 -0.262946,-0.11727 -0.262946,-0.26294 l 0,-61.287434 c 0,-0.145672 0.117274,-0.262946 0.262946,-0.262946 z"
       sodipodi:nodetypes="sssssssss" />
  </g>
  <g
     inkscape:groupmode="layer"
     id="layer2"
     inkscape:label="Tick mark lines"
     style="display:none"
     transform="matrix(1,0,0,0.6790926,0,1.3957025)"
     sodipodi:insensitive="true">
    <g
       id="g22908"
       style="display:inline"
       inkscape:label="lines">
      <g
         id="g25769"
         inkscape:label="thin lines">
        <path
           style="fill:none;stroke:#1f1f1f;stroke-width:0.19;stroke-linecap:round;stroke-linejoin:miter;stroke-miterlimit:4;stroke-dasharray:none;stroke-opacity:1"
           d="m 75.816227,91.955396 h 5.990684"
           id="use2432"
           sodipodi:nodetypes="cc"
           inkscape:tile-x0="1.2500001"
           inkscape:tile-y0="2.7208182"
           transform="translate(-73.816226,-78.610434)" />
        <path
           style="fill:none;stroke:#1f1f1f;stroke-width:0.19;stroke-linecap:round;stroke-linejoin:miter;stroke-miterlimit:4;stroke-dasharray:none;stroke-opacity:1"
           d="m 75.816227,100.52391 h 5.990684"
           id="use2434"
           sodipodi:nodetypes="cc"
           inkscape:tile-x0="1.2500001"
           inkscape:tile-y0="2.7208182"
           transform="translate(-73.816226,-78.610434)" />
        <path
           style="fill:none;stroke:#1f1f1f;stroke-width:0.19;stroke-linecap:round;stroke-linejoin:miter;stroke-miterlimit:4;stroke-dasharray:none;stroke-opacity:1"
           d="m 75.816227,109.09241 h 5.990684"
           id="use2436"
           sodipodi:nodetypes="cc"
           inkscape:tile-x0="1.2500001"
           inkscape:tile-y0="2.7208182"
           transform="translate(-73.816226,-78.610434)" />
        <path
           style="fill:none;stroke:#1f1f1f;stroke-width:0.19;stroke-linecap:round;stroke-linejoin:miter;stroke-miterlimit:4;stroke-dasharray:none;stroke-opacity:1"
           d="m 75.816227,117.66092 h 5.990684"
           id="use2438"
           sodipodi:nodetypes="cc"
           inkscape:tile-x0="1.2500001"
           inkscape:tile-y0="2.7208182"
           transform="translate(-73.816226,-78.610434)" />
        <path
           style="fill:none;stroke:#1f1f1f;stroke-width:0.19;stroke-linecap:round;stroke-linejoin:miter;stroke-miterlimit:4;stroke-dasharray:none;stroke-opacity:1"
           d="m 75.816227,134.79794 h 5.990684"
           id="use2442"
           sodipodi:nodetypes="cc"
           inkscape:tile-x0="1.2500001"
           inkscape:tile-y0="2.7208182"
           transform="translate(-73.816226,-78.610434)" />
        <path
           style="fill:none;stroke:#1f1f1f;stroke-width:0.19;stroke-linecap:round;stroke-linejoin:miter;stroke-miterlimit:4;stroke-dasharray:none;stroke-opacity:1"
           d="m 75.816227,143.36645 h 5.990684"
           id="use2444"
           sodipodi:nodetypes="cc"
           inkscape:tile-x0="1.2500001"
           inkscape:tile-y0="2.7208182"
           transform="translate(-73.816226,-78.610434)" />
        <path
           style="fill:none;stroke:#1f1f1f;stroke-width:0.19;stroke-linecap:round;stroke-linejoin:miter;stroke-miterlimit:4;stroke-dasharray:none;stroke-opacity:1"
           d="m 75.816227,151.93496 h 5.990684"
           id="use2446"
           sodipodi:nodetypes="cc"
           inkscape:tile-x0="1.2500001"
           inkscape:tile-y0="2.7208182"
           transform="translate(-73.816226,-78.610434)" />
        <path
           style="fill:none;stroke:#1f1f1f;stroke-width:0.19;stroke-linecap:round;stroke-linejoin:miter;stroke-miterlimit:4;stroke-dasharray:none;stroke-opacity:1"
           d="m 75.816227,160.50348 h 5.990684"
           id="use2448"
           sodipodi:nodetypes="cc"
           inkscape:tile-x0="1.2500001"
           inkscape:tile-y0="2.7208182"
           transform="translate(-73.816226,-78.610434)" />
      </g>
      <g
         id="g25774"
         inkscape:label="thick lines">
        <path
           style="fill:none;stroke:#1f1f1f;stroke-width:0.38;stroke-linecap:round;stroke-linejoin:miter;stroke-miterlimit:4;stroke-dasharray:none;stroke-opacity:1"
           d="m 75.816227,83.386884 h 5.990684"
           id="use2430"
           sodipodi:nodetypes="cc"
           inkscape:tile-x0="1.2500001"
           inkscape:tile-y0="2.7208182"
           transform="translate(-73.816226,-78.610434)" />
        <path
           style="fill:none;stroke:#1f1f1f;stroke-width:0.38;stroke-linecap:round;stroke-linejoin:miter;stroke-miterlimit:4;stroke-dasharray:none;stroke-opacity:1"
           d="m 75.816227,126.22943 h 5.990684"
           id="use2440"
           sodipodi:nodetypes="cc"
           inkscape:tile-x0="1.2500001"
           inkscape:tile-y0="2.7208182"
           transform="translate(-73.816226,-78.610434)" />
        <path
           style="fill:none;stroke:#1f1f1f;stroke-width:0.38;stroke-linecap:round;stroke-linejoin:miter;stroke-miterlimit:4;stroke-dasharray:none;stroke-opacity:1"
           d="m 75.816227,169.07198 h 5.990684"
           id="use2450"
           sodipodi:nodetypes="cc"
           inkscape:tile-x0="1.2500001"
           inkscape:tile-y0="2.7208182"
           transform="translate(-73.816226,-78.610434)" />
      </g>
    </g>
    <path
       id="rect22738"
       style="display:inline;opacity:0.557522;fill:#ff0000;fill-opacity:1;stroke:none;stroke-width:0.32;stroke-linecap:butt;stroke-linejoin:miter;stroke-dasharray:none;stroke-opacity:1"
       inkscape:label="mask"
       d="M -0.0232544,-0.0232544 V 95.00557 H 9.9539144 V -0.0232544 Z m 3.5310506,1.9409668 3.0108919,0.029233 V 93.035442 l -3.0108919,-0.02923 z"
       sodipodi:nodetypes="cccccccccc" />
  </g>
  <g
     inkscape:groupmode="layer"
     id="g26042"
     inkscape:label="Tick mark lines merged and masked"
     style="display:inline"
     transform="matrix(1,0,0,0.6829469,0,1.4541775)"
     sodipodi:insensitive="true">
    <path
       id="path12083"
       style="color:#000000;display:inline;fill:#ededed;fill-opacity:1;stroke-linecap:round;-inkscape-stroke:none"
       d="m 75.816621,83.197634 a 0.19,0.19 0 0 0 -0.189653,0.188718 0.19,0.19 0 0 0 0.189653,0.18948 h 1.507401 v -0.378198 z m 4.51807,0 v 0.378198 h 1.471745 a 0.19,0.19 0 0 0 0.189652,-0.18948 0.19,0.19 0 0 0 -0.189652,-0.188718 z m -4.51807,8.663563 a 0.095,0.095 0 0 0 -0.09612,0.0936 0.095,0.095 0 0 0 0.09612,0.09588 h 1.507401 v -0.18948 z m 4.51807,0 v 0.18948 h 1.471745 a 0.095,0.095 0 0 0 0.09612,-0.09588 0.095,0.095 0 0 0 -0.09612,-0.0936 z m -4.51807,8.568443 a 0.095,0.095 0 0 0 -0.09612,0.0936 0.095,0.095 0 0 0 0.09612,0.0959 h 1.507401 v -0.18948 z m 4.51807,0 v 0.18948 h 1.471745 a 0.095,0.095 0 0 0 0.09612,-0.0959 0.095,0.095 0 0 0 -0.09612,-0.0936 z m -4.51807,8.56844 a 0.095,0.095 0 0 0 -0.09612,0.0936 0.095,0.095 0 0 0 0.09612,0.0959 h 1.507401 v -0.18948 z m 4.51807,0 v 0.18948 h 1.471745 a 0.095,0.095 0 0 0 0.09612,-0.0959 0.095,0.095 0 0 0 -0.09612,-0.0936 z m -4.51807,8.56845 a 0.095,0.095 0 0 0 -0.09612,0.0936 0.095,0.095 0 0 0 0.09612,0.0959 h 1.507401 v -0.18948 z m 4.51807,0 v 0.18948 h 1.471745 a 0.095,0.095 0 0 0 0.09612,-0.0959 0.095,0.095 0 0 0 -0.09612,-0.0936 z m -4.51807,8.47256 a 0.19,0.19 0 0 0 -0.189653,0.18948 0.19,0.19 0 0 0 0.189653,0.191 h 1.507401 v -0.38048 z m 4.51807,0 v 0.38048 h 1.471745 a 0.19,0.19 0 0 0 0.189652,-0.191 0.19,0.19 0 0 0 -0.189652,-0.18948 z m -4.51807,8.66432 a 0.095,0.095 0 0 0 -0.09612,0.0951 0.095,0.095 0 0 0 0.09612,0.0944 h 1.507401 v -0.18948 z m 4.51807,0 v 0.18948 h 1.471745 a 0.095,0.095 0 0 0 0.09612,-0.0944 0.095,0.095 0 0 0 -0.09612,-0.0951 z m -4.51807,8.56845 a 0.095,0.095 0 0 0 -0.09612,0.0951 0.095,0.095 0 0 0 0.09612,0.0936 h 1.507401 v -0.18871 z m 4.51807,0 v 0.18871 h 1.471745 a 0.095,0.095 0 0 0 0.09612,-0.0936 0.095,0.095 0 0 0 -0.09612,-0.0951 z m -4.51807,8.56768 a 0.095,0.095 0 0 0 -0.09612,0.0959 0.095,0.095 0 0 0 0.09612,0.0936 h 1.507401 v -0.18948 z m 4.51807,0 v 0.18948 h 1.471745 a 0.095,0.095 0 0 0 0.09612,-0.0936 0.095,0.095 0 0 0 -0.09612,-0.0959 z m -4.51807,8.56844 a 0.095,0.095 0 0 0 -0.09612,0.0959 0.095,0.095 0 0 0 0.09612,0.0936 h 1.507401 V 160.408 Z m 4.51807,0 v 0.18948 h 1.471745 a 0.095,0.095 0 0 0 0.09612,-0.0936 0.095,0.095 0 0 0 -0.09612,-0.0959 z m -4.51807,8.47485 a 0.19,0.19 0 0 0 -0.189653,0.18947 0.19,0.19 0 0 0 0.189653,0.18948 h 1.507401 v -0.37895 z m 4.51807,0 v 0.37895 h 1.471745 a 0.19,0.19 0 0 0 0.189652,-0.18948 0.19,0.19 0 0 0 -0.189652,-0.18947 z"
       transform="matrix(1,0,0,0.99435637,-73.816226,-78.252407)" />
  </g>
</svg>
