<?xml version="1.0" encoding="UTF-8" standalone="no"?>
<!-- Created with Inkscape (http://www.inkscape.org/) -->

<svg
   xmlns:dc="http://purl.org/dc/elements/1.1/"
   xmlns:cc="http://creativecommons.org/ns#"
   xmlns:rdf="http://www.w3.org/1999/02/22-rdf-syntax-ns#"
   xmlns:svg="http://www.w3.org/2000/svg"
   xmlns="http://www.w3.org/2000/svg"
   xmlns:xlink="http://www.w3.org/1999/xlink"
   xmlns:sodipodi="http://sodipodi.sourceforge.net/DTD/sodipodi-0.dtd"
   xmlns:inkscape="http://www.inkscape.org/namespaces/inkscape"
   width="90.134254"
   height="379.99997"
   viewBox="0 0 23.848023 100.54167"
   version="1.1"
   id="svg4541"
   sodipodi:docname="meadowphysics.svg"
   inkscape:version="0.92.2 (5c3e80d, 2017-08-06)">
  <defs
     id="defs4535" />
  <sodipodi:namedview
     id="base"
     pagecolor="#ffffff"
     bordercolor="#666666"
     borderopacity="1.0"
     inkscape:pageopacity="0.0"
     inkscape:pageshadow="2"
     inkscape:zoom="2.7084698"
     inkscape:cx="70.617525"
     inkscape:cy="146.5388"
     inkscape:document-units="mm"
     inkscape:current-layer="g13224"
     showgrid="false"
     fit-margin-top="0"
     fit-margin-left="0"
     fit-margin-right="0"
     fit-margin-bottom="0"
     inkscape:window-width="1216"
     inkscape:window-height="602"
     inkscape:window-x="366"
     inkscape:window-y="135"
     inkscape:window-maximized="0"
     units="px" />
  <metadata
     id="metadata4538">
    <rdf:RDF>
      <cc:Work
         rdf:about="">
        <dc:format>image/svg+xml</dc:format>
        <dc:type
           rdf:resource="http://purl.org/dc/dcmitype/StillImage" />
        <dc:title />
      </cc:Work>
    </rdf:RDF>
  </metadata>
  <g
     inkscape:label="Layer 1"
     inkscape:groupmode="layer"
     id="layer1"
     transform="translate(-61.978028,-53.744307)">
    <g
       transform="matrix(0.27602379,0,0,0.27602379,354.09618,57.736346)"
       id="g13122"
       style="stroke-width:0.9585526">
      <g
         transform="translate(-167.07644,-20.557569)"
         id="g13178"
         style="stroke-width:0.91882312">
        <g
           transform="translate(-99.2314,6.0949065)"
           id="g13224"
           style="stroke-width:0.88074034">
          <path
             style="fill:#e6e6e6;fill-opacity:1;fill-rule:nonzero;stroke:none;stroke-width:0.88074034"
             d="m -791.73442,0.265625 h 85.87109 V 363.98828 h -85.87109 z m 0,0"
             id="path25105" />
          <image
             xlink:href="meadowphysics.jpg"
             style="opacity:0.48800001"
             width="86.269737"
             height="364.25"
             preserveAspectRatio="none"
             id="image6529"
             x="-792.13306"
             y="0.265625" />
          <g
             aria-label="1"
             style="font-style:italic;font-variant:normal;font-weight:normal;font-stretch:normal;font-size:38.34210587px;line-height:1.25;font-family:'Gill Sans';-inkscape-font-specification:'Gill Sans Italic';letter-spacing:0px;word-spacing:0px;fill:#000000;fill-opacity:1;stroke:none;stroke-width:0.84423596"
             id="text7121">
            <path
               d="m -785.46429,58.594504 -0.8275,5.29825 h -0.6927 l 0.83873,-5.29825 z"
               style="font-size:7.66842127px;stroke-width:0.84423596"
               id="path7227" />
          </g>
          <g
             aria-label="2"
             style="font-style:italic;font-variant:normal;font-weight:normal;font-stretch:normal;font-size:38.34210587px;line-height:1.25;font-family:'Gill Sans';-inkscape-font-specification:'Gill Sans Italic';letter-spacing:0px;word-spacing:0px;fill:#000000;fill-opacity:1;stroke:none;stroke-width:0.84423596"
             id="text7125"
             transform="translate(0,3.448637)">
            <path
               d="m -713.87379,80.160443 0.0974,-0.745125 q 0.60284,-0.359457 1.18321,-0.359457 0.5654,0 0.91362,0.34448 0.35197,0.344479 0.35197,0.906131 0,0.565397 -0.498,1.351709 -0.49425,0.782569 -1.55764,2.051902 h 1.99199 l -0.0899,0.644028 h -3.1752 q 1.52769,-1.868429 2.09309,-2.729629 0.56539,-0.864944 0.56539,-1.265589 0,-0.303292 -0.1947,-0.475532 -0.19471,-0.175984 -0.53919,-0.175984 -0.52795,0 -1.14202,0.453066 z"
               style="font-size:7.66842127px;stroke-width:0.84423596"
               id="path7224"
               inkscape:connector-curvature="0" />
          </g>
          <g
             aria-label="4"
             style="font-style:italic;font-variant:normal;font-weight:normal;font-stretch:normal;font-size:38.34210587px;line-height:1.25;font-family:'Gill Sans';-inkscape-font-specification:'Gill Sans Italic';letter-spacing:0px;word-spacing:0px;fill:#000000;fill-opacity:1;stroke:none;stroke-width:0.84423596"
             id="text7129"
             transform="translate(0,3.448637)">
            <path
               d="m -711.40303,115.39606 -0.48302,3.12653 h 0.75261 l -0.0786,0.56165 h -0.77508 l -0.25087,1.61007 h -0.67024 l 0.27708,-1.61007 h -1.96203 v -0.29954 l 2.77456,-3.38864 z m -2.31026,3.12653 h 1.16823 l 0.30704,-1.81601 z"
               style="font-size:7.66842127px;stroke-width:0.84423596"
               id="path7221"
               inkscape:connector-curvature="0" />
          </g>
          <g
             aria-label="3"
             style="font-style:italic;font-variant:normal;font-weight:normal;font-stretch:normal;font-size:38.34210587px;line-height:1.25;font-family:'Gill Sans';-inkscape-font-specification:'Gill Sans Italic';letter-spacing:0px;word-spacing:0px;fill:#000000;fill-opacity:1;stroke:none;stroke-width:0.84423596"
             id="text7133">
            <path
               d="m -787.42733,97.492352 0.1011,-0.722658 q 0.5317,-0.228405 1.08212,-0.228405 0.63279,0 1.01472,0.37069 0.38566,0.37069 0.38566,0.984763 0,0.872433 -1.01846,1.250612 0.70394,0.299547 0.70394,1.183216 0,0.61033 -0.47928,1.09335 -0.47553,0.48302 -1.33673,0.48302 -0.61407,0 -1.2581,-0.28832 l 0.0936,-0.62156 q 0.57663,0.29206 1.13454,0.29206 0.50548,0 0.81626,-0.26585 0.31078,-0.26585 0.31078,-0.6927 0,-0.423114 -0.28457,-0.662752 -0.28457,-0.243383 -0.66649,-0.213428 l 0.0824,-0.621562 q 0.56539,-0.04119 0.87243,-0.314525 0.31078,-0.273337 0.31078,-0.614072 0,-0.333247 -0.22466,-0.535442 -0.22466,-0.205939 -0.59535,-0.205939 -0.53544,0 -1.04468,0.329502 z"
               style="font-size:7.66842127px;stroke-width:0.84423596"
               id="path7218" />
          </g>
          <g
             aria-label="5"
             style="font-style:italic;font-variant:normal;font-weight:normal;font-stretch:normal;font-size:38.34210587px;line-height:1.25;font-family:'Gill Sans';-inkscape-font-specification:'Gill Sans Italic';letter-spacing:0px;word-spacing:0px;fill:#000000;fill-opacity:1;stroke:none;stroke-width:0.84423596"
             id="text7137">
            <path
               d="m -784.54691,132.52756 -0.11608,0.64402 h -1.50148 l -0.20968,1.30304 q 0.70768,0.0412 1.10083,0.45306 0.3969,0.41188 0.3969,1.06714 0,0.80878 -0.55041,1.32175 -0.54668,0.50924 -1.41162,0.50924 -0.73389,0 -1.25061,-0.38942 l 0.23589,-0.60658 q 0.49051,0.37818 1.05216,0.37818 0.52795,0 0.86494,-0.33699 0.337,-0.34074 0.337,-0.86869 0,-0.41188 -0.29581,-0.65901 -0.29206,-0.24712 -0.79005,-0.24712 -0.18722,0 -0.46056,0.0636 l 0.46804,-2.63227 z"
               style="font-size:7.66842127px;stroke-width:0.84423596"
               id="path7215" />
          </g>
          <g
             aria-label="7"
             style="font-style:italic;font-variant:normal;font-weight:normal;font-stretch:normal;font-size:38.34210587px;line-height:1.25;font-family:'Gill Sans';-inkscape-font-specification:'Gill Sans Italic';letter-spacing:0px;word-spacing:0px;fill:#000000;fill-opacity:1;stroke:none;stroke-width:0.84423596"
             id="text7141">
            <path
               d="m -783.84152,168.34108 -2.44506,5.29825 h -0.71143 l 2.14551,-4.65422 h -2.10806 l 0.0899,-0.64403 z"
               style="font-size:7.66842127px;stroke-width:0.84423596"
               id="path7212" />
          </g>
          <g
             aria-label="6"
             style="font-style:italic;font-variant:normal;font-weight:normal;font-stretch:normal;font-size:38.34210587px;line-height:1.25;font-family:'Gill Sans';-inkscape-font-specification:'Gill Sans Italic';letter-spacing:0px;word-spacing:0px;fill:#000000;fill-opacity:1;stroke:none;stroke-width:0.84423596"
             id="text7145"
             transform="translate(0,3.448637)">
            <path
               d="m -711.50686,151.59299 -1.50523,2.19418 0.0187,0.015 q 0.22841,-0.17598 0.67398,-0.17598 0.56166,0 0.89865,0.35945 0.33699,0.35572 0.33699,0.95107 0,0.76384 -0.55416,1.35919 -0.55042,0.59536 -1.25062,0.59536 -0.64028,0 -1.01097,-0.42312 -0.36695,-0.42685 -0.36695,-1.17198 0,-0.37069 0.2022,-0.87617 0.20594,-0.50923 0.51672,-0.9623 l 1.27308,-1.86468 z m -1.36669,4.64673 q 0.42686,0 0.76385,-0.37818 0.34073,-0.37818 0.34073,-0.86869 0,-0.3295 -0.19845,-0.53544 -0.19845,-0.20968 -0.50548,-0.20968 -0.44933,0 -0.78257,0.33699 -0.3295,0.33699 -0.3295,0.79006 0,0.38192 0.19845,0.6253 0.20219,0.23964 0.51297,0.23964 z"
               style="font-size:7.66842127px;stroke-width:0.84423596"
               id="path7209"
               inkscape:connector-curvature="0" />
          </g>
          <g
             aria-label="8"
             style="font-style:italic;font-variant:normal;font-weight:normal;font-stretch:normal;font-size:38.34210587px;line-height:1.25;font-family:'Gill Sans';-inkscape-font-specification:'Gill Sans Italic';letter-spacing:0px;word-spacing:0px;fill:#000000;fill-opacity:1;stroke:none;stroke-width:0.84423596"
             id="text7149"
             transform="translate(0,3.448637)">
            <path
               d="m -711.90427,190.32907 q 0.68896,0.29206 0.68896,1.11207 0,0.70768 -0.52046,1.19819 -0.51672,0.48677 -1.27308,0.48677 -0.65901,0 -1.06714,-0.40065 -0.40439,-0.40064 -0.40439,-1.04841 0,-1.09335 1.11956,-1.43409 -0.59161,-0.34822 -0.59161,-1.02595 0,-0.59535 0.44933,-1.02595 0.44932,-0.4306 1.07088,-0.4306 0.64028,0 1.02969,0.36695 0.38942,0.36694 0.38942,0.97353 0,0.41187 -0.2359,0.74138 -0.23215,0.3295 -0.65526,0.48676 z m -0.65151,-0.3295 q 0.34822,0 0.60284,-0.2621 0.25461,-0.26585 0.25461,-0.62905 0,-0.32202 -0.19845,-0.52421 -0.19845,-0.2022 -0.51297,-0.2022 -0.35572,0 -0.60659,0.26211 -0.25087,0.25836 -0.25087,0.61781 0,0.32951 0.19471,0.53544 0.19845,0.2022 0.51672,0.2022 z m -0.40814,2.50871 q 0.43809,0 0.75262,-0.31078 0.31452,-0.31452 0.31452,-0.74138 0,-0.38941 -0.23215,-0.61033 -0.2284,-0.22466 -0.63279,-0.22466 -0.41563,0 -0.72641,0.32201 -0.31078,0.31827 -0.31078,0.74139 0,0.35571 0.2359,0.5916 0.23963,0.23215 0.59909,0.23215 z"
               style="font-size:7.66842127px;stroke-width:0.84423596"
               id="path7206"
               inkscape:connector-curvature="0" />
          </g>
          <g
             id="g7176"
             transform="translate(0.7078186)">
            <path
               d="m -734.08231,244.66576 -0.0749,0.62905 q -0.44933,0.24713 -0.95856,0.24713 -0.6927,0 -1.10832,-0.4306 -0.41188,-0.43435 -0.41188,-1.15701 0,-0.87243 0.62531,-1.47153 0.62905,-0.59909 1.60632,-0.59909 0.24713,0 0.59161,0.0599 l -0.0861,0.57663 q -0.24339,-0.0562 -0.498,-0.0562 -0.67773,0 -1.12705,0.43435 -0.44558,0.43434 -0.44558,1.01472 0,0.48676 0.25087,0.76759 0.25462,0.27708 0.69271,0.27708 0.4643,0 0.94357,-0.29206 z"
               style="font-style:italic;font-variant:normal;font-weight:normal;font-stretch:normal;font-size:7.66842127px;line-height:1.25;font-family:'Gill Sans';-inkscape-font-specification:'Gill Sans Italic';letter-spacing:0px;word-spacing:0px;fill:#000000;fill-opacity:1;stroke:none;stroke-width:0.84423596"
               id="path7155"
               inkscape:connector-curvature="0" />
            <path
               d="m -731.88498,240.2025 -0.73764,5.23085 h -0.65152 l 0.73764,-5.23085 z"
               style="font-style:italic;font-variant:normal;font-weight:normal;font-stretch:normal;font-size:7.66842127px;line-height:1.25;font-family:'Gill Sans';-inkscape-font-specification:'Gill Sans Italic';letter-spacing:0px;word-spacing:0px;fill:#000000;fill-opacity:1;stroke:none;stroke-width:0.84423596"
               id="path7157"
               inkscape:connector-curvature="0" />
            <path
               d="m -729.96302,241.88371 q 0.58038,0 0.9286,0.41188 0.35197,0.40813 0.35197,1.0896 0,0.94358 -0.47179,1.55016 -0.47179,0.60659 -1.16075,0.60659 -0.60658,0 -0.95106,-0.40814 -0.34448,-0.40813 -0.34448,-1.13454 0,-0.90238 0.47553,-1.50897 0.47553,-0.60658 1.17198,-0.60658 z m 0,0.51297 q -0.40064,0 -0.6927,0.498 -0.28832,0.49426 -0.28832,1.17198 0,0.40439 0.17224,0.65901 0.17599,0.25461 0.43435,0.25461 0.40813,0 0.69645,-0.4643 0.29205,-0.46429 0.29205,-1.16823 0,-0.43435 -0.16849,-0.69271 -0.1685,-0.25836 -0.44558,-0.25836 z"
               style="font-style:italic;font-variant:normal;font-weight:normal;font-stretch:normal;font-size:7.66842127px;line-height:1.25;font-family:'Gill Sans';-inkscape-font-specification:'Gill Sans Italic';letter-spacing:0px;word-spacing:0px;fill:#000000;fill-opacity:1;stroke:none;stroke-width:0.84423596"
               id="path7159"
               inkscape:connector-curvature="0" />
            <path
               d="m -725.40046,244.66576 -0.0749,0.62905 q -0.44932,0.24713 -0.95855,0.24713 -0.69271,0 -1.10833,-0.4306 -0.41188,-0.43435 -0.41188,-1.15701 0,-0.87243 0.62531,-1.47153 0.62905,-0.59909 1.60632,-0.59909 0.24713,0 0.59161,0.0599 l -0.0861,0.57663 q -0.24338,-0.0562 -0.498,-0.0562 -0.67773,0 -1.12705,0.43435 -0.44558,0.43434 -0.44558,1.01472 0,0.48676 0.25088,0.76759 0.25461,0.27708 0.6927,0.27708 0.4643,0 0.94358,-0.29206 z"
               style="font-style:italic;font-variant:normal;font-weight:normal;font-stretch:normal;font-size:7.66842127px;line-height:1.25;font-family:'Gill Sans';-inkscape-font-specification:'Gill Sans Italic';letter-spacing:0px;word-spacing:0px;fill:#000000;fill-opacity:1;stroke:none;stroke-width:0.84423596"
               id="path7161"
               inkscape:connector-curvature="0" />
            <path
               d="m -723.1744,240.2025 -0.47179,3.29877 1.4603,-1.51272 h 0.8275 l -1.58012,1.62879 1.6887,1.81601 h -0.8275 l -1.5876,-1.74861 -0.24713,1.74861 h -0.64403 l 0.73015,-5.23085 z"
               style="font-style:italic;font-variant:normal;font-weight:normal;font-stretch:normal;font-size:7.66842127px;line-height:1.25;font-family:'Gill Sans';-inkscape-font-specification:'Gill Sans Italic';letter-spacing:0px;word-spacing:0px;fill:#000000;fill-opacity:1;stroke:none;stroke-width:0.84423596"
               id="path7163"
               inkscape:connector-curvature="0" />
          </g>
          <g
             aria-label="in"
             style="font-style:italic;font-variant:normal;font-weight:normal;font-stretch:normal;font-size:38.34210587px;line-height:1.25;font-family:'Gill Sans';-inkscape-font-specification:'Gill Sans Italic';letter-spacing:0px;word-spacing:0px;fill:#000000;fill-opacity:1;stroke:none;stroke-width:0.84423596"
             id="text7180"
             transform="translate(-1.4156372,-0.02338625)">
            <path
               d="m -769.02559,303.97234 q 0,-0.15726 0.10859,-0.26585 0.11233,-0.11233 0.26584,-0.11233 0.15352,0 0.26211,0.11233 0.11233,0.10859 0.11233,0.26585 0,0.15352 -0.11233,0.26585 -0.10859,0.10859 -0.26211,0.10859 -0.15351,0 -0.26584,-0.10859 -0.10859,-0.11233 -0.10859,-0.26585 z m 0.58037,1.07838 -0.48302,3.44479 h -0.65151 l 0.48302,-3.44479 z"
               style="font-size:7.66842127px;stroke-width:0.84423596"
               id="path7186"
               inkscape:connector-curvature="0" />
            <path
               d="m -766.71158,305.05072 -0.0861,0.60658 0.015,0.015 q 0.55042,-0.67399 1.14203,-0.67399 0.40064,0 0.62156,0.29581 0.22092,0.29206 0.22092,0.75636 0,0.13105 -0.0225,0.27333 l -0.3295,2.17172 h -0.64403 l 0.31453,-2.19418 q 0.0187,-0.11608 0.0187,-0.21343 0,-0.26959 -0.11233,-0.41188 -0.11233,-0.14228 -0.28083,-0.14228 -0.0973,0 -0.22091,0.0487 -0.11982,0.0487 -0.25836,0.14978 -0.13855,0.10109 -0.34448,0.30703 -0.2022,0.20594 -0.21343,0.26211 l -0.31453,2.19418 h -0.64403 l 0.48303,-3.44479 z"
               style="font-size:7.66842127px;stroke-width:0.84423596"
               id="path7188"
               inkscape:connector-curvature="0" />
          </g>
          <g
             id="g7204"
             transform="translate(-0.43272838,-0.24727336)">
            <path
               d="m -733.97609,305.06083 q 0.58037,0 0.92859,0.41188 0.35197,0.40814 0.35197,1.08961 0,0.94357 -0.47179,1.55016 -0.47178,0.60658 -1.16074,0.60658 -0.60659,0 -0.95107,-0.40813 -0.34448,-0.40814 -0.34448,-1.13454 0,-0.90239 0.47553,-1.50897 0.47554,-0.60659 1.17199,-0.60659 z m 0,0.51298 q -0.40065,0 -0.69271,0.498 -0.28831,0.49425 -0.28831,1.17198 0,0.40439 0.17224,0.659 0.17598,0.25462 0.43434,0.25462 0.40813,0 0.69645,-0.4643 0.29206,-0.4643 0.29206,-1.16824 0,-0.43434 -0.1685,-0.6927 -0.16849,-0.25836 -0.44557,-0.25836 z"
               style="font-style:italic;font-variant:normal;font-weight:normal;font-stretch:normal;font-size:7.66842127px;line-height:1.25;font-family:'Gill Sans';-inkscape-font-specification:'Gill Sans Italic';letter-spacing:0px;word-spacing:0px;fill:#000000;fill-opacity:1;stroke:none;stroke-width:0.84423596"
               id="path7191"
               inkscape:connector-curvature="0" />
            <path
               d="m -728.93194,305.16568 -0.49051,3.44479 h -0.64402 l 0.0599,-0.58411 q -0.59535,0.63653 -1.13454,0.63653 -0.34822,0 -0.59161,-0.24712 -0.23963,-0.25087 -0.23963,-0.71143 0,-0.13105 0.0187,-0.26585 l 0.32201,-2.27281 h 0.65152 l -0.32202,2.27281 q -0.015,0.11233 -0.015,0.20969 0,0.51672 0.38192,0.51672 0.40064,0 1.03718,-0.76011 l 0.31453,-2.23911 z"
               style="font-style:italic;font-variant:normal;font-weight:normal;font-stretch:normal;font-size:7.66842127px;line-height:1.25;font-family:'Gill Sans';-inkscape-font-specification:'Gill Sans Italic';letter-spacing:0px;word-spacing:0px;fill:#000000;fill-opacity:1;stroke:none;stroke-width:0.84423596"
               id="path7193"
               inkscape:connector-curvature="0" />
            <path
               d="m -726.08699,305.16568 -0.0711,0.50923 h -0.68896 l -0.3295,1.8834 q -0.0262,0.14229 -0.0262,0.23964 0,0.33699 0.3632,0.33699 0.26959,0 0.62905,-0.20594 l -0.0374,0.63654 q -0.35945,0.15352 -0.71517,0.15352 -0.42311,0 -0.67023,-0.21343 -0.24339,-0.21717 -0.24339,-0.56914 0,-0.0861 0.0187,-0.17598 l 0.35946,-2.0856 h -0.60658 l 0.0786,-0.50923 h 0.6253 l 0.13106,-0.70394 h 0.64402 l -0.11981,0.70394 z"
               style="font-style:italic;font-variant:normal;font-weight:normal;font-stretch:normal;font-size:7.66842127px;line-height:1.25;font-family:'Gill Sans';-inkscape-font-specification:'Gill Sans Italic';letter-spacing:0px;word-spacing:0px;fill:#000000;fill-opacity:1;stroke:none;stroke-width:0.84423596"
               id="path7195"
               inkscape:connector-curvature="0" />
          </g>
          <path
             inkscape:connector-curvature="0"
             id="path7234"
             style="font-style:italic;font-variant:normal;font-weight:normal;font-stretch:normal;font-size:7.66842127px;line-height:1.25;font-family:'Gill Sans';-inkscape-font-specification:'Gill Sans Italic';letter-spacing:0px;word-spacing:0px;fill:#000000;fill-opacity:1;stroke:none;stroke-width:0.82596636"
             d="m -779.99673,4.9817647 v 5.2308563 h -0.66305 l -0.004,-3.983989 -2.0214,3.983989 -0.88167,-4.0027107 -1.23291,4.0027107 h -0.65946 l 1.65224,-5.2308563 h 0.56986 l 0.78132,3.5421516 1.79561,-3.5421516 z" />
          <path
             inkscape:connector-curvature="0"
             id="path7236"
             style="font-style:italic;font-variant:normal;font-weight:normal;font-stretch:normal;font-size:7.66842127px;line-height:1.25;font-family:'Gill Sans';-inkscape-font-specification:'Gill Sans Italic';letter-spacing:0px;word-spacing:0px;fill:#000000;fill-opacity:1;stroke:none;stroke-width:0.82596636"
             d="m -776.06146,4.9817647 -0.0824,0.6215615 h -2.00348 l -0.21862,1.6400237 h 1.76693 l -0.0789,0.6215615 h -1.77769 l -0.24013,1.7261461 2.02537,0.02272 -0.0896,0.5988445 h -2.67766 l 0.72756,-5.2308563 z"
             sodipodi:nodetypes="ccccccccccccc" />
          <path
             inkscape:connector-curvature="0"
             id="path7238"
             style="font-style:italic;font-variant:normal;font-weight:normal;font-stretch:normal;font-size:7.66842127px;line-height:1.25;font-family:'Gill Sans';-inkscape-font-specification:'Gill Sans Italic';letter-spacing:0px;word-spacing:0px;fill:#000000;fill-opacity:1;stroke:none;stroke-width:0.82596636"
             d="m -773.43939,4.9518099 0.97486,5.2608111 h -0.61646 l -0.30106,-1.6400282 h -1.56981 l -0.65946,1.6400282 h -0.67022 l 2.21136,-5.2608111 z m -1.29384,3.0666197 h 1.25083 l -0.38349,-2.1455105 z" />
          <path
             inkscape:connector-curvature="0"
             id="path7240"
             style="font-style:italic;font-variant:normal;font-weight:normal;font-stretch:normal;font-size:7.66842127px;line-height:1.25;font-family:'Gill Sans';-inkscape-font-specification:'Gill Sans Italic';letter-spacing:0px;word-spacing:0px;fill:#000000;fill-opacity:1;stroke:none;stroke-width:0.82596636"
             d="m -771.94475,10.212621 0.71322,-5.2308563 h 0.59137 q 1.3906,0 2.16476,0.7001928 0.77415,0.6964484 0.77415,1.924594 0,1.1832133 -0.68096,1.8946417 -0.68097,0.7114278 -1.93181,0.7114278 z m 1.29742,-4.6018061 -0.53402,3.9802426 h 0.60212 q 0.85658,0 1.26875,-0.2134289 0.41216,-0.2171726 0.65229,-0.6814723 0.24372,-0.464299 0.24372,-1.1120709 0,-0.9285979 -0.60212,-1.449062 -0.60212,-0.5242085 -1.40136,-0.5242085 z" />
          <path
             inkscape:connector-curvature="0"
             id="path7242"
             style="font-style:italic;font-variant:normal;font-weight:normal;font-stretch:normal;font-size:7.66842127px;line-height:1.25;font-family:'Gill Sans';-inkscape-font-specification:'Gill Sans Italic';letter-spacing:0px;word-spacing:0px;fill:#000000;fill-opacity:1;stroke:none;stroke-width:0.82596636"
             d="m -764.81528,4.9143665 q 0.79207,0 1.2795,0.6065841 0.49102,0.6028397 0.49102,1.5876028 0,1.3629421 -0.71323,2.2690752 -0.71322,0.9023904 -1.70242,0.9023904 -0.78132,0 -1.28309,-0.6178182 -0.50176,-0.6178191 -0.50176,-1.587606 0,-1.2094239 0.68097,-2.1829539 0.68455,-0.9772744 1.74901,-0.9772744 z m -0.63079,4.7366013 q 0.6953,0 1.20782,-0.7788267 0.51611,-0.782569 0.51611,-1.8871511 0,-0.6739824 -0.29748,-1.0559057 -0.29747,-0.3856677 -0.80283,-0.3856677 -0.77415,0 -1.26158,0.8087789 -0.48384,0.8050344 -0.48384,1.8197523 0,0.6852153 0.30464,1.0821175 0.30464,0.3969025 0.81716,0.3969025 z" />
          <path
             inkscape:connector-curvature="0"
             id="path7244"
             style="font-style:italic;font-variant:normal;font-weight:normal;font-stretch:normal;font-size:7.66842127px;line-height:1.25;font-family:'Gill Sans';-inkscape-font-specification:'Gill Sans Italic';letter-spacing:0px;word-spacing:0px;fill:#000000;fill-opacity:1;stroke:none;stroke-width:0.82596636"
             d="m -755.91607,4.9817647 -2.42281,5.2757883 h -0.25447 l -0.97127,-3.7106515 -1.70242,3.7106515 h -0.26164 l -1.18273,-5.2757883 h 0.63079 l 0.82791,3.7031585 1.68809,-3.7031585 h 0.25805 l 0.97844,3.7668124 1.71676,-3.7668124 z" />
          <path
             inkscape:connector-curvature="0"
             id="path7246"
             style="font-style:italic;font-variant:normal;font-weight:normal;font-stretch:normal;font-size:7.66842127px;line-height:1.25;font-family:'Gill Sans';-inkscape-font-specification:'Gill Sans Italic';letter-spacing:0px;word-spacing:0px;fill:#000000;fill-opacity:1;stroke:none;stroke-width:0.82596636"
             d="m -755.18072,4.9817647 h 0.86018 q 0.77415,0 1.19707,0.3744346 0.42291,0.3744347 0.42291,1.1083265 0,0.6028398 -0.41933,1.0708831 -0.41933,0.4680433 -1.17915,0.4680433 h -0.60212 l -0.29389,2.2091688 h -0.69172 z m 0.60212,0.6215615 -0.23654,1.7785645 h 0.48384 q 0.45159,0 0.70248,-0.2695929 0.25447,-0.2733373 0.25447,-0.6739824 0,-0.378179 -0.23655,-0.6065841 -0.23655,-0.2284051 -0.67381,-0.2284051 z" />
          <path
             inkscape:connector-curvature="0"
             id="path7248"
             style="font-style:italic;font-variant:normal;font-weight:normal;font-stretch:normal;font-size:7.66842127px;line-height:1.25;font-family:'Gill Sans';-inkscape-font-specification:'Gill Sans Italic';letter-spacing:0px;word-spacing:0px;fill:#000000;fill-opacity:1;stroke:none;stroke-width:0.82596636"
             d="m -747.64736,4.9817647 -0.70606,5.2308563 h -0.68813 l 0.3154,-2.3140105 h -2.70953 l -0.30824,2.3140105 h -0.68813 l 0.70247,-5.2308563 h 0.68455 l -0.30106,2.2615852 h 2.70596 l 0.30105,-2.2615852 z" />
          <path
             inkscape:connector-curvature="0"
             id="path7250"
             style="font-style:italic;font-variant:normal;font-weight:normal;font-stretch:normal;font-size:7.66842127px;line-height:1.25;font-family:'Gill Sans';-inkscape-font-specification:'Gill Sans Italic';letter-spacing:0px;word-spacing:0px;fill:#000000;fill-opacity:1;stroke:none;stroke-width:0.82596636"
             d="m -743.47078,4.9817647 -1.75618,2.6247868 -0.35123,2.6060695 h -0.65947 l 0.35123,-2.6060695 -1.17556,-2.6247868 h 0.69888 l 0.84942,1.9171053 1.27951,-1.9171053 z" />
          <path
             inkscape:connector-curvature="0"
             id="path7252"
             style="font-style:italic;font-variant:normal;font-weight:normal;font-stretch:normal;font-size:7.66842127px;line-height:1.25;font-family:'Gill Sans';-inkscape-font-specification:'Gill Sans Italic';letter-spacing:0px;word-spacing:0px;fill:#000000;fill-opacity:1;stroke:none;stroke-width:0.82596636"
             d="m -740.61702,5.1203055 -0.0968,0.7151702 q -0.40141,-0.2770817 -0.87809,-0.2770817 -0.40141,0 -0.64154,0.2171721 -0.24013,0.2171721 -0.24013,0.572885 0,0.1759843 0.11468,0.3706903 0.11469,0.194706 0.67023,0.6627493 0.55552,0.4642989 0.73113,0.8162675 0.17921,0.3519685 0.17921,0.7039379 0,0.5616528 -0.405,0.9697883 -0.40499,0.4081346 -1.0788,0.4081346 -0.59852,0 -1.2114,-0.3744356 l 0.10394,-0.7675934 q 0.68455,0.4979995 1.17556,0.4979995 0.26523,0 0.50177,-0.1797286 0.24013,-0.1834736 0.24013,-0.4942555 0,-0.1984506 -0.12185,-0.4118787 -0.11828,-0.2134277 -0.6774,-0.6889597 -0.55552,-0.475532 -0.72755,-0.8237562 -0.16845,-0.3519685 -0.16845,-0.6964484 0,-0.6065841 0.48026,-1.0147178 0.48026,-0.4118781 1.13255,-0.4118781 0.45518,0 0.91752,0.205939 z" />
          <path
             inkscape:connector-curvature="0"
             id="path7254"
             style="font-style:italic;font-variant:normal;font-weight:normal;font-stretch:normal;font-size:7.66842127px;line-height:1.25;font-family:'Gill Sans';-inkscape-font-specification:'Gill Sans Italic';letter-spacing:0px;word-spacing:0px;fill:#000000;fill-opacity:1;stroke:none;stroke-width:0.82596636"
             d="m -738.68043,4.9817647 -0.70605,5.2308563 h -0.68814 l 0.70247,-5.2308563 z" />
          <path
             inkscape:connector-curvature="0"
             id="path7256"
             style="font-style:italic;font-variant:normal;font-weight:normal;font-stretch:normal;font-size:7.66842127px;line-height:1.25;font-family:'Gill Sans';-inkscape-font-specification:'Gill Sans Italic';letter-spacing:0px;word-spacing:0px;fill:#000000;fill-opacity:1;stroke:none;stroke-width:0.82596636"
             d="m -734.11625,4.9143665 -0.13261,0.6590049 h -0.36557 q -1.29742,0 -1.99273,0.7264032 -0.6953,0.7264032 -0.6953,1.7598428 0,0.7114254 0.3584,1.1382826 0.35841,0.4231125 0.95694,0.4231125 0.30824,0 0.72398,-0.1722406 0.41933,-0.1759846 0.77057,-0.4717895 l -0.10752,0.846226 q -0.77774,0.4568106 -1.48379,0.4568106 -0.84942,0 -1.39061,-0.6065852 -0.5412,-0.6103311 -0.5412,-1.5688843 0,-1.4078742 0.93544,-2.2990286 0.93902,-0.8911544 2.48732,-0.8911544 z" />
          <path
             inkscape:connector-curvature="0"
             id="path7258"
             style="font-style:italic;font-variant:normal;font-weight:normal;font-stretch:normal;font-size:7.66842127px;line-height:1.25;font-family:'Gill Sans';-inkscape-font-specification:'Gill Sans Italic';letter-spacing:0px;word-spacing:0px;fill:#000000;fill-opacity:1;stroke:none;stroke-width:0.82596636"
             d="m -730.6004,5.1203055 -0.0968,0.7151702 q -0.40142,-0.2770817 -0.87809,-0.2770817 -0.40141,0 -0.64154,0.2171721 -0.24013,0.2171721 -0.24013,0.572885 0,0.1759843 0.11469,0.3706903 0.11468,0.194706 0.67021,0.6627493 0.55552,0.4642989 0.73114,0.8162675 0.1792,0.3519685 0.1792,0.7039379 0,0.5616528 -0.40499,0.9697883 -0.405,0.4081346 -1.0788,0.4081346 -0.59853,0 -1.21141,-0.3744356 l 0.10394,-0.7675934 q 0.68455,0.4979995 1.17557,0.4979995 0.26522,0 0.50176,-0.1797286 0.24013,-0.1834736 0.24013,-0.4942555 0,-0.1984506 -0.12185,-0.4118787 -0.11828,-0.2134277 -0.67738,-0.6889597 -0.55554,-0.475532 -0.72757,-0.8237562 -0.16845,-0.3519685 -0.16845,-0.6964484 0,-0.6065841 0.48026,-1.0147178 0.48026,-0.4118781 1.13256,-0.4118781 0.45518,0 0.91752,0.205939 z" />
          <path
             id="path6189"
             style="fill:none;stroke:#000000;stroke-width:0.59777457;stroke-linecap:butt;stroke-linejoin:miter;stroke-miterlimit:4;stroke-dasharray:none;stroke-opacity:1"
             d="m -760.73292,240.29178 -12.9981,23.39658 m 12.9981,-23.39658 12.70926,23.10774"
             inkscape:connector-curvature="0"
             sodipodi:nodetypes="cccc" />
        </g>
      </g>
    </g>
  </g>
</svg>
