<?xml version="1.0" encoding="UTF-8" standalone="no"?>
<svg
   inkscape:version="1.2.2 (732a01da63, 2022-12-09)"
   sodipodi:docname="meadowphysics.svg"
   id="svg4541"
   version="1.1"
   viewBox="0 0 23.848023 100.54167"
   height="379.99997"
   width="90.134254"
   xmlns:inkscape="http://www.inkscape.org/namespaces/inkscape"
   xmlns:sodipodi="http://sodipodi.sourceforge.net/DTD/sodipodi-0.dtd"
   xmlns:xlink="http://www.w3.org/1999/xlink"
   xmlns="http://www.w3.org/2000/svg"
   xmlns:svg="http://www.w3.org/2000/svg"
   xmlns:rdf="http://www.w3.org/1999/02/22-rdf-syntax-ns#"
   xmlns:cc="http://creativecommons.org/ns#"
   xmlns:dc="http://purl.org/dc/elements/1.1/">
  <defs
     id="defs4535" />
  <sodipodi:namedview
     inkscape:document-rotation="0"
     units="px"
     inkscape:window-maximized="1"
     inkscape:window-y="-8"
     inkscape:window-x="2552"
     inkscape:window-height="1017"
     inkscape:window-width="1920"
     fit-margin-bottom="0"
     fit-margin-right="0"
     fit-margin-left="0"
     fit-margin-top="0"
     showgrid="false"
     inkscape:current-layer="g13048"
     inkscape:document-units="mm"
     inkscape:cy="139.39574"
     inkscape:cx="188.91174"
     inkscape:zoom="2.1306246"
     inkscape:pageshadow="2"
     inkscape:pageopacity="0.0"
     borderopacity="1.0"
     bordercolor="#666666"
     pagecolor="#ffffff"
     id="base"
     inkscape:showpageshadow="2"
     inkscape:pagecheckerboard="0"
     inkscape:deskcolor="#d1d1d1" />
  <metadata
     id="metadata4538">
    <rdf:RDF>
      <cc:Work
         rdf:about="">
        <dc:format>image/svg+xml</dc:format>
        <dc:type
           rdf:resource="http://purl.org/dc/dcmitype/StillImage" />
      </cc:Work>
    </rdf:RDF>
  </metadata>
  <g
     style="display:inline"
     inkscape:label="Panel background"
     id="layer7"
     inkscape:groupmode="layer">
    <path
       id="path25105"
       d="M 0.07332484,0.07331895 H 23.775788 V 100.46942 H 0.07332484 Z m 0,0"
       style="display:inline;fill:#e6e6e6;fill-opacity:1;fill-rule:nonzero;stroke:none;stroke-width:0.243105" />
  </g>
  <g
     style="display:inline"
     inkscape:label="Background image"
     id="layer6"
     inkscape:groupmode="layer">
    <image
       xlink:href="meadowphysics.jpg"
       y="0.073318951"
       x="-0.036710557"
       id="image6529"
       preserveAspectRatio="none"
       height="100.54166"
       width="23.812498"
       style="opacity:0.488;stroke-width:0.88074" />
    <text
       xml:space="preserve"
       style="font-style:italic;font-size:1.94028px;line-height:100%;font-family:CoreHumanistSans;-inkscape-font-specification:'CoreHumanistSans, Italic';letter-spacing:0px;word-spacing:0px;writing-mode:lr-tb;fill:none;stroke:#000000;stroke-width:0.264583px;stroke-linecap:butt;stroke-linejoin:miter;stroke-opacity:1"
       x="13.939335"
       y="84.722565"
       id="text1046"><tspan
         sodipodi:role="line"
         id="tspan1044"
         x="13.939335"
         y="84.722565"
         style="stroke-width:0.264583px" /></text>
  </g>
  <g
     style="display:inline"
     transform="translate(-61.978028,-53.744307)"
     id="layer1"
     inkscape:groupmode="layer"
     inkscape:label="Graphics">
    <path
       id="path6189"
       style="display:inline;fill:none;stroke:#000000;stroke-width:0.165;stroke-linecap:butt;stroke-linejoin:miter;stroke-miterlimit:4;stroke-dasharray:none;stroke-opacity:1"
       d="m 8.6304739,66.326246 -3.5877847,6.458012 m 3.5877847,-6.458012 3.5080581,6.378285"
       inkscape:connector-curvature="0"
       sodipodi:nodetypes="cccc"
       transform="translate(61.978028,53.744307)" />
  </g>
  <g
     style="display:inline"
     inkscape:label="Text"
     id="layer4"
     inkscape:groupmode="layer">
    <text
       xml:space="preserve"
       style="font-style:italic;font-size:50.8px;line-height:100%;font-family:CoreHumanistSans;-inkscape-font-specification:'CoreHumanistSans, Italic';letter-spacing:0px;word-spacing:0px;writing-mode:lr-tb;display:inline;fill:none;stroke:#000000;stroke-width:0.264583px;stroke-linecap:butt;stroke-linejoin:miter;stroke-opacity:1"
       x="6.6767654"
       y="2.7562554"
       id="text880"><tspan
         sodipodi:role="line"
         id="tspan878"
         x="6.6767654"
         y="2.7562554"
         style="font-style:italic;font-variant:normal;font-weight:normal;font-stretch:normal;font-size:1.94028px;font-family:CoreHumanistSans;-inkscape-font-specification:'CoreHumanistSans, Italic';font-variant-ligatures:normal;font-variant-caps:normal;font-variant-numeric:normal;font-variant-east-asian:normal;fill:#000000;fill-opacity:1;stroke:none;stroke-width:0.264583px">MEADOWPHYSICS</tspan></text>
    <text
       transform="scale(0.99984864,1.0001514)"
       xml:space="preserve"
       style="font-style:italic;font-variant:normal;font-weight:normal;font-stretch:normal;font-size:1.94049px;line-height:100%;font-family:CoreHumanistSans;-inkscape-font-specification:'CoreHumanistSans, Italic';font-variant-ligatures:normal;font-variant-caps:normal;font-variant-numeric:normal;font-variant-east-asian:normal;letter-spacing:0px;word-spacing:0px;writing-mode:lr-tb;display:inline;fill:none;stroke:#000000;stroke-width:0.264612px;stroke-linecap:butt;stroke-linejoin:miter;stroke-opacity:1"
       x="1.2863408"
       y="17.658476"
       id="text884"><tspan
         sodipodi:role="line"
         id="tspan882"
         x="1.2863408"
         y="17.658476"
         style="font-style:italic;font-variant:normal;font-weight:normal;font-stretch:normal;font-size:1.94049px;font-family:CoreHumanistSans;-inkscape-font-specification:'CoreHumanistSans, Italic';font-variant-ligatures:normal;font-variant-caps:normal;font-variant-numeric:normal;font-variant-east-asian:normal;fill:#000000;fill-opacity:1;stroke:none;stroke-width:0.264612px">1</tspan></text>
    <text
       id="text884-0"
       y="23.326431"
       x="21.251846"
       style="font-style:italic;font-variant:normal;font-weight:normal;font-stretch:normal;font-size:1.94028px;line-height:100%;font-family:CoreHumanistSans;-inkscape-font-specification:'CoreHumanistSans, Italic';font-variant-ligatures:normal;font-variant-caps:normal;font-variant-numeric:normal;font-variant-east-asian:normal;letter-spacing:0px;word-spacing:0px;writing-mode:lr-tb;display:inline;fill:none;stroke:#000000;stroke-width:0.264583px;stroke-linecap:butt;stroke-linejoin:miter;stroke-opacity:1"
       xml:space="preserve"><tspan
         style="font-style:italic;font-variant:normal;font-weight:normal;font-stretch:normal;font-size:1.94028px;font-family:CoreHumanistSans;-inkscape-font-specification:'CoreHumanistSans, Italic';font-variant-ligatures:normal;font-variant-caps:normal;font-variant-numeric:normal;font-variant-east-asian:normal;fill:#000000;fill-opacity:1;stroke:none;stroke-width:0.264583px"
         y="23.326431"
         x="21.251846"
         id="tspan882-9"
         sodipodi:role="line">2</tspan></text>
    <text
       id="text884-2"
       y="27.634432"
       x="1.1921546"
       style="font-style:italic;font-variant:normal;font-weight:normal;font-stretch:normal;font-size:1.94028px;line-height:100%;font-family:CoreHumanistSans;-inkscape-font-specification:'CoreHumanistSans, Italic';font-variant-ligatures:normal;font-variant-caps:normal;font-variant-numeric:normal;font-variant-east-asian:normal;letter-spacing:0px;word-spacing:0px;writing-mode:lr-tb;display:inline;fill:none;stroke:#000000;stroke-width:0.264583px;stroke-linecap:butt;stroke-linejoin:miter;stroke-opacity:1"
       xml:space="preserve"><tspan
         style="font-style:italic;font-variant:normal;font-weight:normal;font-stretch:normal;font-size:1.94028px;font-family:CoreHumanistSans;-inkscape-font-specification:'CoreHumanistSans, Italic';font-variant-ligatures:normal;font-variant-caps:normal;font-variant-numeric:normal;font-variant-east-asian:normal;fill:#000000;fill-opacity:1;stroke:none;stroke-width:0.264583px"
         y="27.634432"
         x="1.1921546"
         id="tspan882-3"
         sodipodi:role="line">3</tspan></text>
    <text
       xml:space="preserve"
       style="font-style:italic;font-variant:normal;font-weight:normal;font-stretch:normal;font-size:1.94028px;line-height:100%;font-family:CoreHumanistSans;-inkscape-font-specification:'CoreHumanistSans, Italic';font-variant-ligatures:normal;font-variant-caps:normal;font-variant-numeric:normal;font-variant-east-asian:normal;letter-spacing:0px;word-spacing:0px;writing-mode:lr-tb;display:inline;fill:none;stroke:#000000;stroke-width:0.264583px;stroke-linecap:butt;stroke-linejoin:miter;stroke-opacity:1"
       x="21.177658"
       y="33.406689"
       id="text884-2-8"><tspan
         sodipodi:role="line"
         id="tspan882-3-3"
         x="21.177658"
         y="33.406689"
         style="font-style:italic;font-variant:normal;font-weight:normal;font-stretch:normal;font-size:1.94028px;font-family:CoreHumanistSans;-inkscape-font-specification:'CoreHumanistSans, Italic';font-variant-ligatures:normal;font-variant-caps:normal;font-variant-numeric:normal;font-variant-east-asian:normal;fill:#000000;fill-opacity:1;stroke:none;stroke-width:0.264583px">4</tspan></text>
    <text
       xml:space="preserve"
       style="font-style:italic;font-variant:normal;font-weight:normal;font-stretch:normal;font-size:1.94028px;line-height:100%;font-family:CoreHumanistSans;-inkscape-font-specification:'CoreHumanistSans, Italic';font-variant-ligatures:normal;font-variant-caps:normal;font-variant-numeric:normal;font-variant-east-asian:normal;letter-spacing:0px;word-spacing:0px;writing-mode:lr-tb;display:inline;fill:none;stroke:#000000;stroke-width:0.264583px;stroke-linecap:butt;stroke-linejoin:miter;stroke-opacity:1"
       x="1.1357672"
       y="37.650272"
       id="text884-2-5"><tspan
         sodipodi:role="line"
         id="tspan882-3-0"
         x="1.1357672"
         y="37.650272"
         style="font-style:italic;font-variant:normal;font-weight:normal;font-stretch:normal;font-size:1.94028px;font-family:CoreHumanistSans;-inkscape-font-specification:'CoreHumanistSans, Italic';font-variant-ligatures:normal;font-variant-caps:normal;font-variant-numeric:normal;font-variant-east-asian:normal;fill:#000000;fill-opacity:1;stroke:none;stroke-width:0.264583px">5</tspan></text>
    <text
       id="text884-2-5-3"
       y="43.575085"
       x="21.094709"
       style="font-style:italic;font-variant:normal;font-weight:normal;font-stretch:normal;font-size:1.94028px;line-height:100%;font-family:CoreHumanistSans;-inkscape-font-specification:'CoreHumanistSans, Italic';font-variant-ligatures:normal;font-variant-caps:normal;font-variant-numeric:normal;font-variant-east-asian:normal;letter-spacing:0px;word-spacing:0px;writing-mode:lr-tb;display:inline;fill:none;stroke:#000000;stroke-width:0.264583px;stroke-linecap:butt;stroke-linejoin:miter;stroke-opacity:1"
       xml:space="preserve"><tspan
         style="font-style:italic;font-variant:normal;font-weight:normal;font-stretch:normal;font-size:1.94028px;font-family:CoreHumanistSans;-inkscape-font-specification:'CoreHumanistSans, Italic';font-variant-ligatures:normal;font-variant-caps:normal;font-variant-numeric:normal;font-variant-east-asian:normal;fill:#000000;fill-opacity:1;stroke:none;stroke-width:0.264583px"
         y="43.575085"
         x="21.094709"
         id="tspan882-3-0-9"
         sodipodi:role="line">6</tspan></text>
    <text
       id="text884-2-5-2"
       y="47.639275"
       x="1.1283039"
       style="font-style:italic;font-variant:normal;font-weight:normal;font-stretch:normal;font-size:1.94028px;line-height:100%;font-family:CoreHumanistSans;-inkscape-font-specification:'CoreHumanistSans, Italic';font-variant-ligatures:normal;font-variant-caps:normal;font-variant-numeric:normal;font-variant-east-asian:normal;letter-spacing:0px;word-spacing:0px;writing-mode:lr-tb;display:inline;fill:none;stroke:#000000;stroke-width:0.264583px;stroke-linecap:butt;stroke-linejoin:miter;stroke-opacity:1"
       xml:space="preserve"><tspan
         style="font-style:italic;font-variant:normal;font-weight:normal;font-stretch:normal;font-size:1.94028px;font-family:CoreHumanistSans;-inkscape-font-specification:'CoreHumanistSans, Italic';font-variant-ligatures:normal;font-variant-caps:normal;font-variant-numeric:normal;font-variant-east-asian:normal;fill:#000000;fill-opacity:1;stroke:none;stroke-width:0.264583px"
         y="47.639275"
         x="1.1283039"
         id="tspan882-3-0-3"
         sodipodi:role="line">7</tspan></text>
    <text
       id="text884-2-5-4"
       y="53.641914"
       x="21.144144"
       style="font-style:italic;font-variant:normal;font-weight:normal;font-stretch:normal;font-size:1.94028px;line-height:100%;font-family:CoreHumanistSans;-inkscape-font-specification:'CoreHumanistSans, Italic';font-variant-ligatures:normal;font-variant-caps:normal;font-variant-numeric:normal;font-variant-east-asian:normal;letter-spacing:0px;word-spacing:0px;writing-mode:lr-tb;display:inline;fill:none;stroke:#000000;stroke-width:0.264583px;stroke-linecap:butt;stroke-linejoin:miter;stroke-opacity:1"
       xml:space="preserve"><tspan
         style="font-style:italic;font-variant:normal;font-weight:normal;font-stretch:normal;font-size:1.94028px;font-family:CoreHumanistSans;-inkscape-font-specification:'CoreHumanistSans, Italic';font-variant-ligatures:normal;font-variant-caps:normal;font-variant-numeric:normal;font-variant-east-asian:normal;fill:#000000;fill-opacity:1;stroke:none;stroke-width:0.264583px"
         y="53.641914"
         x="21.144144"
         id="tspan882-3-0-4"
         sodipodi:role="line">8</tspan></text>
    <text
       xml:space="preserve"
       style="font-style:italic;font-variant:normal;font-weight:normal;font-stretch:normal;font-size:1.94028px;line-height:100%;font-family:CoreHumanistSans;-inkscape-font-specification:'CoreHumanistSans, Italic';font-variant-ligatures:normal;font-variant-caps:normal;font-variant-numeric:normal;font-variant-east-asian:normal;letter-spacing:0px;word-spacing:0px;writing-mode:lr-tb;display:inline;fill:none;stroke:#000000;stroke-width:0.264583px;stroke-linecap:butt;stroke-linejoin:miter;stroke-opacity:1"
       x="15.197025"
       y="67.594711"
       id="text884-2-5-2-7"><tspan
         sodipodi:role="line"
         id="tspan882-3-0-3-1"
         x="15.197025"
         y="67.594711"
         style="font-style:italic;font-variant:normal;font-weight:normal;font-stretch:normal;font-size:1.94028px;font-family:CoreHumanistSans;-inkscape-font-specification:'CoreHumanistSans, Italic';font-variant-ligatures:normal;font-variant-caps:normal;font-variant-numeric:normal;font-variant-east-asian:normal;fill:#000000;fill-opacity:1;stroke:none;stroke-width:0.264583px">clock</tspan></text>
    <text
       id="text884-2-5-2-7-7"
       y="85.091576"
       x="6.0758414"
       style="font-style:italic;font-variant:normal;font-weight:normal;font-stretch:normal;font-size:1.94028px;line-height:100%;font-family:CoreHumanistSans;-inkscape-font-specification:'CoreHumanistSans, Italic';font-variant-ligatures:normal;font-variant-caps:normal;font-variant-numeric:normal;font-variant-east-asian:normal;letter-spacing:0px;word-spacing:0px;writing-mode:lr-tb;display:inline;fill:none;stroke:#000000;stroke-width:0.264583px;stroke-linecap:butt;stroke-linejoin:miter;stroke-opacity:1"
       xml:space="preserve"><tspan
         style="font-style:italic;font-variant:normal;font-weight:normal;font-stretch:normal;font-size:1.94028px;font-family:CoreHumanistSans;-inkscape-font-specification:'CoreHumanistSans, Italic';font-variant-ligatures:normal;font-variant-caps:normal;font-variant-numeric:normal;font-variant-east-asian:normal;fill:#000000;fill-opacity:1;stroke:none;stroke-width:0.264583px"
         y="85.091576"
         x="6.0758414"
         id="tspan882-3-0-3-1-7"
         sodipodi:role="line">in</tspan></text>
    <text
       xml:space="preserve"
       style="font-style:italic;font-variant:normal;font-weight:normal;font-stretch:normal;font-size:1.94028px;line-height:100%;font-family:CoreHumanistSans;-inkscape-font-specification:'CoreHumanistSans, Italic';font-variant-ligatures:normal;font-variant-caps:normal;font-variant-numeric:normal;font-variant-east-asian:normal;letter-spacing:0px;word-spacing:0px;writing-mode:lr-tb;display:inline;fill:none;stroke:#000000;stroke-width:0.264583px;stroke-linecap:butt;stroke-linejoin:miter;stroke-opacity:1"
       x="15.215002"
       y="85.13784"
       id="text884-2-5-2-7-7-0"><tspan
         sodipodi:role="line"
         id="tspan882-3-0-3-1-7-7"
         x="15.215002"
         y="85.13784"
         style="font-style:italic;font-variant:normal;font-weight:normal;font-stretch:normal;font-size:1.94028px;font-family:CoreHumanistSans;-inkscape-font-specification:'CoreHumanistSans, Italic';font-variant-ligatures:normal;font-variant-caps:normal;font-variant-numeric:normal;font-variant-east-asian:normal;fill:#000000;fill-opacity:1;stroke:none;stroke-width:0.264583px">out</tspan></text>
  </g>
  <g
     style="display:inline"
     inkscape:label="Text copy"
     id="g13048"
     inkscape:groupmode="layer">
    <g
       aria-label="MEADOWPHYSICS"
       id="text13002"
       style="font-style:italic;font-size:50.8px;line-height:100%;font-family:CoreHumanistSans;-inkscape-font-specification:'CoreHumanistSans, Italic';letter-spacing:0px;word-spacing:0px;display:inline;fill:none;stroke:#000000;stroke-width:0.264583px">
      <path
         d="m 8.0362878,1.5966349 c 0.00379,-0.032212 -0.014211,-0.063476 -0.043581,-0.075792 -0.030317,-0.012316 -0.065371,-0.00379 -0.085266,0.02179 L 7.40816,2.1811822 7.0699374,1.5530544 c -0.015158,-0.027475 -0.045475,-0.042633 -0.07674,-0.036001 -0.031264,0.00568 -0.054949,0.030317 -0.058739,0.061581 l -0.141163,1.1596204 c -0.00474,0.039791 0.022738,0.075792 0.062529,0.080529 0.039791,0.00474 0.075792,-0.022738 0.080529,-0.062528 L 7.0509894,1.8221167 7.3333153,2.3469776 c 0.011369,0.02179 0.033159,0.036001 0.056844,0.037896 0.024633,0.00189 0.048318,-0.00853 0.063476,-0.027475 l 0.407383,-0.5210713 -0.1098986,0.901927 c -0.00474,0.039791 0.022738,0.075792 0.062528,0.080529 0.039791,0.00474 0.075792,-0.023685 0.080529,-0.062528 z"
         style="font-size:1.94028px;fill:#000000;stroke:none"
         id="path13050" />
      <path
         d="m 9.1589595,1.5881083 c 0,-0.040738 -0.032212,-0.07295 -0.072002,-0.07295 H 8.4739876 c -0.036001,0 -0.066318,0.027475 -0.071055,0.063476 L 8.2608221,2.7382547 c -0.00568,0.042633 0.028422,0.081477 0.071055,0.081477 h 0.5978109 c 0.039791,0 0.07295,-0.033159 0.07295,-0.07295 0,-0.039791 -0.033159,-0.072003 -0.07295,-0.072003 H 8.4133539 l 0.054002,-0.4348577 h 0.4670694 c 0.039791,0 0.072003,-0.032212 0.072003,-0.072003 0,-0.039791 -0.032212,-0.072002 -0.072003,-0.072002 H 8.4844091 L 8.538411,1.6601109 h 0.548546 c 0.039791,0 0.072002,-0.032212 0.072002,-0.072003 z"
         style="font-size:1.94028px;fill:#000000;stroke:none"
         id="path13052" />
      <path
         d="m 9.8808803,1.5653707 c -0.00853,-0.029369 -0.035054,-0.049265 -0.065371,-0.049265 -0.02558,0 -0.048317,0.013264 -0.060634,0.036949 L 9.1551701,2.7212015 c -0.017053,0.033159 -0.00379,0.07295 0.029369,0.090003 0.032212,0.017053 0.074845,0.00379 0.091898,-0.029369 L 9.4308641,2.4824561 h 0.5665466 l 0.081476,0.2870629 c 0.01137,0.038844 0.05116,0.059686 0.08906,0.045475 0.03221,-0.011369 0.05021,-0.046423 0.04074,-0.081477 z M 9.5000245,2.3460302 9.7965614,1.7681148 9.9585672,2.3460302 Z"
         style="font-size:1.94028px;fill:#000000;stroke:none"
         id="path13054" />
      <path
         d="m 11.500938,2.0873893 c 0,-0.362855 -0.271904,-0.572231 -0.623391,-0.572231 h -0.228324 c -0.036,0 -0.06632,0.027475 -0.07105,0.063476 l -0.14211,1.1596204 c -0.0057,0.042633 0.02748,0.080529 0.07106,0.080529 h 0.306011 c 0.426331,0 0.687814,-0.324959 0.687814,-0.7313946 z m -0.144005,-0.00189 c 0,0.3268538 -0.198007,0.5892843 -0.543809,0.5892843 H 10.58859 l 0.125057,-1.0146679 h 0.164848 c 0.269062,0 0.478438,0.1440052 0.478438,0.4253836 z"
         style="font-size:1.94028px;fill:#000000;stroke:none"
         id="path13056" />
      <path
         d="m 12.928674,2.0987582 c 0,-0.3259064 -0.227377,-0.5978109 -0.5656,-0.5978109 -0.402646,0 -0.64897,0.3410648 -0.64897,0.7190784 0,0.3240116 0.223587,0.6129693 0.563704,0.6129693 0.400751,0 0.650866,-0.3609603 0.650866,-0.7342368 z m -0.144953,0 c 0,0.2899051 -0.189481,0.5892842 -0.505913,0.5892842 -0.259588,0 -0.418752,-0.2245343 -0.418752,-0.4680167 0,-0.2936947 0.185691,-0.5750732 0.504018,-0.5750732 0.257694,0 0.420647,0.2074811 0.420647,0.4538057 z"
         style="font-size:1.94028px;fill:#000000;stroke:none"
         id="path13058" />
      <path
         d="m 14.738212,1.615583 c 0.01516,-0.036949 -0.0028,-0.079582 -0.03979,-0.09474 -0.036,-0.015159 -0.07863,0.00189 -0.09379,0.038844 L 14.212404,2.5089834 14.013449,1.6288466 c -0.0066,-0.030317 -0.03221,-0.052107 -0.06348,-0.055897 -0.03032,-0.00284 -0.05969,0.013264 -0.07295,0.040738 l -0.415909,0.892453 -0.156322,-0.9303491 c -0.0066,-0.039791 -0.04358,-0.066318 -0.08337,-0.059686 -0.03884,0.00663 -0.06537,0.044528 -0.05874,0.083371 l 0.194217,1.1596204 c 0.0057,0.031264 0.03032,0.054949 0.06158,0.059686 0.03126,0.00379 0.06158,-0.012316 0.07484,-0.040738 l 0.425384,-0.911401 0.202744,0.8962426 c 0.0066,0.031264 0.03316,0.054002 0.06442,0.055897 0.03126,0.00284 0.06063,-0.015158 0.07295,-0.044528 z"
         style="font-size:1.94028px;fill:#000000;stroke:none"
         id="path13060" />
      <path
         d="m 15.761406,1.8979089 c 0,-0.1932701 -0.172427,-0.3827506 -0.369486,-0.3827506 h -0.320222 c -0.03695,0 -0.06727,0.027475 -0.072,0.063476 l -0.14211,1.1596204 c -0.0047,0.038844 0.02369,0.074845 0.06348,0.080529 0.03884,0.00474 0.07579,-0.023685 0.08053,-0.063476 l 0.05116,-0.4234889 h 0.310748 c 0.236851,0 0.397909,-0.2103233 0.397909,-0.4339102 z m -0.144952,0 c 0,0.1421103 -0.09948,0.2899051 -0.252957,0.2899051 H 15.07075 l 0.06442,-0.5277031 h 0.256747 c 0.113688,0 0.224534,0.1212675 0.224534,0.237798 z"
         style="font-size:1.94028px;fill:#000000;stroke:none"
         id="path13062" />
      <path
         d="m 17.025241,1.5966349 c 0.0047,-0.039791 -0.02369,-0.075792 -0.06348,-0.080529 -0.03979,-0.00474 -0.07579,0.022738 -0.08053,0.062529 l -0.06063,0.4935966 h -0.676445 l 0.05874,-0.475596 c 0.0047,-0.039791 -0.02369,-0.075792 -0.06253,-0.080529 -0.03979,-0.00474 -0.07579,0.022738 -0.08053,0.062529 l -0.14211,1.1596204 c -0.0047,0.039791 0.02274,0.075792 0.06253,0.080529 0.03979,0.00474 0.07579,-0.023685 0.08053,-0.063476 l 0.06632,-0.5381245 h 0.676446 l -0.06442,0.5210712 c -0.0047,0.039791 0.02369,0.075792 0.06348,0.080529 0.03884,0.00474 0.07579,-0.023685 0.08053,-0.063476 z"
         style="font-size:1.94028px;fill:#000000;stroke:none"
         id="path13064" />
      <path
         d="m 18.241705,1.6326362 c 0.02463,-0.030317 0.0199,-0.07674 -0.01042,-0.101372 -0.03126,-0.02558 -0.07674,-0.019896 -0.10232,0.011369 L 17.679896,2.0987582 17.383359,1.5530544 c -0.01895,-0.035054 -0.06253,-0.048318 -0.09758,-0.029369 -0.03505,0.019895 -0.04832,0.063476 -0.02937,0.09853 l 0.336328,0.6205485 -0.06063,0.494544 c -0.0047,0.039791 0.02369,0.074845 0.06348,0.080529 0.03884,0.00474 0.07579,-0.022738 0.08053,-0.062528 l 0.06063,-0.4973862 z"
         style="font-size:1.94028px;fill:#000000;stroke:none"
         id="path13066" />
      <path
         d="m 19.158791,1.6364258 c 0.01326,-0.036949 -0.0066,-0.078634 -0.04453,-0.091898 -0.08527,-0.02937 -0.217902,-0.043581 -0.310748,-0.043581 -0.247272,0 -0.430121,0.1297941 -0.430121,0.3874876 0,0.1752694 0.113689,0.2349557 0.198955,0.2794836 l 0.23685,0.1250572 c 0.08053,0.042633 0.122215,0.068213 0.122215,0.1496895 0,0.1771643 -0.12032,0.2453772 -0.286115,0.2453772 -0.07864,0 -0.194218,-0.011369 -0.263378,-0.035054 -0.03695,-0.013264 -0.07863,0.00663 -0.0919,0.044528 -0.01326,0.037896 0.0066,0.078634 0.04453,0.091898 0.09095,0.032212 0.224534,0.043581 0.310748,0.043581 0.247272,0 0.430121,-0.1307415 0.430121,-0.388435 0,-0.174322 -0.113689,-0.2340084 -0.198955,-0.2794837 L 18.640562,2.0400192 C 18.559085,1.9973861 18.5174,1.9718063 18.5174,1.8903297 c 0,-0.1771643 0.12032,-0.2453772 0.286115,-0.2453772 0.07863,0 0.194218,0.011369 0.263378,0.035054 0.03695,0.012316 0.07863,-0.00568 0.0919,-0.043581 z"
         style="font-size:1.94028px;fill:#000000;stroke:none"
         id="path13068" />
      <path
         d="m 19.623018,1.5966349 c 0.0047,-0.039791 -0.02368,-0.075792 -0.06253,-0.080529 -0.03979,-0.00474 -0.07579,0.022738 -0.08053,0.062529 l -0.14211,1.1596204 c -0.0047,0.039791 0.02274,0.075792 0.06253,0.080529 0.03979,0.00474 0.07579,-0.022738 0.08053,-0.062528 z"
         style="font-size:1.94028px;fill:#000000;stroke:none"
         id="path13070" />
      <path
         d="m 20.852746,1.6430577 c 0.01421,-0.036949 -0.0038,-0.078634 -0.04074,-0.093793 -0.02747,-0.010421 -0.16769,-0.049265 -0.300327,-0.049265 -0.438647,0 -0.668866,0.3353804 -0.668866,0.7437108 0,0.3467493 0.234009,0.5892843 0.584548,0.5892843 0.09095,0 0.174322,-0.013264 0.247272,-0.039791 0.0379,-0.013264 0.05684,-0.055897 0.04358,-0.092845 -0.01326,-0.037896 -0.05495,-0.056844 -0.0919,-0.043581 -0.072,0.02558 -0.147795,0.031264 -0.198954,0.031264 -0.270957,0 -0.440542,-0.1781116 -0.440542,-0.4452791 0,-0.3278012 0.16769,-0.5987582 0.52486,-0.5987582 0.106109,0 0.22643,0.031264 0.247272,0.039791 0.03695,0.014211 0.07863,-0.00379 0.09379,-0.040738 z"
         style="font-size:1.94028px;fill:#000000;stroke:none"
         id="path13072" />
      <path
         d="m 21.799201,1.6364258 c 0.01326,-0.036949 -0.0066,-0.078634 -0.04453,-0.091898 -0.08527,-0.02937 -0.217902,-0.043581 -0.310748,-0.043581 -0.247272,0 -0.43012,0.1297941 -0.43012,0.3874876 0,0.1752694 0.113688,0.2349557 0.198954,0.2794836 l 0.236851,0.1250572 c 0.08053,0.042633 0.122215,0.068213 0.122215,0.1496895 0,0.1771643 -0.12032,0.2453772 -0.286116,0.2453772 -0.07863,0 -0.194217,-0.011369 -0.263378,-0.035054 -0.03695,-0.013264 -0.07863,0.00663 -0.0919,0.044528 -0.01326,0.037896 0.0066,0.078634 0.04453,0.091898 0.09095,0.032212 0.224535,0.043581 0.310748,0.043581 0.247272,0 0.430121,-0.1307415 0.430121,-0.388435 0,-0.174322 -0.113688,-0.2340084 -0.198955,-0.2794837 L 21.280972,2.0400192 c -0.08148,-0.042633 -0.123162,-0.068213 -0.123162,-0.1496895 0,-0.1771643 0.12032,-0.2453772 0.286115,-0.2453772 0.07863,0 0.194218,0.011369 0.263378,0.035054 0.03695,0.012316 0.07864,-0.00568 0.0919,-0.043581 z"
         style="font-size:1.94028px;fill:#000000;stroke:none"
         id="path13074" />
    </g>
    <g
       aria-label="1"
       transform="scale(0.99984864,1.0001514)"
       id="text13006"
       style="font-style:italic;font-size:1.94049px;line-height:100%;font-family:CoreHumanistSans;-inkscape-font-specification:'CoreHumanistSans, Italic';letter-spacing:0px;word-spacing:0px;display:inline;fill:none;stroke:#000000;stroke-width:0.264612px">
      <path
         d="m 2.0320272,17.648053 c 0,-0.0398 -0.033163,-0.07201 -0.072958,-0.07201 H 1.7667258 l 0.096646,-0.791167 c 0.00284,-0.02369 -0.00569,-0.04643 -0.023688,-0.06254 -0.017055,-0.01516 -0.040743,-0.02179 -0.063483,-0.01705 l -0.2975166,0.06159 c -0.039795,0.0085 -0.06443,0.04643 -0.055903,0.08622 0.00758,0.03885 0.046428,0.06253 0.085276,0.05495 l 0.198976,-0.04074 -0.08717,0.708734 H 1.406674 c -0.039795,0 -0.07201,0.03222 -0.07201,0.07201 0,0.04074 0.032215,0.07296 0.07201,0.07296 h 0.5523953 c 0.039795,0 0.072958,-0.03222 0.072958,-0.07296 z"
         style="fill:#000000;stroke:none"
         id="path13077" />
    </g>
    <g
       aria-label="2"
       id="text13010"
       style="font-style:italic;font-size:1.94028px;line-height:100%;font-family:CoreHumanistSans;-inkscape-font-specification:'CoreHumanistSans, Italic';letter-spacing:0px;word-spacing:0px;display:inline;fill:none;stroke:#000000;stroke-width:0.264583px">
      <path
         d="m 22.091245,22.684092 c 0.02653,-0.21506 -0.163901,-0.327801 -0.358118,-0.327801 -0.09285,0 -0.217903,0.02558 -0.276642,0.04358 -0.03884,0.01232 -0.05969,0.05305 -0.04832,0.09095 0.01232,0.0379 0.05211,0.05969 0.09095,0.04737 0.04263,-0.01326 0.154427,-0.0379 0.234009,-0.0379 0.102319,0 0.229271,0.04263 0.214113,0.166743 -0.01042,0.08906 -0.04642,0.103267 -0.180954,0.144953 -0.05306,0.01611 -0.114636,0.03505 -0.183796,0.06537 -0.234956,0.101372 -0.261483,0.324011 -0.274747,0.431068 -0.0047,0.04263 0.02842,0.08053 0.07106,0.08053 h 0.560862 c 0.03979,0 0.072,-0.03221 0.072,-0.072 0,-0.03979 -0.03221,-0.072 -0.072,-0.072 h -0.476543 c 0.01989,-0.09664 0.06158,-0.184744 0.177164,-0.234956 0.06158,-0.02653 0.118426,-0.04453 0.168638,-0.05969 0.133584,-0.04074 0.259588,-0.07958 0.282326,-0.266221 z"
         style="fill:#000000;stroke:none"
         id="path13080" />
    </g>
    <g
       aria-label="3"
       id="text13014"
       style="font-style:italic;font-size:1.94028px;line-height:100%;font-family:CoreHumanistSans;-inkscape-font-specification:'CoreHumanistSans, Italic';letter-spacing:0px;word-spacing:0px;display:inline;fill:none;stroke:#000000;stroke-width:0.264583px">
      <path
         d="m 2.0069206,27.050832 c 0.02937,-0.242535 -0.1714798,-0.38654 -0.3960141,-0.38654 -0.090003,0 -0.223587,0.02558 -0.2292714,0.02653 -0.038844,0.0076 -0.064423,0.04547 -0.056844,0.08432 0.00758,0.03884 0.045475,0.06442 0.084319,0.05684 0.035054,-0.0066 0.1383207,-0.02369 0.2017967,-0.02369 0.1364259,0 0.270957,0.07011 0.252009,0.225482 -0.015158,0.126952 -0.1136883,0.198954 -0.2700097,0.198954 H 1.4470059 c -0.039791,0 -0.072003,0.03316 -0.072003,0.07295 0,0.03979 0.032212,0.072 0.072003,0.072 h 0.1307415 c 0.1392681,0 0.2482194,0.07674 0.2302188,0.226429 -0.019896,0.16769 -0.1809539,0.202744 -0.3126428,0.202744 -0.079582,0 -0.1999019,-0.02463 -0.2008493,-0.02558 -0.038844,-0.0076 -0.077687,0.01705 -0.085266,0.0559 -0.00853,0.03884 0.016106,0.07769 0.055897,0.08621 0.00474,9.47e-4 0.1354786,0.02747 0.2302188,0.02747 0.261483,0 0.4320154,-0.123162 0.4566479,-0.328748 0.014211,-0.116531 -0.02558,-0.228324 -0.1146357,-0.305064 0.1051617,-0.06348 0.1572688,-0.166743 0.169585,-0.26622 z"
         style="fill:#000000;stroke:none"
         id="path13083" />
    </g>
    <g
       aria-label="4"
       id="text13018"
       style="font-style:italic;font-size:1.94028px;line-height:100%;font-family:CoreHumanistSans;-inkscape-font-specification:'CoreHumanistSans, Italic';letter-spacing:0px;word-spacing:0px;display:inline;fill:none;stroke:#000000;stroke-width:0.264583px">
      <path
         d="m 22.134534,33.354582 c 0,-0.03979 -0.03221,-0.072 -0.072,-0.072 h -0.12411 l 0.03032,-0.246325 c 0.0047,-0.03979 -0.02369,-0.07579 -0.06348,-0.08053 -0.03884,-0.0047 -0.07579,0.02369 -0.08053,0.06348 l -0.03221,0.263378 h -0.422541 l 0.466122,-0.719078 c 0.02179,-0.03316 0.01232,-0.07769 -0.02084,-0.09948 -0.03411,-0.02179 -0.07863,-0.01232 -0.100425,0.02084 l -0.538124,0.830872 c -0.01421,0.02179 -0.01516,0.05021 -0.0028,0.07295 0.01326,0.02369 0.03695,0.0379 0.06348,0.0379 h 0.538125 l -0.02653,0.216008 c -0.0047,0.03884 0.02369,0.07579 0.06253,0.08053 0.03979,0.0057 0.07579,-0.02369 0.08053,-0.06348 l 0.02842,-0.233061 h 0.14211 c 0.03979,0 0.072,-0.03221 0.072,-0.072 z"
         style="fill:#000000;stroke:none"
         id="path13086" />
    </g>
    <g
       aria-label="5"
       id="text13022"
       style="font-style:italic;font-size:1.94028px;line-height:100%;font-family:CoreHumanistSans;-inkscape-font-specification:'CoreHumanistSans, Italic';letter-spacing:0px;word-spacing:0px;display:inline;fill:none;stroke:#000000;stroke-width:0.264583px">
      <path
         d="m 1.9439014,36.768241 c 0,-0.03979 -0.032212,-0.07295 -0.072003,-0.07295 H 1.3953555 c -0.035054,0 -0.064423,0.02463 -0.071055,0.05874 l -0.087161,0.4557 c -0.00758,0.03884 0.018001,0.07674 0.056844,0.08432 l 0.2065337,0.04263 c 0.2017967,0.04169 0.2548512,0.09853 0.2359032,0.252009 C 1.7174722,37.744065 1.6009418,37.8227 1.389671,37.8227 H 1.2475607 c -0.039791,0 -0.072003,0.03221 -0.072003,0.072 0,0.03979 0.032212,0.072 0.072003,0.072 H 1.389671 c 0.2832733,0 0.461385,-0.131689 0.489807,-0.360961 0.036001,-0.290852 -0.1563213,-0.370434 -0.3495914,-0.410225 l -0.1373733,-0.02842 0.062528,-0.326854 h 0.416857 c 0.039791,0 0.072003,-0.03221 0.072003,-0.072 z"
         style="fill:#000000;stroke:none"
         id="path13089" />
    </g>
    <g
       aria-label="6"
       id="text13026"
       style="font-style:italic;font-size:1.94028px;line-height:100%;font-family:CoreHumanistSans;-inkscape-font-specification:'CoreHumanistSans, Italic';letter-spacing:0px;word-spacing:0px;display:inline;fill:none;stroke:#000000;stroke-width:0.264583px">
      <path
         d="m 21.991899,43.241599 c 0,-0.21506 -0.164848,-0.36475 -0.377066,-0.36475 -0.08053,0 -0.149689,0.01611 -0.203691,0.03505 0.08148,-0.179059 0.225482,-0.312643 0.435805,-0.402646 0.03695,-0.01611 0.054,-0.05874 0.0379,-0.09474 -0.01611,-0.03695 -0.05874,-0.054 -0.09474,-0.0379 -0.336328,0.144952 -0.535283,0.395067 -0.589285,0.743711 -0.04074,0.261483 0.08337,0.531492 0.384646,0.531492 0.243482,0 0.406435,-0.170532 0.406435,-0.410225 z m -0.144005,0 c 0,0.159164 -0.100424,0.265273 -0.26243,0.265273 -0.172427,0 -0.24822,-0.130742 -0.24822,-0.289905 0,-0.04074 0.0066,-0.09 0.01421,-0.129795 0.08621,-0.04548 0.162954,-0.06537 0.263378,-0.06537 0.132637,0 0.233061,0.08527 0.233061,0.219797 z"
         style="fill:#000000;stroke:none"
         id="path13092" />
    </g>
    <g
       aria-label="7"
       id="text13030"
       style="font-style:italic;font-size:1.94028px;line-height:100%;font-family:CoreHumanistSans;-inkscape-font-specification:'CoreHumanistSans, Italic';letter-spacing:0px;word-spacing:0px;display:inline;fill:none;stroke:#000000;stroke-width:0.264583px">
      <path
         d="m 2.0709692,46.79135 c 0.012316,-0.02179 0.011369,-0.04926 -0.00189,-0.07106 -0.012316,-0.02179 -0.036001,-0.036 -0.061581,-0.036 H 1.3348376 c -0.039791,0 -0.072003,0.03316 -0.072003,0.07295 0,0.03979 0.032212,0.072 0.072003,0.072 h 0.5504407 l -0.5561251,1.018457 c -0.018948,0.03505 -0.00663,0.07958 0.028422,0.09853 0.035054,0.01895 0.078634,0.0066 0.09853,-0.02937 z"
         style="fill:#000000;stroke:none"
         id="path13095" />
    </g>
    <g
       aria-label="8"
       id="text13034"
       style="font-style:italic;font-size:1.94028px;line-height:100%;font-family:CoreHumanistSans;-inkscape-font-specification:'CoreHumanistSans, Italic';letter-spacing:0px;word-spacing:0px;display:inline;fill:none;stroke:#000000;stroke-width:0.264583px">
      <path
         d="m 22.102915,52.772199 c 0.02842,-0.232114 -0.149689,-0.379908 -0.371382,-0.379908 -0.234955,0 -0.37896,0.114635 -0.40454,0.323064 -0.0199,0.160111 0.07674,0.26243 0.185691,0.336328 -0.128847,0.05684 -0.243483,0.135478 -0.262431,0.287063 -0.02842,0.232113 0.151584,0.379908 0.372329,0.379908 0.234956,0 0.378014,-0.114636 0.403594,-0.322117 0.01895,-0.153479 -0.0739,-0.247272 -0.186639,-0.320222 0.126952,-0.05874 0.243483,-0.143058 0.263378,-0.304116 z m -0.143058,-0.018 c -0.01421,0.116531 -0.118425,0.169585 -0.278536,0.231167 -0.137373,-0.07769 -0.224534,-0.142111 -0.211271,-0.252957 0.01137,-0.09095 0.05116,-0.195165 0.261483,-0.195165 0.133584,0 0.246325,0.072 0.228324,0.216955 z m -0.07674,0.624339 c -0.01137,0.09095 -0.05116,0.196112 -0.260536,0.196112 -0.133583,0 -0.246324,-0.07295 -0.228324,-0.217903 0.01232,-0.102319 0.111794,-0.150637 0.275694,-0.213165 0.141163,0.07863 0.225482,0.135478 0.213166,0.234956 z"
         style="fill:#000000;stroke:none"
         id="path13098" />
    </g>
    <g
       aria-label="clock"
       id="text13038"
       style="font-style:italic;font-size:1.94028px;line-height:100%;font-family:CoreHumanistSans;-inkscape-font-specification:'CoreHumanistSans, Italic';letter-spacing:0px;word-spacing:0px;display:inline;fill:none;stroke:#000000;stroke-width:0.264583px">
      <path
         d="m 16.038319,66.830158 c 0.01137,-0.0379 -0.01042,-0.07769 -0.04832,-0.09 -0.07011,-0.02179 -0.144953,-0.03695 -0.21885,-0.03695 -0.305063,0 -0.491702,0.234008 -0.491702,0.524861 0,0.248219 0.178112,0.443384 0.432016,0.443384 0.06158,0 0.121267,-0.0057 0.180954,-0.02369 0.0379,-0.01137 0.06158,-0.04832 0.05305,-0.08716 -0.0095,-0.03884 -0.04832,-0.06253 -0.08716,-0.05306 -0.05021,0.01137 -0.09379,0.0199 -0.146847,0.0199 -0.173375,0 -0.287063,-0.129794 -0.287063,-0.297485 0,-0.212218 0.121267,-0.38275 0.346749,-0.38275 0.05969,0 0.12032,0.01421 0.177164,0.03126 0.0379,0.01137 0.07864,-0.0095 0.09,-0.04832 z"
         style="fill:#000000;stroke:none"
         id="path13101" />
      <path
         d="m 16.480755,66.426564 c 0.0047,-0.03979 -0.02274,-0.07579 -0.06253,-0.08053 -0.03979,-0.0047 -0.07579,0.02369 -0.08053,0.06253 l -0.143058,1.168147 c -0.0047,0.03979 0.02274,0.07579 0.06253,0.08053 0.03979,0.0047 0.07579,-0.02274 0.08053,-0.06253 z"
         style="fill:#000000;stroke:none"
         id="path13103" />
      <path
         d="m 17.558899,67.15038 c 0,-0.241588 -0.172427,-0.445279 -0.422541,-0.445279 -0.290853,0 -0.482228,0.244429 -0.482228,0.520123 0,0.241588 0.172427,0.446227 0.421594,0.446227 0.290853,0 0.483175,-0.24443 0.483175,-0.521071 z m -0.144952,0 c 0,0.196112 -0.1279,0.376118 -0.338223,0.376118 -0.168637,0 -0.277589,-0.139268 -0.277589,-0.300326 0,-0.19706 0.128847,-0.377066 0.338223,-0.377066 0.169585,0 0.277589,0.139268 0.277589,0.301274 z"
         style="fill:#000000;stroke:none"
         id="path13105" />
      <path
         d="m 18.519565,66.830158 c 0.01137,-0.0379 -0.01042,-0.07769 -0.04832,-0.09 -0.07011,-0.02179 -0.144953,-0.03695 -0.21885,-0.03695 -0.305064,0 -0.491702,0.234008 -0.491702,0.524861 0,0.248219 0.178112,0.443384 0.432015,0.443384 0.06158,0 0.121268,-0.0057 0.180954,-0.02369 0.0379,-0.01137 0.06158,-0.04832 0.05306,-0.08716 -0.0095,-0.03884 -0.04832,-0.06253 -0.08716,-0.05306 -0.05021,0.01137 -0.09379,0.0199 -0.146848,0.0199 -0.173374,0 -0.287062,-0.129794 -0.287062,-0.297485 0,-0.212218 0.121267,-0.38275 0.346749,-0.38275 0.05969,0 0.12032,0.01421 0.177164,0.03126 0.0379,0.01137 0.07863,-0.0095 0.09,-0.04832 z"
         style="fill:#000000;stroke:none"
         id="path13107" />
      <path
         d="m 19.460336,66.742049 c -0.02558,-0.03032 -0.07106,-0.03411 -0.101372,-0.0076 l -0.493597,0.418752 0.08906,-0.726658 c 0.0047,-0.03884 -0.02368,-0.07579 -0.06253,-0.08053 -0.03979,-0.0057 -0.07579,0.02369 -0.08053,0.06348 l -0.143058,1.1672 c -0.0047,0.03979 0.02274,0.07579 0.06253,0.08053 0.03979,0.0047 0.07579,-0.02369 0.08053,-0.06348 l 0.02842,-0.228324 0.154427,-0.131689 0.270009,0.393172 c 0.02274,0.03316 0.06821,0.04074 0.101372,0.018 0.03221,-0.02274 0.04074,-0.06727 0.018,-0.100425 l -0.278536,-0.404541 0.347696,-0.295589 c 0.03032,-0.02653 0.03411,-0.072 0.0076,-0.10232 z"
         style="fill:#000000;stroke:none"
         id="path13109" />
    </g>
    <g
       aria-label="in"
       id="text13042"
       style="font-style:italic;font-size:1.94028px;line-height:100%;font-family:CoreHumanistSans;-inkscape-font-specification:'CoreHumanistSans, Italic';letter-spacing:0px;word-spacing:0px;display:inline;fill:none;stroke:#000000;stroke-width:0.264583px">
      <path
         d="m 6.47754,83.850479 c 0.034107,-0.03505 0.033159,-0.09095 -0.00189,-0.125058 -0.035054,-0.03316 -0.090951,-0.03221 -0.1250571,0.0028 l -0.039791,0.04169 c -0.034107,0.03505 -0.033159,0.09095 0.00189,0.125057 0.035054,0.03411 0.090951,0.03221 0.1250571,-0.0028 z m -0.071055,0.447173 c 0.00474,-0.03884 -0.023685,-0.07579 -0.062528,-0.08053 -0.039791,-0.0057 -0.075792,0.02369 -0.080529,0.06348 l -0.096635,0.792976 c -0.00474,0.03979 0.022738,0.07579 0.062528,0.08053 0.039791,0.0047 0.075792,-0.02369 0.080529,-0.06348 z"
         style="fill:#000000;stroke:none"
         id="path13112" />
      <path
         d="m 7.4656806,84.598926 c 0.02937,-0.230218 -0.092845,-0.398856 -0.3325382,-0.398856 -0.1051616,0 -0.1970597,0.03884 -0.26622,0.08242 -0.00189,-0.03411 -0.028422,-0.06253 -0.063476,-0.06727 -0.039791,-0.0047 -0.075792,0.02369 -0.080529,0.06253 l -0.096635,0.793923 c -0.00474,0.03979 0.022738,0.07579 0.062528,0.08053 0.039791,0.0047 0.075792,-0.02274 0.080529,-0.06253 l 0.075792,-0.63097 c 0,0 0.1449526,-0.113688 0.2880103,-0.113688 0.150637,0 0.2074811,0.09284 0.1894805,0.234955 l -0.062529,0.493597 c -0.00474,0.03979 0.022738,0.07579 0.062529,0.08053 0.038844,0.0047 0.075792,-0.02274 0.080529,-0.06253 z"
         style="fill:#000000;stroke:none"
         id="path13114" />
    </g>
    <g
       aria-label="out"
       id="text13046"
       style="font-style:italic;font-size:1.94028px;line-height:100%;font-family:CoreHumanistSans;-inkscape-font-specification:'CoreHumanistSans, Italic';letter-spacing:0px;word-spacing:0px;display:inline;fill:none;stroke:#000000;stroke-width:0.264583px">
      <path
         d="m 16.201248,84.693509 c 0,-0.241588 -0.172427,-0.44528 -0.422542,-0.44528 -0.290852,0 -0.482227,0.24443 -0.482227,0.520124 0,0.241588 0.172427,0.446227 0.421594,0.446227 0.290852,0 0.483175,-0.24443 0.483175,-0.521071 z m -0.144953,0 c 0,0.196112 -0.127899,0.376118 -0.338222,0.376118 -0.168638,0 -0.277589,-0.139268 -0.277589,-0.300326 0,-0.19706 0.128847,-0.377066 0.338222,-0.377066 0.169585,0 0.277589,0.139268 0.277589,0.301274 z"
         style="fill:#000000;stroke:none"
         id="path13117" />
      <path
         d="m 17.279392,84.343917 c 0.0047,-0.03979 -0.02369,-0.07579 -0.06348,-0.08053 -0.03884,-0.0047 -0.07579,0.02274 -0.08053,0.06253 l -0.07579,0.640444 c 0,0 -0.144952,0.104215 -0.28801,0.104215 -0.151584,0 -0.206534,-0.0919 -0.188533,-0.234956 l 0.06253,-0.493597 c 0.0047,-0.03979 -0.02369,-0.07579 -0.06253,-0.08053 -0.03979,-0.0047 -0.07674,0.02274 -0.08148,0.06253 l -0.06158,0.492649 c -0.02842,0.229271 0.0919,0.398856 0.331591,0.398856 0.106109,0 0.19706,-0.03884 0.26622,-0.08242 0.0028,0.03411 0.02842,0.06253 0.06348,0.06727 0.03979,0.0047 0.07579,-0.02369 0.08053,-0.06253 z"
         style="fill:#000000;stroke:none"
         id="path13119" />
      <path
         d="m 18.114053,84.335391 c 0,-0.03979 -0.03221,-0.072 -0.072,-0.072 h -0.206533 l 0.02842,-0.228324 c 0.0047,-0.03979 -0.02368,-0.07579 -0.06348,-0.08053 -0.03884,-0.0047 -0.07579,0.02274 -0.08053,0.06253 l -0.03032,0.246325 h -0.12411 c -0.03979,0 -0.072,0.03221 -0.072,0.072 0,0.03979 0.03221,0.072 0.072,0.072 h 0.106109 l -0.05211,0.423489 c -0.02747,0.221692 0.05969,0.383698 0.298432,0.383698 0.06821,0 0.130741,-0.02653 0.137373,-0.03032 0.036,-0.01611 0.05211,-0.05874 0.036,-0.09474 -0.01611,-0.036 -0.05874,-0.05306 -0.09474,-0.03695 -0.01137,0.0047 -0.04737,0.018 -0.07863,0.018 -0.146848,0 -0.17148,-0.09 -0.155374,-0.221692 l 0.05495,-0.44149 h 0.224534 c 0.03979,0 0.072,-0.03221 0.072,-0.072 z"
         style="fill:#000000;stroke:none"
         id="path13121" />
    </g>
  </g>
</svg>
