<?xml version="1.0" encoding="UTF-8" standalone="no"?>
<svg
   xmlns:dc="http://purl.org/dc/elements/1.1/"
   xmlns:cc="http://creativecommons.org/ns#"
   xmlns:rdf="http://www.w3.org/1999/02/22-rdf-syntax-ns#"
   xmlns:svg="http://www.w3.org/2000/svg"
   xmlns="http://www.w3.org/2000/svg"
   xmlns:xlink="http://www.w3.org/1999/xlink"
   xmlns:sodipodi="http://sodipodi.sourceforge.net/DTD/sodipodi-0.dtd"
   xmlns:inkscape="http://www.inkscape.org/namespaces/inkscape"
   width="91.440002mm"
   height="128.5mm"
   viewBox="0 0 91.440004 128.50002"
   version="1.1"
   id="svg4541"
   sodipodi:docname="teletype.svg"
   inkscape:version="1.0 (4035a4f, 2020-05-01)">
  <defs
     id="defs4535" />
  <sodipodi:namedview
     id="base"
     pagecolor="#ffffff"
     bordercolor="#666666"
     borderopacity="1.0"
     inkscape:pageopacity="0.0"
     inkscape:pageshadow="2"
     inkscape:zoom="1.6586098"
     inkscape:cx="214.52743"
     inkscape:cy="236.88229"
     inkscape:document-units="mm"
     inkscape:current-layer="g13224"
     showgrid="false"
     fit-margin-top="0"
     fit-margin-left="0"
     fit-margin-right="0"
     fit-margin-bottom="0"
     inkscape:window-width="1680"
     inkscape:window-height="1005"
     inkscape:window-x="0"
     inkscape:window-y="23"
     inkscape:window-maximized="1"
     units="mm"
     inkscape:document-rotation="0" />
  <metadata
     id="metadata4538">
    <rdf:RDF>
      <cc:Work
         rdf:about="">
        <dc:format>image/svg+xml</dc:format>
        <dc:type
           rdf:resource="http://purl.org/dc/dcmitype/StillImage" />
        <dc:title></dc:title>
      </cc:Work>
    </rdf:RDF>
  </metadata>
  <g
     inkscape:label="Layer 1"
     inkscape:groupmode="layer"
     id="layer1"
     transform="translate(-61.978028,-53.744307)">
    <g
       transform="matrix(0.27602379,0,0,0.27602379,354.09618,57.736346)"
       id="g13122"
       style="stroke-width:0.958553">
      <g
         transform="translate(-167.07644,-20.557569)"
         id="g13178"
         style="stroke-width:0.918823">
        <g
           transform="translate(-99.2314,6.0949065)"
           id="g13224"
           style="stroke-width:0.88074">
          <path
             style="fill:#e6e6e6;fill-opacity:1;fill-rule:nonzero;stroke:none;stroke-width:1.9571"
             d="m -792.00004,-3.0163749e-7 h 331.27579 V 465.53958 h -331.27579 z m 0,0"
             id="path25105" />
          <image
             sodipodi:absref="/Users/dewb/dev/Rack/plugins/monome-rack/res/teletype.jpg"
             xlink:href="teletype.jpg"
             style="opacity:0.502"
             width="326.79062"
             height="466.19873"
             preserveAspectRatio="none"
             id="image7503"
             x="-790.21594"
             y="0.265625"
             sodipodi:insensitive="true" />
          <path
             inkscape:connector-curvature="0"
             id="path8083"
             style="font-style:italic;font-variant:normal;font-weight:normal;font-stretch:normal;font-size:7.66842px;line-height:1.25;font-family:'Gill Sans';-inkscape-font-specification:'Gill Sans Italic';letter-spacing:0px;word-spacing:0px;fill:#000000;fill-opacity:1;stroke:none;stroke-width:1.08053"
             d="m -516.42878,116.02012 c 0.23839,-0.0853 0.47285,-0.13418 0.74761,-0.13418 0.51757,0 0.95048,0.19489 1.29872,0.58466 0.35145,0.38978 0.52716,0.8786 0.52716,1.46646 0,0.69968 -0.23802,1.3131 -0.71406,1.84026 -0.47284,0.52716 -1.12141,0.79074 -1.9457,0.79074 h -0.55111 l -0.29233,2.11821 h -0.83387 l 0.78115,-5.57349 c 0,0 -0.17203,-0.29578 0.0814,-0.58946 0.2666,-0.21739 0.5771,-0.38735 0.901,-0.5032 z m -0.0863,0.61822 -0.45046,3.22045 h 0.40255 c 0.56549,0 1.01597,-0.1901 1.35144,-0.57029 0.33546,-0.38339 0.50319,-0.83387 0.50319,-1.35144 0,-0.44729 -0.11826,-0.79553 -0.35463,-1.04473 -0.23642,-0.2524 -0.53675,-0.37859 -0.90097,-0.37859 -0.19488,0 -0.37859,0.0415 -0.55112,0.12459 z"
             sodipodi:nodetypes="sscscscccccsccscscscc" />
          <path
             inkscape:connector-curvature="0"
             id="path8085"
             style="font-style:italic;font-variant:normal;font-weight:normal;font-stretch:normal;font-size:7.66842px;line-height:1.25;font-family:'Gill Sans';-inkscape-font-specification:'Gill Sans Italic';letter-spacing:0px;word-spacing:0px;fill:#000000;fill-opacity:1;stroke:none;stroke-width:1.08053"
             d="m -509.31209,116.02012 -0.61821,4.40896 h -0.83386 l 0.0815,-0.50799 -0.0192,-0.024 q -0.57987,0.61821 -1.18849,0.61821 -0.60384,0 -1.03036,-0.50799 -0.42173,-0.51278 -0.42173,-1.23642 0,-1.25559 0.78594,-2.07029 0.79074,-0.8147 2.20448,-0.8147 0.57508,0 1.03993,0.13419 z m -1.27475,3.1342 0.36422,-2.54474 q -0.13419,-0.01 -0.2588,-0.01 -0.98242,0 -1.4952,0.6278 -0.51278,0.623 -0.51278,1.39457 0,0.53195 0.2444,0.87221 0.24921,0.33546 0.6278,0.33546 0.30193,0 0.66134,-0.29712 0.35943,-0.30192 0.36902,-0.3786 z" />
          <path
             inkscape:connector-curvature="0"
             id="path8087"
             style="font-style:italic;font-variant:normal;font-weight:normal;font-stretch:normal;font-size:7.66842px;line-height:1.25;font-family:'Gill Sans';-inkscape-font-specification:'Gill Sans Italic';letter-spacing:0px;word-spacing:0px;fill:#000000;fill-opacity:1;stroke:none;stroke-width:1.08053"
             d="m -507.6731,116.02012 -0.1294,0.83866 0.0192,0.0192 q 0.39298,-0.56071 0.62301,-0.74281 0.23002,-0.18211 0.54632,-0.18211 0.19649,0 0.36422,0.0671 v 0.94409 q -0.26358,-0.14856 -0.51278,-0.14856 -0.24441,0 -0.4361,0.12459 -0.19169,0.11981 -0.46486,0.52237 -0.27316,0.39776 -0.28275,0.48402 l -0.34505,2.48244 h -0.83387 l 0.61821,-4.40896 z" />
          <path
             inkscape:connector-curvature="0"
             id="path8089"
             style="font-style:italic;font-variant:normal;font-weight:normal;font-stretch:normal;font-size:7.66842px;line-height:1.25;font-family:'Gill Sans';-inkscape-font-specification:'Gill Sans Italic';letter-spacing:0px;word-spacing:0px;fill:#000000;fill-opacity:1;stroke:none;stroke-width:1.08053"
             d="m -501.94371,116.02012 -0.61821,4.40896 h -0.83388 l 0.0815,-0.50799 -0.0192,-0.024 q -0.57987,0.61821 -1.1885,0.61821 -0.60384,0 -1.03035,-0.50799 -0.42172,-0.51278 -0.42172,-1.23642 0,-1.25559 0.78594,-2.07029 0.79074,-0.8147 2.20448,-0.8147 0.57508,0 1.03993,0.13419 z m -1.27477,3.1342 0.36422,-2.54474 q -0.13419,-0.01 -0.25878,-0.01 -0.98243,0 -1.49522,0.6278 -0.51277,0.623 -0.51277,1.39457 0,0.53195 0.24441,0.87221 0.2492,0.33546 0.62779,0.33546 0.30192,0 0.66135,-0.29712 0.35943,-0.30192 0.369,-0.3786 z" />
          <path
             inkscape:connector-curvature="0"
             id="path8091"
             style="font-style:italic;font-variant:normal;font-weight:normal;font-stretch:normal;font-size:7.66842px;line-height:1.25;font-family:'Gill Sans';-inkscape-font-specification:'Gill Sans Italic';letter-spacing:0px;word-spacing:0px;fill:#000000;fill-opacity:1;stroke:none;stroke-width:1.08053"
             d="m -499.97833,116.02012 -0.11506,0.76678 q 0.77156,-0.83387 1.53833,-0.83387 0.85305,0 1.0016,0.99202 0.80512,-0.99202 1.64857,-0.99202 0.46965,0 0.7524,0.32109 0.28754,0.32109 0.28754,0.90096 0,0.18211 -0.0288,0.39776 l -0.40255,2.85624 h -0.83387 l 0.41215,-2.89458 q 0.0239,-0.14856 0.0239,-0.27795 0,-0.64697 -0.47444,-0.64697 -0.1198,0 -0.26358,0.0527 -0.14377,0.0479 -0.32109,0.16294 -0.17731,0.11502 -0.48402,0.41693 -0.30193,0.30192 -0.3163,0.38818 l -0.40255,2.79873 h -0.83387 l 0.39297,-2.78914 q 0.0335,-0.20607 0.0335,-0.36901 0,-0.66134 -0.52238,-0.66134 -0.33067,0 -0.82427,0.46485 -0.48883,0.46007 -0.5032,0.55591 l -0.39298,2.79873 h -0.83386 l 0.6278,-4.40895 z" />
          <path
             inkscape:connector-curvature="0"
             d="m -507.68616,81.153469 -16.63609,29.944971 m 16.63609,-29.944971 16.26642,29.575291 m -16.26642,-29.575291 0.3697,-29.575305"
             style="fill:none;stroke:#000000;stroke-width:0.765084;stroke-linecap:butt;stroke-linejoin:miter;stroke-miterlimit:4;stroke-dasharray:none;stroke-opacity:1"
             id="path8099" />
          <g
             aria-label="3"
             style="font-style:italic;font-variant:normal;font-weight:normal;font-stretch:normal;font-size:38.3421px;line-height:1.25;font-family:'Gill Sans';-inkscape-font-specification:'Gill Sans Italic';letter-spacing:0px;word-spacing:0px;fill:#000000;fill-opacity:1;stroke:none;stroke-width:0.844236"
             id="text8119"
             transform="matrix(1.2798868,0,0,1.2798868,218.71736,-142.38767)">
            <path
               d="m -713.86714,163.04817 0.10109,-0.72266 q 0.5317,-0.2284 1.08212,-0.2284 0.63279,0 1.01472,0.37069 0.38566,0.37069 0.38566,0.98476 0,0.87243 -1.01846,1.25061 0.70394,0.29955 0.70394,1.18321 0,0.61033 -0.47928,1.09335 -0.47553,0.48302 -1.33673,0.48302 -0.61407,0 -1.2581,-0.28831 l 0.0936,-0.62156 q 0.57663,0.29206 1.13454,0.29206 0.50548,0 0.81626,-0.26585 0.31078,-0.26585 0.31078,-0.69271 0,-0.42311 -0.28457,-0.66275 -0.28457,-0.24338 -0.66649,-0.21342 l 0.0824,-0.62156 q 0.56539,-0.0412 0.87243,-0.31453 0.31078,-0.27334 0.31078,-0.61407 0,-0.33325 -0.22466,-0.53544 -0.22466,-0.20594 -0.59535,-0.20594 -0.53544,0 -1.04467,0.3295 z"
               style="font-size:7.66842px;stroke-width:0.844236"
               id="path8186" />
          </g>
          <g
             aria-label="4"
             style="font-style:italic;font-variant:normal;font-weight:normal;font-stretch:normal;font-size:38.3421px;line-height:1.25;font-family:'Gill Sans';-inkscape-font-specification:'Gill Sans Italic';letter-spacing:0px;word-spacing:0px;fill:#000000;fill-opacity:1;stroke:none;stroke-width:0.844236"
             id="text8123"
             transform="matrix(1.2798868,0,0,1.2798868,413.09446,-90.860423)">
            <path
               d="m -712.42885,198.42642 -0.48302,3.12653 h 0.75261 l -0.0786,0.56165 h -0.77508 l -0.25087,1.61007 h -0.67024 l 0.27709,-1.61007 h -1.96204 v -0.29955 l 2.77456,-3.38863 z m -2.31026,3.12653 h 1.16824 l 0.30703,-1.81601 z"
               style="font-size:7.66842px;stroke-width:0.844236"
               id="path8183" />
          </g>
          <g
             id="text8111"
             style="font-style:italic;font-variant:normal;font-weight:normal;font-stretch:normal;font-size:38.3421px;line-height:1.25;font-family:'Gill Sans';-inkscape-font-specification:'Gill Sans Italic';letter-spacing:0px;word-spacing:0px;fill:#000000;fill-opacity:1;stroke:none;stroke-width:0.844236"
             aria-label="1"
             transform="matrix(1.2798868,0,0,1.2798868,267.90127,48.092222)">
            <path
               id="path8192"
               style="font-size:7.66842px;stroke-width:0.844236"
               d="m -712.27868,89.342047 -0.8275,5.29825 h -0.69271 l 0.83874,-5.29825 z" />
          </g>
          <g
             id="text8115"
             style="font-style:italic;font-variant:normal;font-weight:normal;font-stretch:normal;font-size:38.3421px;line-height:1.25;font-family:'Gill Sans';-inkscape-font-specification:'Gill Sans Italic';letter-spacing:0px;word-spacing:0px;fill:#000000;fill-opacity:1;stroke:none;stroke-width:0.844236"
             aria-label="2"
             transform="matrix(1.2798868,0,0,1.2798868,316.85897,2.1830287)">
            <path
               id="path8189"
               style="font-size:7.66842px;stroke-width:0.844236"
               d="m -714.50301,126.79023 0.0974,-0.74512 q 0.60284,-0.35946 1.18321,-0.35946 0.5654,0 0.91362,0.34448 0.35197,0.34448 0.35197,0.90613 0,0.5654 -0.498,1.35171 -0.49425,0.78257 -1.55765,2.0519 h 1.992 l -0.0899,0.64403 h -3.1752 q 1.52769,-1.86843 2.09309,-2.72963 0.56539,-0.86494 0.56539,-1.26559 0,-0.30329 -0.1947,-0.47553 -0.19471,-0.17598 -0.53919,-0.17598 -0.52795,0 -1.14203,0.45306 z" />
          </g>
          <g
             id="text8115-9"
             style="font-style:italic;font-variant:normal;font-weight:normal;font-stretch:normal;font-size:38.3421px;line-height:1.25;font-family:'Gill Sans';-inkscape-font-specification:'Gill Sans Italic';letter-spacing:0px;word-spacing:0px;fill:#000000;fill-opacity:1;stroke:none;stroke-width:0.844236"
             aria-label="2"
             transform="matrix(1.2798868,0,0,1.2798868,340.32331,51.256586)">
            <path
               id="path8189-1"
               style="font-size:7.66842px;stroke-width:0.844236"
               d="m -714.50301,126.79023 0.0974,-0.74512 q 0.60284,-0.35946 1.18321,-0.35946 0.5654,0 0.91362,0.34448 0.35197,0.34448 0.35197,0.90613 0,0.5654 -0.498,1.35171 -0.49425,0.78257 -1.55765,2.0519 h 1.992 l -0.0899,0.64403 h -3.1752 q 1.52769,-1.86843 2.09309,-2.72963 0.56539,-0.86494 0.56539,-1.26559 0,-0.30329 -0.1947,-0.47553 -0.19471,-0.17598 -0.53919,-0.17598 -0.52795,0 -1.14203,0.45306 z" />
          </g>
          <g
             id="text8115-6"
             style="font-style:italic;font-variant:normal;font-weight:normal;font-stretch:normal;font-size:38.3421px;line-height:1.25;font-family:'Gill Sans';-inkscape-font-specification:'Gill Sans Italic';letter-spacing:0px;word-spacing:0px;fill:#000000;fill-opacity:1;stroke:none;stroke-width:0.844236"
             aria-label="2"
             transform="matrix(1.2798868,0,0,1.2798868,195.17691,-47.513625)">
            <path
               id="path8189-0"
               style="font-size:7.66842px;stroke-width:0.844236"
               d="m -714.50301,126.79023 0.0974,-0.74512 q 0.60284,-0.35946 1.18321,-0.35946 0.5654,0 0.91362,0.34448 0.35197,0.34448 0.35197,0.90613 0,0.5654 -0.498,1.35171 -0.49425,0.78257 -1.55765,2.0519 h 1.992 l -0.0899,0.64403 h -3.1752 q 1.52769,-1.86843 2.09309,-2.72963 0.56539,-0.86494 0.56539,-1.26559 0,-0.30329 -0.1947,-0.47553 -0.19471,-0.17598 -0.53919,-0.17598 -0.52795,0 -1.14203,0.45306 z" />
          </g>
          <g
             transform="matrix(1.2798868,0,0,1.2798868,290.68916,96.705369)"
             aria-label="1"
             style="font-style:italic;font-variant:normal;font-weight:normal;font-stretch:normal;font-size:38.3421px;line-height:1.25;font-family:'Gill Sans';-inkscape-font-specification:'Gill Sans Italic';letter-spacing:0px;word-spacing:0px;fill:#000000;fill-opacity:1;stroke:none;stroke-width:0.844236"
             id="text8111-6">
            <path
               d="m -712.27868,89.342047 -0.8275,5.29825 h -0.69271 l 0.83874,-5.29825 z"
               style="font-size:7.66842px;stroke-width:0.844236"
               id="path8192-4" />
          </g>
          <g
             transform="matrix(1.2798868,0,0,1.2798868,364.21044,-44.978365)"
             id="text8119-5"
             style="font-style:italic;font-variant:normal;font-weight:normal;font-stretch:normal;font-size:38.3421px;line-height:1.25;font-family:'Gill Sans';-inkscape-font-specification:'Gill Sans Italic';letter-spacing:0px;word-spacing:0px;fill:#000000;fill-opacity:1;stroke:none;stroke-width:0.844236"
             aria-label="3">
            <path
               id="path8186-9"
               style="font-size:7.66842px;stroke-width:0.844236"
               d="m -713.86714,163.04817 0.10109,-0.72266 q 0.5317,-0.2284 1.08212,-0.2284 0.63279,0 1.01472,0.37069 0.38566,0.37069 0.38566,0.98476 0,0.87243 -1.01846,1.25061 0.70394,0.29955 0.70394,1.18321 0,0.61033 -0.47928,1.09335 -0.47553,0.48302 -1.33673,0.48302 -0.61407,0 -1.2581,-0.28831 l 0.0936,-0.62156 q 0.57663,0.29206 1.13454,0.29206 0.50548,0 0.81626,-0.26585 0.31078,-0.26585 0.31078,-0.69271 0,-0.42311 -0.28457,-0.66275 -0.28457,-0.24338 -0.66649,-0.21342 l 0.0824,-0.62156 q 0.56539,-0.0412 0.87243,-0.31453 0.31078,-0.27334 0.31078,-0.61407 0,-0.33325 -0.22466,-0.53544 -0.22466,-0.20594 -0.59535,-0.20594 -0.53544,0 -1.04467,0.3295 z" />
          </g>
          <g
             transform="matrix(1.2798868,0,0,1.2798868,388.21068,4.0951919)"
             id="text8119-7"
             style="font-style:italic;font-variant:normal;font-weight:normal;font-stretch:normal;font-size:38.3421px;line-height:1.25;font-family:'Gill Sans';-inkscape-font-specification:'Gill Sans Italic';letter-spacing:0px;word-spacing:0px;fill:#000000;fill-opacity:1;stroke:none;stroke-width:0.844236"
             aria-label="3">
            <path
               id="path8186-5"
               style="font-size:7.66842px;stroke-width:0.844236"
               d="m -713.86714,163.04817 0.10109,-0.72266 q 0.5317,-0.2284 1.08212,-0.2284 0.63279,0 1.01472,0.37069 0.38566,0.37069 0.38566,0.98476 0,0.87243 -1.01846,1.25061 0.70394,0.29955 0.70394,1.18321 0,0.61033 -0.47928,1.09335 -0.47553,0.48302 -1.33673,0.48302 -0.61407,0 -1.2581,-0.28831 l 0.0936,-0.62156 q 0.57663,0.29206 1.13454,0.29206 0.50548,0 0.81626,-0.26585 0.31078,-0.26585 0.31078,-0.69271 0,-0.42311 -0.28457,-0.66275 -0.28457,-0.24338 -0.66649,-0.21342 l 0.0824,-0.62156 q 0.56539,-0.0412 0.87243,-0.31453 0.31078,-0.27334 0.31078,-0.61407 0,-0.33325 -0.22466,-0.53544 -0.22466,-0.20594 -0.59535,-0.20594 -0.53544,0 -1.04467,0.3295 z" />
          </g>
          <g
             transform="matrix(1.2798868,0,0,1.2798868,170.15569,-49.751638)"
             aria-label="1"
             style="font-style:italic;font-variant:normal;font-weight:normal;font-stretch:normal;font-size:38.3421px;line-height:1.25;font-family:'Gill Sans';-inkscape-font-specification:'Gill Sans Italic';letter-spacing:0px;word-spacing:0px;fill:#000000;fill-opacity:1;stroke:none;stroke-width:0.844236"
             id="text8111-2">
            <path
               d="m -712.27868,89.342047 -0.8275,5.29825 h -0.69271 l 0.83874,-5.29825 z"
               style="font-size:7.66842px;stroke-width:0.844236"
               id="path8192-3" />
          </g>
          <g
             transform="matrix(1.2798868,0,0,1.2798868,436.90662,-42.302506)"
             id="text8123-3"
             style="font-style:italic;font-variant:normal;font-weight:normal;font-stretch:normal;font-size:38.3421px;line-height:1.25;font-family:'Gill Sans';-inkscape-font-specification:'Gill Sans Italic';letter-spacing:0px;word-spacing:0px;fill:#000000;fill-opacity:1;stroke:none;stroke-width:0.844236"
             aria-label="4">
            <path
               id="path8183-0"
               style="font-size:7.66842px;stroke-width:0.844236"
               d="m -712.42885,198.42642 -0.48302,3.12653 h 0.75261 l -0.0786,0.56165 h -0.77508 l -0.25087,1.61007 h -0.67024 l 0.27709,-1.61007 h -1.96204 v -0.29955 l 2.77456,-3.38863 z m -2.31026,3.12653 h 1.16824 l 0.30703,-1.81601 z" />
          </g>
          <g
             transform="matrix(1.2798868,0,0,1.2798868,245.51975,-139.91305)"
             id="text8123-2"
             style="font-style:italic;font-variant:normal;font-weight:normal;font-stretch:normal;font-size:38.3421px;line-height:1.25;font-family:'Gill Sans';-inkscape-font-specification:'Gill Sans Italic';letter-spacing:0px;word-spacing:0px;fill:#000000;fill-opacity:1;stroke:none;stroke-width:0.844236"
             aria-label="4">
            <path
               id="path8183-3"
               style="font-size:7.66842px;stroke-width:0.844236"
               d="m -712.42885,198.42642 -0.48302,3.12653 h 0.75261 l -0.0786,0.56165 h -0.77508 l -0.25087,1.61007 h -0.67024 l 0.27709,-1.61007 h -1.96204 v -0.29955 l 2.77456,-3.38863 z m -2.31026,3.12653 h 1.16824 l 0.30703,-1.81601 z" />
          </g>
        </g>
      </g>
    </g>
  </g>
</svg>
