<?xml version="1.0" encoding="UTF-8" standalone="no"?>
<svg
   xmlns:dc="http://purl.org/dc/elements/1.1/"
   xmlns:cc="http://creativecommons.org/ns#"
   xmlns:rdf="http://www.w3.org/1999/02/22-rdf-syntax-ns#"
   xmlns:svg="http://www.w3.org/2000/svg"
   xmlns="http://www.w3.org/2000/svg"
   xmlns:xlink="http://www.w3.org/1999/xlink"
   xmlns:sodipodi="http://sodipodi.sourceforge.net/DTD/sodipodi-0.dtd"
   xmlns:inkscape="http://www.inkscape.org/namespaces/inkscape"
   width="91.440002mm"
   height="128.5mm"
   viewBox="0 0 91.440004 128.50002"
   version="1.1"
   id="svg4541"
   sodipodi:docname="teletype.svg"
   inkscape:version="1.0 (4035a4fb49, 2020-05-01)">
  <defs
     id="defs4535">
    <clipPath
       clipPathUnits="userSpaceOnUse"
       id="clipPath881">
      <path
         d="M 0,612 H 792 V 0 H 0 Z"
         id="path879" />
    </clipPath>
    <clipPath
       clipPathUnits="userSpaceOnUse"
       id="clipPath857">
      <path
         d="M 0,612 H 792 V 0 H 0 Z"
         id="path855" />
    </clipPath>
  </defs>
  <sodipodi:namedview
     id="base"
     pagecolor="#ffffff"
     bordercolor="#666666"
     borderopacity="1.0"
     inkscape:pageopacity="0.0"
     inkscape:pageshadow="2"
     inkscape:zoom="1.5865431"
     inkscape:cx="188.75785"
     inkscape:cy="207.01313"
     inkscape:document-units="mm"
     inkscape:current-layer="layer1"
     showgrid="false"
     fit-margin-top="0"
     fit-margin-left="0"
     fit-margin-right="0"
     fit-margin-bottom="0"
     inkscape:window-width="2560"
     inkscape:window-height="1377"
     inkscape:window-x="-8"
     inkscape:window-y="-8"
     inkscape:window-maximized="1"
     units="mm"
     inkscape:document-rotation="0" />
  <metadata
     id="metadata4538">
    <rdf:RDF>
      <cc:Work
         rdf:about="">
        <dc:format>image/svg+xml</dc:format>
        <dc:type
           rdf:resource="http://purl.org/dc/dcmitype/StillImage" />
        <dc:title />
      </cc:Work>
    </rdf:RDF>
  </metadata>
  <g
     inkscape:groupmode="layer"
     id="layer3"
     inkscape:label="Panel"
     transform="matrix(0.27602379,0,0,0.27602379,292.11815,3.992039)"
     style="display:inline"
     sodipodi:insensitive="true">
    <path
       transform="matrix(3.6228762,0,0,3.6228762,-1282.8466,-209.17163)"
       id="path25105"
       d="M 61.978027,53.744307 H 153.41803 V 182.24431 H 61.978027 Z m 0,0"
       style="fill:#e6e6e6;fill-opacity:1;fill-rule:nonzero;stroke:none;stroke-width:0.540206" />
  </g>
  <g
     inkscape:groupmode="layer"
     id="layer4"
     inkscape:label="Photo"
     transform="translate(-61.978031,-53.744307)"
     style="display:inline"
     sodipodi:insensitive="true">
    <image
       sodipodi:absref="C:\Users\micha\dev\monome-rack\res\teletype.jpg"
       xlink:href="teletype.jpg"
       sodipodi:insensitive="true"
       y="53.817627"
       x="62.470482"
       id="image7503"
       preserveAspectRatio="none"
       height="128.68195"
       width="90.201988"
       style="opacity:0.502;stroke-width:0.88074" />
  </g>
  <g
     inkscape:label="Layer 1"
     inkscape:groupmode="layer"
     id="layer1"
     transform="translate(-61.978028,-53.744307)">
    <g
       id="g843"
       transform="matrix(0.35277777,0,0,-0.35277777,62.47048,182.49957)">
      <path
         d="M 0,0 H 257.76"
         style="fill:none;stroke:#a4a6a9;stroke-width:0.5;stroke-linecap:round;stroke-linejoin:round;stroke-miterlimit:4;stroke-dasharray:none;stroke-opacity:1"
         id="path845" />
    </g>
    <g
       id="g847"
       transform="matrix(0.35277777,0,0,-0.35277777,153.40255,182.50095)">
      <path
         d="M 0,0 V 363.603"
         style="fill:none;stroke:#a4a6a9;stroke-width:0.5;stroke-linecap:round;stroke-linejoin:round;stroke-miterlimit:4;stroke-dasharray:none;stroke-opacity:1"
         id="path849" />
    </g>
    <g
       id="g863"
       transform="matrix(0.35277777,0,0,-0.35277777,100.31641,97.409012)">
      <path
         d="M 0,0 H 20.16"
         style="fill:#b2b1b1;fill-opacity:1;fill-rule:nonzero;stroke:#a4a6a9;stroke-width:0.5;stroke-linecap:butt;stroke-linejoin:miter;stroke-miterlimit:10;stroke-dasharray:none;stroke-opacity:1"
         id="path865" />
    </g>
    <g
       id="g867"
       transform="matrix(0.35277777,0,0,-0.35277777,113.5242,97.409012)">
      <path
         d="M 0,0 H 20.16"
         style="fill:#b2b1b1;fill-opacity:1;fill-rule:nonzero;stroke:#a4a6a9;stroke-width:0.5;stroke-linecap:butt;stroke-linejoin:miter;stroke-miterlimit:10;stroke-dasharray:none;stroke-opacity:1"
         id="path869" />
    </g>
    <g
       id="g871"
       transform="matrix(0.35277777,0,0,-0.35277777,126.98627,97.409012)">
      <path
         d="M 0,0 H 20.16"
         style="fill:#b2b1b1;fill-opacity:1;fill-rule:nonzero;stroke:#a4a6a9;stroke-width:0.5;stroke-linecap:butt;stroke-linejoin:miter;stroke-miterlimit:10;stroke-dasharray:none;stroke-opacity:1"
         id="path873" />
    </g>
    <g
       id="g939"
       transform="matrix(0.35277777,0,0,-0.35277777,137.81764,86.297708)">
      <path
         d="m 0,0 c -0.219,0 -0.622,-0.126 -0.748,-0.185 l -0.25,-2.074 c 0.232,-0.086 0.598,-0.195 0.779,-0.195 0.834,0 1.221,0.632 1.221,1.394 C 1.002,-0.455 0.625,0 0,0 m -0.219,-2.974 c -0.25,0 -0.619,0.11 -0.844,0.185 l -0.15,-1.2 c -0.017,-0.143 -0.147,-0.246 -0.291,-0.229 -0.143,0.017 -0.242,0.147 -0.225,0.291 l 0.512,4.17 c 0.018,0.14 0.147,0.242 0.287,0.225 0.082,-0.01 0.147,-0.054 0.188,-0.119 0.205,0.075 0.506,0.171 0.742,0.171 0.92,0 1.524,-0.691 1.524,-1.586 0,-1.046 -0.628,-1.908 -1.743,-1.908"
         style="fill:#100f0d;fill-opacity:1;fill-rule:nonzero;stroke:none"
         id="path941" />
    </g>
    <g
       id="g943"
       transform="matrix(0.35277777,0,0,-0.35277777,139.47093,86.349531)">
      <path
         d="m 0,0 c -0.099,0.051 -0.328,0.147 -0.64,0.147 -0.823,0 -1.267,-0.629 -1.267,-1.398 0,-0.578 0.332,-1.056 0.947,-1.056 0.266,0 0.659,0.171 0.717,0.249 z m 0.212,-2.55 c -0.018,-0.143 -0.147,-0.242 -0.291,-0.225 -0.082,0.01 -0.153,0.058 -0.192,0.126 -0.18,-0.096 -0.416,-0.178 -0.689,-0.178 -0.906,0 -1.471,0.708 -1.471,1.576 0,1.053 0.681,1.918 1.791,1.918 0.319,0 0.578,-0.076 0.749,-0.144 0.058,0.061 0.144,0.096 0.23,0.085 0.14,-0.017 0.242,-0.15 0.224,-0.29 z"
         style="fill:#100f0d;fill-opacity:1;fill-rule:nonzero;stroke:none"
         id="path945" />
    </g>
    <g
       id="g947"
       transform="matrix(0.35277777,0,0,-0.35277777,140.63365,86.330269)">
      <path
         d="m 0,0 c -0.055,0.024 -0.223,0.082 -0.363,0.082 -0.167,0 -0.543,-0.123 -0.776,-0.267 l -0.287,-2.419 c -0.017,-0.144 -0.15,-0.243 -0.291,-0.226 -0.142,0.017 -0.246,0.147 -0.228,0.29 l 0.351,2.865 c 0.018,0.143 0.148,0.242 0.291,0.225 0.103,-0.013 0.185,-0.085 0.215,-0.177 0.227,0.116 0.506,0.232 0.725,0.232 0.277,0 0.544,-0.116 0.571,-0.126 C 0.342,0.417 0.399,0.263 0.342,0.133 0.283,0 0.129,-0.058 0,0"
         style="fill:#100f0d;fill-opacity:1;fill-rule:nonzero;stroke:none"
         id="path949" />
    </g>
    <g
       id="g951"
       transform="matrix(0.35277777,0,0,-0.35277777,141.72299,86.349531)">
      <path
         d="m 0,0 c -0.1,0.051 -0.328,0.147 -0.639,0.147 -0.824,0 -1.268,-0.629 -1.268,-1.398 0,-0.578 0.331,-1.056 0.946,-1.056 0.268,0 0.66,0.171 0.719,0.249 z m 0.212,-2.55 c -0.017,-0.143 -0.148,-0.242 -0.29,-0.225 -0.082,0.01 -0.154,0.058 -0.192,0.126 -0.181,-0.096 -0.418,-0.178 -0.691,-0.178 -0.905,0 -1.469,0.708 -1.469,1.576 0,1.053 0.68,1.918 1.791,1.918 0.318,0 0.577,-0.076 0.748,-0.144 0.059,0.061 0.144,0.096 0.229,0.085 0.141,-0.017 0.243,-0.15 0.226,-0.29 z"
         style="fill:#100f0d;fill-opacity:1;fill-rule:nonzero;stroke:none"
         id="path953" />
    </g>
    <g
       id="g955"
       transform="matrix(0.35277777,0,0,-0.35277777,143.80661,87.249079)">
      <path
         d="m 0,0 c -0.017,-0.144 -0.146,-0.243 -0.29,-0.226 -0.144,0.018 -0.243,0.147 -0.226,0.291 l 0.233,1.846 c 0.061,0.482 -0.123,0.782 -0.633,0.782 -0.397,0 -0.752,-0.259 -0.867,-0.382 C -1.77,2.194 -1.767,1.996 -1.787,1.846 L -2.02,0.007 c -0.017,-0.144 -0.15,-0.243 -0.291,-0.226 -0.142,0.017 -0.246,0.147 -0.228,0.291 l 0.236,1.839 c 0.061,0.471 -0.127,0.782 -0.626,0.782 -0.362,0 -0.834,-0.382 -0.834,-0.382 L -4.036,0.007 c -0.017,-0.144 -0.148,-0.243 -0.29,-0.226 -0.145,0.017 -0.243,0.147 -0.227,0.291 l 0.35,2.864 c 0.016,0.14 0.146,0.243 0.29,0.226 0.112,-0.014 0.202,-0.099 0.222,-0.205 0.209,0.143 0.468,0.259 0.762,0.259 0.38,0 0.725,-0.133 0.954,-0.441 0.233,0.195 0.612,0.441 1.059,0.441 0.824,0 1.248,-0.577 1.148,-1.37 z"
         style="fill:#100f0d;fill-opacity:1;fill-rule:nonzero;stroke:none"
         id="path957" />
    </g>
    <g
       id="g959"
       transform="matrix(0.35277777,0,0,-0.35277777,140.40699,77.3749)">
      <path
         d="M 0,0 V 25.2"
         style="fill:none;stroke:#100f0d;stroke-width:0.5;stroke-linecap:butt;stroke-linejoin:miter;stroke-miterlimit:4;stroke-dasharray:none;stroke-opacity:1"
         id="path961" />
    </g>
    <g
       id="g963"
       transform="matrix(0.35277777,0,0,-0.35277777,140.2795,77.595209)">
      <path
         d="M 0,0 -12.24,-21.199"
         style="fill:none;stroke:#100f0d;stroke-width:0.5;stroke-linecap:butt;stroke-linejoin:miter;stroke-miterlimit:4;stroke-dasharray:none;stroke-opacity:1"
         id="path965" />
    </g>
    <g
       id="g967"
       transform="matrix(0.35277777,0,0,-0.35277777,140.40699,77.375605)">
      <path
         d="M 0,0 12.6,-21.822"
         style="fill:none;stroke:#100f0d;stroke-width:0.5;stroke-linecap:butt;stroke-linejoin:miter;stroke-miterlimit:4;stroke-dasharray:none;stroke-opacity:1"
         id="path969" />
    </g>
    <g
       id="g971"
       transform="matrix(0.35277777,0,0,-0.35277777,129.28691,72.617233)">
      <path
         d="m 0,0 c -0.123,-0.126 -0.324,-0.134 -0.451,-0.011 -0.127,0.123 -0.13,0.325 -0.007,0.451 l 0.144,0.151 C -0.191,0.718 0.01,0.722 0.137,0.602 0.264,0.479 0.267,0.276 0.144,0.15 Z m -0.461,-4.323 c -0.018,-0.145 -0.147,-0.246 -0.291,-0.23 -0.144,0.017 -0.242,0.148 -0.226,0.29 l 0.349,2.862 c 0.018,0.143 0.147,0.25 0.291,0.228 0.14,-0.016 0.242,-0.15 0.225,-0.29 z"
         style="fill:#100f0d;fill-opacity:1;fill-rule:nonzero;stroke:none"
         id="path973" />
    </g>
    <g
       id="g975"
       transform="matrix(0.35277777,0,0,-0.35277777,130.51542,74.143737)">
      <path
         d="m 0,0 c -0.017,-0.144 -0.15,-0.242 -0.29,-0.226 -0.144,0.017 -0.243,0.148 -0.226,0.29 l 0.226,1.782 c 0.065,0.512 -0.14,0.847 -0.684,0.847 -0.516,0 -1.039,-0.41 -1.039,-0.41 L -2.286,0.007 c -0.017,-0.144 -0.148,-0.243 -0.29,-0.226 -0.145,0.018 -0.243,0.147 -0.227,0.291 l 0.35,2.864 c 0.016,0.14 0.146,0.243 0.29,0.226 0.126,-0.017 0.222,-0.12 0.229,-0.243 0.249,0.157 0.58,0.298 0.96,0.298 0.865,0 1.306,-0.61 1.201,-1.44 z"
         style="fill:#100f0d;fill-opacity:1;fill-rule:nonzero;stroke:none"
         id="path977" />
    </g>
    <g
       id="g979"
       transform="matrix(0.35277777,0,0,-0.35277777,76.31528,74.186459)">
      <path
         d="m 0,0 h -2.334 c -0.144,0 -0.26,0.116 -0.26,0.26 0,0.143 0.116,0.26 0.26,0.26 h 0.95 l 0.441,3.578 -0.889,-0.222 c -0.14,-0.034 -0.28,0.051 -0.314,0.191 -0.035,0.141 0.051,0.281 0.188,0.315 l 1.254,0.311 c 0.085,0.02 0.171,0 0.236,-0.055 0.065,-0.058 0.095,-0.143 0.085,-0.229 L -0.858,0.52 H 0 C 0.144,0.52 0.263,0.403 0.263,0.26 0.263,0.116 0.144,0 0,0"
         style="fill:#231f20;fill-opacity:1;fill-rule:nonzero;stroke:none"
         id="path981" />
    </g>
    <g
       id="g983"
       transform="matrix(0.35277777,0,0,-0.35277777,109.58921,114.06449)">
      <path
         d="m 0,0 h -2.334 c -0.145,0 -0.26,0.116 -0.26,0.26 0,0.143 0.115,0.26 0.26,0.26 h 0.949 l 0.442,3.578 -0.889,-0.222 c -0.141,-0.034 -0.28,0.051 -0.314,0.191 -0.035,0.141 0.05,0.281 0.187,0.315 l 1.255,0.311 c 0.085,0.02 0.171,0 0.235,-0.055 0.066,-0.058 0.096,-0.143 0.086,-0.229 L -0.857,0.52 H 0 C 0.144,0.52 0.264,0.403 0.264,0.26 0.264,0.116 0.144,0 0,0"
         style="fill:#231f20;fill-opacity:1;fill-rule:nonzero;stroke:none"
         id="path985" />
    </g>
    <g
       id="g987"
       transform="matrix(0.35277777,0,0,-0.35277777,102.98531,100.85649)">
      <path
         d="m 0,0 h -2.334 c -0.144,0 -0.26,0.116 -0.26,0.26 0,0.143 0.116,0.26 0.26,0.26 h 0.95 l 0.441,3.578 -0.889,-0.222 c -0.14,-0.034 -0.28,0.051 -0.314,0.191 -0.035,0.141 0.051,0.281 0.188,0.315 l 1.254,0.311 c 0.085,0.02 0.171,0 0.236,-0.055 0.065,-0.058 0.095,-0.143 0.085,-0.229 L -0.858,0.52 H 0 C 0.144,0.52 0.263,0.403 0.263,0.26 0.263,0.116 0.144,0 0,0"
         style="fill:#231f20;fill-opacity:1;fill-rule:nonzero;stroke:none"
         id="path989" />
    </g>
    <g
       id="g991"
       transform="matrix(0.35277777,0,0,-0.35277777,90.081726,96.587847)">
      <path
         d="m 0,0 h -1.34 l -0.485,-3.955 c -0.017,-0.143 -0.147,-0.242 -0.287,-0.225 -0.144,0.017 -0.246,0.147 -0.229,0.29 L -1.863,0 h -1.275 c -0.143,0 -0.259,0.116 -0.259,0.26 0,0.147 0.116,0.263 0.259,0.263 H 0 C 0.144,0.523 0.26,0.407 0.26,0.26 0.26,0.116 0.144,0 0,0"
         style="fill:#b2b1b1;fill-opacity:1;fill-rule:nonzero;stroke:none"
         id="path993" />
    </g>
    <g
       id="g995"
       transform="matrix(0.35277777,0,0,-0.35277777,90.942645,96.587847)">
      <path
         d="m 0,0 h -0.926 l -0.233,-1.904 h 1.056 c 0.554,0 0.913,0.533 0.913,1.046 C 0.81,-0.438 0.41,0 0,0 M 0.277,-2.372 1.104,-3.791 C 1.176,-3.914 1.131,-4.074 1.008,-4.146 0.885,-4.218 0.725,-4.177 0.653,-4.054 l -0.95,1.631 h -0.927 l -0.188,-1.528 c -0.017,-0.144 -0.147,-0.246 -0.29,-0.229 -0.144,0.02 -0.243,0.15 -0.226,0.29 l 0.513,4.184 c 0.017,0.13 0.126,0.229 0.26,0.229 H 0 c 0.711,0 1.333,-0.684 1.333,-1.381 0,-0.66 -0.4,-1.326 -1.056,-1.514"
         style="fill:#b2b1b1;fill-opacity:1;fill-rule:nonzero;stroke:none"
         id="path997" />
    </g>
    <g
       id="g999"
       transform="matrix(0.35277777,0,0,-0.35277777,96.377469,110.08004)">
      <path
         d="m 0,0 c -0.075,0.031 -0.509,0.144 -0.892,0.144 -1.289,0 -1.894,-0.978 -1.894,-2.161 0,-0.963 0.612,-1.606 1.59,-1.606 0.184,0 0.458,0.02 0.717,0.113 0.134,0.048 0.284,-0.021 0.332,-0.157 0.048,-0.134 -0.02,-0.288 -0.157,-0.335 -0.263,-0.096 -0.564,-0.144 -0.892,-0.144 -1.265,0 -2.109,0.875 -2.109,2.126 0,1.473 0.83,2.683 2.413,2.683 0.478,0 0.984,-0.14 1.083,-0.178 C 0.325,0.431 0.39,0.28 0.338,0.147 0.284,0.014 0.133,-0.051 0,0"
         style="fill:#b2b1b1;fill-opacity:1;fill-rule:nonzero;stroke:none"
         id="path1001" />
    </g>
    <g
       id="g1003"
       transform="matrix(0.35277777,0,0,-0.35277777,97.208225,111.47514)">
      <path
         d="m 0,0 c -0.051,-0.099 -0.154,-0.15 -0.26,-0.14 -0.109,0.014 -0.195,0.089 -0.222,0.195 l -1.056,4.159 c -0.034,0.14 0.051,0.277 0.191,0.315 0.137,0.034 0.281,-0.048 0.315,-0.188 L -0.147,0.848 1.699,4.419 C 1.767,4.549 1.921,4.597 2.047,4.532 2.177,4.464 2.225,4.31 2.16,4.184 Z"
         style="fill:#b2b1b1;fill-opacity:1;fill-rule:nonzero;stroke:none"
         id="path1005" />
    </g>
    <g
       id="g1007"
       transform="matrix(0.35277777,0,0,-0.35277777,116.20862,100.15009)">
      <path
         d="m 0,0 c -0.232,-0.116 -0.473,-0.239 -0.715,-0.414 -0.428,-0.314 -0.622,-0.738 -0.707,-1.069 h 1.91 c 0.144,0 0.26,-0.117 0.26,-0.26 0,-0.144 -0.116,-0.26 -0.26,-0.26 h -2.224 c -0.159,0 -0.278,0.137 -0.26,0.294 0.051,0.41 0.246,1.183 0.974,1.716 0.28,0.201 0.549,0.338 0.79,0.458 0.533,0.266 0.793,0.42 0.85,0.912 0.066,0.52 -0.339,0.852 -0.834,0.852 -0.317,0 -0.786,-0.093 -0.936,-0.137 -0.141,-0.045 -0.284,0.034 -0.325,0.171 -0.044,0.14 0.034,0.283 0.17,0.324 0.219,0.069 0.739,0.161 1.088,0.161 0.813,0 1.459,-0.602 1.357,-1.435 C 1.039,0.523 0.536,0.267 0,0"
         style="fill:#231f20;fill-opacity:1;fill-rule:nonzero;stroke:none"
         id="path1009" />
    </g>
    <g
       id="g1011"
       transform="matrix(0.35277777,0,0,-0.35277777,129.52151,100.03897)">
      <path
         d="m 0,0 c 0.342,-0.273 0.492,-0.714 0.44,-1.148 -0.071,-0.588 -0.543,-1.221 -1.66,-1.221 -0.342,0 -0.851,0.099 -0.872,0.103 -0.139,0.027 -0.235,0.164 -0.208,0.304 0.028,0.14 0.164,0.236 0.307,0.209 0.004,-0.004 0.482,-0.093 0.773,-0.093 0.67,0 1.086,0.277 1.145,0.759 0.064,0.544 -0.319,0.855 -0.834,0.855 h -0.516 c -0.144,0 -0.26,0.119 -0.26,0.263 0,0.143 0.116,0.26 0.26,0.26 h 0.571 c 0.646,0 0.929,0.417 0.977,0.81 0.068,0.557 -0.424,0.81 -0.913,0.81 -0.276,0 -0.769,-0.086 -0.775,-0.086 -0.141,-0.024 -0.278,0.069 -0.301,0.212 -0.024,0.14 0.068,0.277 0.212,0.301 0.02,0.003 0.544,0.096 0.864,0.096 0.814,0 1.535,-0.52 1.43,-1.398 C 0.591,0.639 0.38,0.243 0,0"
         style="fill:#231f20;fill-opacity:1;fill-rule:nonzero;stroke:none"
         id="path1013" />
    </g>
    <g
       id="g1015"
       transform="matrix(0.35277777,0,0,-0.35277777,143.24297,100.48029)">
      <path
         d="m 0,0 h -0.476 l -0.102,-0.841 c -0.018,-0.14 -0.151,-0.242 -0.291,-0.225 -0.143,0.017 -0.246,0.147 -0.229,0.29 L -1.002,0 h -1.965 c -0.205,0 -0.328,0.226 -0.219,0.4 l 1.975,3.151 c 0.076,0.12 0.24,0.157 0.359,0.082 0.123,-0.078 0.158,-0.239 0.082,-0.359 L -2.496,0.523 h 1.558 l 0.118,0.95 c 0.016,0.144 0.146,0.25 0.29,0.229 0.139,-0.017 0.243,-0.15 0.225,-0.29 L -0.414,0.523 H 0 c 0.143,0 0.26,-0.116 0.26,-0.26 C 0.26,0.116 0.143,0 0,0"
         style="fill:#231f20;fill-opacity:1;fill-rule:nonzero;stroke:none"
         id="path1017" />
    </g>
    <g
       id="g1019"
       transform="matrix(0.35277777,0,0,-0.35277777,122.81287,113.35806)">
      <path
         d="m 0,0 c -0.232,-0.116 -0.473,-0.239 -0.715,-0.414 -0.428,-0.314 -0.622,-0.738 -0.707,-1.069 h 1.91 c 0.144,0 0.26,-0.117 0.26,-0.26 0,-0.144 -0.116,-0.26 -0.26,-0.26 h -2.224 c -0.159,0 -0.278,0.137 -0.26,0.294 0.051,0.41 0.246,1.183 0.974,1.716 0.28,0.201 0.549,0.338 0.79,0.458 0.533,0.266 0.793,0.42 0.85,0.912 0.066,0.52 -0.339,0.852 -0.834,0.852 -0.317,0 -0.786,-0.093 -0.936,-0.137 -0.141,-0.045 -0.284,0.034 -0.325,0.171 -0.044,0.14 0.034,0.283 0.17,0.324 0.219,0.069 0.739,0.161 1.088,0.161 0.813,0 1.459,-0.602 1.357,-1.435 C 1.039,0.523 0.536,0.267 0,0"
         style="fill:#231f20;fill-opacity:1;fill-rule:nonzero;stroke:none"
         id="path1021" />
    </g>
    <g
       id="g1023"
       transform="matrix(0.35277777,0,0,-0.35277777,136.1254,113.24714)">
      <path
         d="m 0,0 c 0.342,-0.273 0.492,-0.714 0.441,-1.148 -0.072,-0.588 -0.543,-1.221 -1.661,-1.221 -0.342,0 -0.85,0.099 -0.872,0.103 -0.139,0.027 -0.235,0.164 -0.208,0.304 0.028,0.14 0.164,0.236 0.308,0.209 0.004,-0.004 0.482,-0.093 0.772,-0.093 0.67,0 1.087,0.277 1.146,0.759 0.064,0.544 -0.319,0.855 -0.834,0.855 h -0.517 c -0.143,0 -0.26,0.119 -0.26,0.263 0,0.143 0.117,0.26 0.26,0.26 h 0.571 c 0.646,0 0.93,0.417 0.977,0.81 0.068,0.557 -0.424,0.81 -0.912,0.81 -0.277,0 -0.77,-0.086 -0.775,-0.086 -0.141,-0.024 -0.278,0.069 -0.301,0.212 -0.025,0.14 0.068,0.277 0.211,0.301 0.021,0.003 0.544,0.096 0.865,0.096 0.813,0 1.535,-0.52 1.429,-1.398 C 0.592,0.639 0.38,0.243 0,0"
         style="fill:#231f20;fill-opacity:1;fill-rule:nonzero;stroke:none"
         id="path1025" />
    </g>
    <g
       id="g1027"
       transform="matrix(0.35277777,0,0,-0.35277777,149.84655,113.68843)">
      <path
         d="m 0,0 h -0.475 l -0.102,-0.841 c -0.017,-0.14 -0.151,-0.242 -0.29,-0.225 -0.145,0.017 -0.246,0.147 -0.23,0.29 L -1.001,0 h -1.966 c -0.205,0 -0.328,0.226 -0.219,0.4 l 1.977,3.151 c 0.074,0.12 0.238,0.157 0.358,0.082 0.123,-0.078 0.158,-0.239 0.082,-0.359 L -2.494,0.523 h 1.558 l 0.116,0.95 c 0.017,0.144 0.147,0.25 0.291,0.229 0.14,-0.017 0.242,-0.15 0.225,-0.29 L -0.413,0.523 H 0 c 0.145,0 0.26,-0.116 0.26,-0.26 C 0.26,0.116 0.145,0 0,0"
         style="fill:#231f20;fill-opacity:1;fill-rule:nonzero;stroke:none"
         id="path1029" />
    </g>
    <g
       id="g1031"
       transform="matrix(0.35277777,0,0,-0.35277777,82.680625,86.688021)">
      <path
         d="m 0,0 c -0.232,-0.116 -0.472,-0.239 -0.714,-0.414 -0.428,-0.314 -0.622,-0.738 -0.708,-1.069 h 1.911 c 0.143,0 0.26,-0.117 0.26,-0.26 0,-0.144 -0.117,-0.26 -0.26,-0.26 h -2.225 c -0.158,0 -0.277,0.137 -0.26,0.294 0.051,0.41 0.246,1.183 0.974,1.716 0.28,0.201 0.55,0.338 0.79,0.458 0.533,0.266 0.793,0.42 0.851,0.912 0.065,0.52 -0.339,0.852 -0.834,0.852 -0.318,0 -0.786,-0.093 -0.937,-0.137 -0.14,-0.045 -0.284,0.034 -0.325,0.171 -0.044,0.14 0.035,0.283 0.171,0.324 0.219,0.069 0.739,0.161 1.087,0.161 0.814,0 1.46,-0.602 1.357,-1.435 C 1.039,0.523 0.537,0.267 0,0"
         style="fill:#231f20;fill-opacity:1;fill-rule:nonzero;stroke:none"
         id="path1033" />
    </g>
    <g
       id="g1035"
       transform="matrix(0.35277777,0,0,-0.35277777,96.760727,87.018256)">
      <path
         d="m 0,0 h -0.475 l -0.103,-0.841 c -0.017,-0.14 -0.15,-0.242 -0.29,-0.225 -0.144,0.017 -0.246,0.147 -0.229,0.29 L -1.001,0 h -1.966 c -0.205,0 -0.328,0.226 -0.219,0.4 l 1.976,3.151 c 0.075,0.12 0.239,0.157 0.359,0.082 0.123,-0.078 0.157,-0.239 0.082,-0.359 L -2.495,0.523 h 1.558 l 0.117,0.95 c 0.017,0.144 0.147,0.25 0.29,0.229 0.14,-0.017 0.243,-0.15 0.226,-0.29 L -0.414,0.523 H 0 c 0.144,0 0.26,-0.116 0.26,-0.26 C 0.26,0.116 0.144,0 0,0"
         style="fill:#231f20;fill-opacity:1;fill-rule:nonzero;stroke:none"
         id="path1037" />
    </g>
    <g
       id="g1039"
       transform="matrix(0.35277777,0,0,-0.35277777,109.21682,86.610869)">
      <path
         d="m 0,0 c -0.358,0 -0.663,-0.12 -0.909,-0.27 -0.031,-0.15 -0.055,-0.304 -0.055,-0.458 0,-0.561 0.239,-1.025 0.861,-1.025 0.584,0 0.944,0.386 0.944,0.957 C 0.841,-0.304 0.476,0 0,0 m -0.106,-2.273 c -1.094,0 -1.497,0.974 -1.35,1.918 0.205,1.309 0.967,2.31 2.143,2.816 C 0.817,2.516 0.971,2.458 1.028,2.324 1.087,2.194 1.025,2.041 0.892,1.982 0.024,1.606 -0.451,1.001 -0.704,0.4 -0.517,0.468 -0.284,0.52 0,0.52 c 0.763,0 1.364,-0.534 1.364,-1.313 0,-0.865 -0.592,-1.48 -1.47,-1.48"
         style="fill:#231f20;fill-opacity:1;fill-rule:nonzero;stroke:none"
         id="path1041" />
    </g>
    <g
       id="g1043"
       transform="matrix(0.35277777,0,0,-0.35277777,122.7426,85.902879)">
      <path
         d="m 0,0 c -0.537,0 -0.947,-0.229 -0.947,-0.803 0,-0.352 0.304,-0.568 0.765,-0.831 C 0.267,-1.459 0.83,-1.261 0.83,-0.69 0.83,-0.226 0.428,0 0,0 m -0.223,-2.205 c -0.416,-0.157 -1.004,-0.338 -1.004,-0.878 0,-0.465 0.411,-0.677 0.834,-0.677 0.52,0 0.944,0.205 0.944,0.776 0,0.318 -0.298,0.513 -0.774,0.779 m 0.613,0.243 c 0.372,-0.239 0.683,-0.543 0.683,-1.015 0,-0.868 -0.653,-1.302 -1.466,-1.302 -0.718,0 -1.353,0.437 -1.353,1.196 0,0.643 0.41,0.967 0.957,1.21 -0.359,0.243 -0.681,0.571 -0.681,1.066 0,0.875 0.64,1.33 1.47,1.33 0.721,0 1.35,-0.455 1.35,-1.213 0,-0.653 -0.403,-1.016 -0.96,-1.272"
         style="fill:#231f20;fill-opacity:1;fill-rule:nonzero;stroke:none"
         id="path1045" />
    </g>
    <g
       id="g1047"
       transform="matrix(0.35277777,0,0,-0.35277777,89.643506,73.368932)">
      <path
         d="m 0,0 c 0.342,-0.273 0.492,-0.714 0.441,-1.148 -0.072,-0.588 -0.544,-1.221 -1.661,-1.221 -0.342,0 -0.851,0.099 -0.872,0.103 -0.14,0.027 -0.236,0.164 -0.208,0.304 0.027,0.14 0.164,0.236 0.307,0.209 0.004,-0.004 0.482,-0.093 0.773,-0.093 0.67,0 1.087,0.277 1.145,0.759 0.065,0.544 -0.318,0.855 -0.834,0.855 h -0.516 c -0.144,0 -0.26,0.119 -0.26,0.263 0,0.143 0.116,0.26 0.26,0.26 h 0.571 c 0.646,0 0.929,0.417 0.977,0.81 0.068,0.557 -0.424,0.81 -0.913,0.81 -0.276,0 -0.769,-0.086 -0.775,-0.086 -0.141,-0.024 -0.277,0.069 -0.301,0.212 -0.024,0.14 0.068,0.277 0.212,0.301 0.02,0.003 0.543,0.096 0.864,0.096 0.814,0 1.535,-0.52 1.429,-1.398 C 0.591,0.639 0.379,0.243 0,0"
         style="fill:#231f20;fill-opacity:1;fill-rule:nonzero;stroke:none"
         id="path1049" />
    </g>
    <g
       id="g1051"
       transform="matrix(0.35277777,0,0,-0.35277777,103.01304,72.711777)">
      <path
         d="m 0,0 h -1.702 l -0.236,-1.237 0.67,-0.113 c 1.203,-0.202 1.367,-0.961 1.292,-1.566 -0.099,-0.823 -0.803,-1.315 -1.873,-1.315 -0.325,0 -0.643,0.047 -0.656,0.047 -0.141,0.021 -0.24,0.154 -0.219,0.298 0.02,0.14 0.15,0.239 0.294,0.219 0.003,0 0.294,-0.041 0.581,-0.041 0.376,0 1.258,0.082 1.353,0.854 0.072,0.591 -0.174,0.878 -0.858,0.991 l -0.933,0.154 c -0.143,0.024 -0.239,0.161 -0.212,0.304 l 0.325,1.716 c 0.024,0.123 0.13,0.212 0.253,0.212 H 0 c 0.144,0 0.26,-0.116 0.26,-0.26 C 0.26,0.116 0.144,0 0,0"
         style="fill:#231f20;fill-opacity:1;fill-rule:nonzero;stroke:none"
         id="path1053" />
    </g>
    <g
       id="g1055"
       transform="matrix(0.35277777,0,0,-0.35277777,115.89511,74.137211)">
      <path
         d="M 0,0 C -0.065,-0.13 -0.227,-0.178 -0.353,-0.113 -0.479,-0.048 -0.53,0.109 -0.465,0.236 L 1.463,4.04 h -1.895 c -0.146,0 -0.262,0.116 -0.262,0.263 0,0.144 0.116,0.26 0.262,0.26 H 1.887 C 1.975,4.563 2.061,4.515 2.108,4.437 2.156,4.361 2.16,4.266 2.119,4.184 Z"
         style="fill:#231f20;fill-opacity:1;fill-rule:nonzero;stroke:none"
         id="path1057" />
    </g>
    <g
       id="g1059"
       transform="matrix(0.35277777,0,0,-0.35277777,106.92066,110.87104)">
      <path
         d="M 0,0 H 20.341"
         style="fill:#b2b1b1;fill-opacity:1;fill-rule:nonzero;stroke:#a4a6a9;stroke-width:0.5;stroke-linecap:butt;stroke-linejoin:miter;stroke-miterlimit:10;stroke-dasharray:none;stroke-opacity:1"
         id="path1061" />
    </g>
    <g
       id="g1063"
       transform="matrix(0.35277777,0,0,-0.35277777,120.31863,110.87104)">
      <path
         d="M 0,0 H 20.341"
         style="fill:#b2b1b1;fill-opacity:1;fill-rule:nonzero;stroke:#a4a6a9;stroke-width:0.5;stroke-linecap:butt;stroke-linejoin:miter;stroke-miterlimit:10;stroke-dasharray:none;stroke-opacity:1"
         id="path1065" />
    </g>
    <g
       id="g1067"
       transform="matrix(0.35277777,0,0,-0.35277777,133.59051,110.87104)">
      <path
         d="M 0,0 H 20.341"
         style="fill:#b2b1b1;fill-opacity:1;fill-rule:nonzero;stroke:#a4a6a9;stroke-width:0.5;stroke-linecap:butt;stroke-linejoin:miter;stroke-miterlimit:10;stroke-dasharray:none;stroke-opacity:1"
         id="path1069" />
    </g>
  </g>
</svg>
