<?xml version="1.0" encoding="UTF-8" standalone="no"?>
<!-- Created with Inkscape (http://www.inkscape.org/) -->

<svg
   xmlns:dc="http://purl.org/dc/elements/1.1/"
   xmlns:cc="http://creativecommons.org/ns#"
   xmlns:rdf="http://www.w3.org/1999/02/22-rdf-syntax-ns#"
   xmlns:svg="http://www.w3.org/2000/svg"
   xmlns="http://www.w3.org/2000/svg"
   xmlns:xlink="http://www.w3.org/1999/xlink"
   xmlns:sodipodi="http://sodipodi.sourceforge.net/DTD/sodipodi-0.dtd"
   xmlns:inkscape="http://www.inkscape.org/namespaces/inkscape"
   width="90.134254"
   height="379.99997"
   viewBox="0 0 23.848023 100.54167"
   version="1.1"
   id="svg4541"
   sodipodi:docname="whitewhale.svg"
   inkscape:version="0.92.2 (5c3e80d, 2017-08-06)">
  <defs
     id="defs4535" />
  <sodipodi:namedview
     id="base"
     pagecolor="#ffffff"
     bordercolor="#666666"
     borderopacity="1.0"
     inkscape:pageopacity="0.0"
     inkscape:pageshadow="2"
     inkscape:zoom="4.81426"
     inkscape:cx="45.546791"
     inkscape:cy="217.33328"
     inkscape:document-units="mm"
     inkscape:current-layer="g13224"
     showgrid="false"
     fit-margin-top="0"
     fit-margin-left="0"
     fit-margin-right="0"
     fit-margin-bottom="0"
     inkscape:window-width="1151"
     inkscape:window-height="748"
     inkscape:window-x="596"
     inkscape:window-y="302"
     inkscape:window-maximized="0"
     units="px" />
  <metadata
     id="metadata4538">
    <rdf:RDF>
      <cc:Work
         rdf:about="">
        <dc:format>image/svg+xml</dc:format>
        <dc:type
           rdf:resource="http://purl.org/dc/dcmitype/StillImage" />
        <dc:title />
      </cc:Work>
    </rdf:RDF>
  </metadata>
  <g
     inkscape:label="Layer 1"
     inkscape:groupmode="layer"
     id="layer1"
     transform="translate(-61.978028,-53.744307)">
    <g
       transform="matrix(0.27602379,0,0,0.27602379,354.09618,57.736346)"
       id="g13122"
       style="stroke-width:0.9585526">
      <g
         transform="translate(-167.07644,-20.557569)"
         id="g13178"
         style="stroke-width:0.91882312">
        <g
           transform="translate(-99.2314,6.0949065)"
           id="g13224"
           style="stroke-width:0.88074034">
          <path
             style="fill:#e6e6e6;fill-opacity:1;fill-rule:nonzero;stroke:none;stroke-width:0.88074034"
             d="m -791.73442,0.265625 h 85.87109 V 363.98828 h -85.87109 z m 0,0"
             id="path25105" />
          <g
             id="g8181"
             transform="translate(0.3982139)">
            <g
               id="g7176"
               style="stroke-width:0.88074034"
               transform="translate(7.8388821e-4,-6.2465529e-6)">
              <path
                 inkscape:connector-curvature="0"
                 id="path7155"
                 style="font-style:italic;font-variant:normal;font-weight:normal;font-stretch:normal;font-size:7.66842127px;line-height:1.25;font-family:'Gill Sans';-inkscape-font-specification:'Gill Sans Italic';letter-spacing:0px;word-spacing:0px;fill:#000000;fill-opacity:1;stroke:none;stroke-width:0.84423596"
                 d="m -734.08231,244.66576 -0.0749,0.62905 q -0.44933,0.24713 -0.95856,0.24713 -0.6927,0 -1.10832,-0.4306 -0.41188,-0.43435 -0.41188,-1.15701 0,-0.87243 0.62531,-1.47153 0.62905,-0.59909 1.60632,-0.59909 0.24713,0 0.59161,0.0599 l -0.0861,0.57663 q -0.24339,-0.0562 -0.498,-0.0562 -0.67773,0 -1.12705,0.43435 -0.44558,0.43434 -0.44558,1.01472 0,0.48676 0.25087,0.76759 0.25462,0.27708 0.69271,0.27708 0.4643,0 0.94357,-0.29206 z" />
              <path
                 inkscape:connector-curvature="0"
                 id="path7157"
                 style="font-style:italic;font-variant:normal;font-weight:normal;font-stretch:normal;font-size:7.66842127px;line-height:1.25;font-family:'Gill Sans';-inkscape-font-specification:'Gill Sans Italic';letter-spacing:0px;word-spacing:0px;fill:#000000;fill-opacity:1;stroke:none;stroke-width:0.84423596"
                 d="m -731.88498,240.2025 -0.73764,5.23085 h -0.65152 l 0.73764,-5.23085 z" />
              <path
                 inkscape:connector-curvature="0"
                 id="path7159"
                 style="font-style:italic;font-variant:normal;font-weight:normal;font-stretch:normal;font-size:7.66842127px;line-height:1.25;font-family:'Gill Sans';-inkscape-font-specification:'Gill Sans Italic';letter-spacing:0px;word-spacing:0px;fill:#000000;fill-opacity:1;stroke:none;stroke-width:0.84423596"
                 d="m -729.96302,241.88371 q 0.58038,0 0.9286,0.41188 0.35197,0.40813 0.35197,1.0896 0,0.94358 -0.47179,1.55016 -0.47179,0.60659 -1.16075,0.60659 -0.60658,0 -0.95106,-0.40814 -0.34448,-0.40813 -0.34448,-1.13454 0,-0.90238 0.47553,-1.50897 0.47553,-0.60658 1.17198,-0.60658 z m 0,0.51297 q -0.40064,0 -0.6927,0.498 -0.28832,0.49426 -0.28832,1.17198 0,0.40439 0.17224,0.65901 0.17599,0.25461 0.43435,0.25461 0.40813,0 0.69645,-0.4643 0.29205,-0.46429 0.29205,-1.16823 0,-0.43435 -0.16849,-0.69271 -0.1685,-0.25836 -0.44558,-0.25836 z" />
              <path
                 inkscape:connector-curvature="0"
                 id="path7161"
                 style="font-style:italic;font-variant:normal;font-weight:normal;font-stretch:normal;font-size:7.66842127px;line-height:1.25;font-family:'Gill Sans';-inkscape-font-specification:'Gill Sans Italic';letter-spacing:0px;word-spacing:0px;fill:#000000;fill-opacity:1;stroke:none;stroke-width:0.84423596"
                 d="m -725.40046,244.66576 -0.0749,0.62905 q -0.44932,0.24713 -0.95855,0.24713 -0.69271,0 -1.10833,-0.4306 -0.41188,-0.43435 -0.41188,-1.15701 0,-0.87243 0.62531,-1.47153 0.62905,-0.59909 1.60632,-0.59909 0.24713,0 0.59161,0.0599 l -0.0861,0.57663 q -0.24338,-0.0562 -0.498,-0.0562 -0.67773,0 -1.12705,0.43435 -0.44558,0.43434 -0.44558,1.01472 0,0.48676 0.25088,0.76759 0.25461,0.27708 0.6927,0.27708 0.4643,0 0.94358,-0.29206 z" />
              <path
                 inkscape:connector-curvature="0"
                 id="path7163"
                 style="font-style:italic;font-variant:normal;font-weight:normal;font-stretch:normal;font-size:7.66842127px;line-height:1.25;font-family:'Gill Sans';-inkscape-font-specification:'Gill Sans Italic';letter-spacing:0px;word-spacing:0px;fill:#000000;fill-opacity:1;stroke:none;stroke-width:0.84423596"
                 d="m -723.1744,240.2025 -0.47179,3.29877 1.4603,-1.51272 h 0.8275 l -1.58012,1.62879 1.6887,1.81601 h -0.8275 l -1.5876,-1.74861 -0.24713,1.74861 h -0.64403 l 0.73015,-5.23085 z" />
            </g>
          </g>
          <g
             aria-label="in"
             style="font-style:italic;font-variant:normal;font-weight:normal;font-stretch:normal;font-size:38.34210587px;line-height:1.25;font-family:'Gill Sans';-inkscape-font-specification:'Gill Sans Italic';letter-spacing:0px;word-spacing:0px;fill:#000000;fill-opacity:1;stroke:none;stroke-width:0.84423596"
             id="text7180"
             transform="translate(-1.4148541,-0.02338625)">
            <path
               d="m -769.02559,303.97234 q 0,-0.15726 0.10859,-0.26585 0.11233,-0.11233 0.26584,-0.11233 0.15352,0 0.26211,0.11233 0.11233,0.10859 0.11233,0.26585 0,0.15352 -0.11233,0.26585 -0.10859,0.10859 -0.26211,0.10859 -0.15351,0 -0.26584,-0.10859 -0.10859,-0.11233 -0.10859,-0.26585 z m 0.58037,1.07838 -0.48302,3.44479 h -0.65151 l 0.48302,-3.44479 z"
               style="font-size:7.66842127px;stroke-width:0.84423596"
               id="path7186"
               inkscape:connector-curvature="0" />
            <path
               d="m -766.71158,305.05072 -0.0861,0.60658 0.015,0.015 q 0.55042,-0.67399 1.14203,-0.67399 0.40064,0 0.62156,0.29581 0.22092,0.29206 0.22092,0.75636 0,0.13105 -0.0225,0.27333 l -0.3295,2.17172 h -0.64403 l 0.31453,-2.19418 q 0.0187,-0.11608 0.0187,-0.21343 0,-0.26959 -0.11233,-0.41188 -0.11233,-0.14228 -0.28083,-0.14228 -0.0973,0 -0.22091,0.0487 -0.11982,0.0487 -0.25836,0.14978 -0.13855,0.10109 -0.34448,0.30703 -0.2022,0.20594 -0.21343,0.26211 l -0.31453,2.19418 h -0.64403 l 0.48303,-3.44479 z"
               style="font-size:7.66842127px;stroke-width:0.84423596"
               id="path7188"
               inkscape:connector-curvature="0" />
          </g>
          <g
             style="stroke-width:0.88074034"
             id="g7204"
             transform="translate(-0.43194511,-0.24727625)">
            <path
               d="m -733.97609,305.06083 q 0.58037,0 0.92859,0.41188 0.35197,0.40814 0.35197,1.08961 0,0.94357 -0.47179,1.55016 -0.47178,0.60658 -1.16074,0.60658 -0.60659,0 -0.95107,-0.40813 -0.34448,-0.40814 -0.34448,-1.13454 0,-0.90239 0.47553,-1.50897 0.47554,-0.60659 1.17199,-0.60659 z m 0,0.51298 q -0.40065,0 -0.69271,0.498 -0.28831,0.49425 -0.28831,1.17198 0,0.40439 0.17224,0.659 0.17598,0.25462 0.43434,0.25462 0.40813,0 0.69645,-0.4643 0.29206,-0.4643 0.29206,-1.16824 0,-0.43434 -0.1685,-0.6927 -0.16849,-0.25836 -0.44557,-0.25836 z"
               style="font-style:italic;font-variant:normal;font-weight:normal;font-stretch:normal;font-size:7.66842127px;line-height:1.25;font-family:'Gill Sans';-inkscape-font-specification:'Gill Sans Italic';letter-spacing:0px;word-spacing:0px;fill:#000000;fill-opacity:1;stroke:none;stroke-width:0.84423596"
               id="path7191"
               inkscape:connector-curvature="0" />
            <path
               d="m -728.93194,305.16568 -0.49051,3.44479 h -0.64402 l 0.0599,-0.58411 q -0.59535,0.63653 -1.13454,0.63653 -0.34822,0 -0.59161,-0.24712 -0.23963,-0.25087 -0.23963,-0.71143 0,-0.13105 0.0187,-0.26585 l 0.32201,-2.27281 h 0.65152 l -0.32202,2.27281 q -0.015,0.11233 -0.015,0.20969 0,0.51672 0.38192,0.51672 0.40064,0 1.03718,-0.76011 l 0.31453,-2.23911 z"
               style="font-style:italic;font-variant:normal;font-weight:normal;font-stretch:normal;font-size:7.66842127px;line-height:1.25;font-family:'Gill Sans';-inkscape-font-specification:'Gill Sans Italic';letter-spacing:0px;word-spacing:0px;fill:#000000;fill-opacity:1;stroke:none;stroke-width:0.84423596"
               id="path7193"
               inkscape:connector-curvature="0" />
            <path
               d="m -726.08699,305.16568 -0.0711,0.50923 h -0.68896 l -0.3295,1.8834 q -0.0262,0.14229 -0.0262,0.23964 0,0.33699 0.3632,0.33699 0.26959,0 0.62905,-0.20594 l -0.0374,0.63654 q -0.35945,0.15352 -0.71517,0.15352 -0.42311,0 -0.67023,-0.21343 -0.24339,-0.21717 -0.24339,-0.56914 0,-0.0861 0.0187,-0.17598 l 0.35946,-2.0856 h -0.60658 l 0.0786,-0.50923 h 0.6253 l 0.13106,-0.70394 h 0.64402 l -0.11981,0.70394 z"
               style="font-style:italic;font-variant:normal;font-weight:normal;font-stretch:normal;font-size:7.66842127px;line-height:1.25;font-family:'Gill Sans';-inkscape-font-specification:'Gill Sans Italic';letter-spacing:0px;word-spacing:0px;fill:#000000;fill-opacity:1;stroke:none;stroke-width:0.84423596"
               id="path7195"
               inkscape:connector-curvature="0" />
          </g>
          <image
             xlink:href="whitewhale.jpg"
             style="opacity:0.502"
             width="86.269737"
             height="364.25"
             preserveAspectRatio="none"
             id="image7503"
             x="-792.13306"
             y="0.265625" />
          <path
             id="path6189"
             style="fill:none;stroke:#000000;stroke-width:0.59777457;stroke-linecap:butt;stroke-linejoin:miter;stroke-miterlimit:4;stroke-dasharray:none;stroke-opacity:1"
             d="m -760.73292,240.29178 -12.9981,23.39658 m 12.9981,-23.39658 12.70926,23.10774"
             inkscape:connector-curvature="0"
             sodipodi:nodetypes="cccc" />
          <path
             inkscape:connector-curvature="0"
             id="path8083"
             style="font-style:italic;font-variant:normal;font-weight:normal;font-stretch:normal;font-size:7.66842127px;line-height:1.25;font-family:'Gill Sans';-inkscape-font-specification:'Gill Sans Italic';letter-spacing:0px;word-spacing:0px;fill:#000000;fill-opacity:1;stroke:none;stroke-width:0.84423596"
             d="m -735.38504,48.885531 c 0.18626,-0.06661 0.36945,-0.104841 0.58412,-0.104841 0.40439,0 0.74263,0.15227 1.01472,0.45681 0.27459,0.30454 0.41188,0.686463 0.41188,1.14577 0,0.546675 -0.18597,1.025951 -0.55791,1.437829 -0.36944,0.411878 -0.87618,0.617817 -1.52021,0.617817 h -0.4306 l -0.2284,1.655001 h -0.65152 l 0.61033,-4.354675 c 0,0 -0.13441,-0.231094 0.0636,-0.460558 0.2083,-0.169849 0.4509,-0.302644 0.70397,-0.393153 z m -0.0674,0.483021 -0.35196,2.516201 h 0.31452 c 0.44183,0 0.7938,-0.148526 1.05591,-0.445578 0.2621,-0.299547 0.39315,-0.651516 0.39315,-1.055905 0,-0.349473 -0.0924,-0.621562 -0.27708,-0.816268 -0.18472,-0.197202 -0.41937,-0.295803 -0.70394,-0.295803 -0.15227,0 -0.2958,0.03245 -0.4306,0.09735 z"
             sodipodi:nodetypes="sscscscccccsccscscscc" />
          <path
             inkscape:connector-curvature="0"
             id="path8085"
             style="font-style:italic;font-variant:normal;font-weight:normal;font-stretch:normal;font-size:7.66842127px;line-height:1.25;font-family:'Gill Sans';-inkscape-font-specification:'Gill Sans Italic';letter-spacing:0px;word-spacing:0px;fill:#000000;fill-opacity:1;stroke:none;stroke-width:0.84423596"
             d="m -729.82463,48.885531 -0.48302,3.444799 h -0.65151 l 0.0637,-0.396901 -0.015,-0.01872 q -0.45306,0.483021 -0.92859,0.483021 -0.47179,0 -0.80504,-0.396901 -0.3295,-0.400645 -0.3295,-0.966041 0,-0.981019 0.61407,-1.617558 0.61782,-0.636538 1.7224,-0.636538 0.44932,0 0.81252,0.104841 z m -0.99599,2.448803 0.28457,-1.988248 q -0.10484,-0.0075 -0.2022,-0.0075 -0.76759,0 -1.16823,0.49051 -0.40065,0.486765 -0.40065,1.089604 0,0.415623 0.19096,0.681471 0.19471,0.262105 0.49051,0.262105 0.2359,0 0.51672,-0.23215 0.28083,-0.235894 0.28832,-0.295803 z" />
          <path
             inkscape:connector-curvature="0"
             id="path8087"
             style="font-style:italic;font-variant:normal;font-weight:normal;font-stretch:normal;font-size:7.66842127px;line-height:1.25;font-family:'Gill Sans';-inkscape-font-specification:'Gill Sans Italic';letter-spacing:0px;word-spacing:0px;fill:#000000;fill-opacity:1;stroke:none;stroke-width:0.84423596"
             d="m -728.54406,48.885531 -0.1011,0.655261 0.015,0.01498 q 0.30704,-0.438088 0.48677,-0.580373 0.17972,-0.142286 0.42685,-0.142286 0.15352,0 0.28457,0.05242 v 0.737637 q -0.20594,-0.116075 -0.40064,-0.116075 -0.19097,0 -0.34074,0.09735 -0.14977,0.09361 -0.3632,0.408134 -0.21343,0.31078 -0.22092,0.378178 l -0.26959,1.939572 h -0.65152 l 0.48302,-3.444799 z" />
          <path
             inkscape:connector-curvature="0"
             id="path8089"
             style="font-style:italic;font-variant:normal;font-weight:normal;font-stretch:normal;font-size:7.66842127px;line-height:1.25;font-family:'Gill Sans';-inkscape-font-specification:'Gill Sans Italic';letter-spacing:0px;word-spacing:0px;fill:#000000;fill-opacity:1;stroke:none;stroke-width:0.84423596"
             d="m -724.06758,48.885531 -0.48302,3.444799 h -0.65152 l 0.0637,-0.396901 -0.015,-0.01872 q -0.45307,0.483021 -0.9286,0.483021 -0.47179,0 -0.80503,-0.396901 -0.3295,-0.400645 -0.3295,-0.966041 0,-0.981019 0.61407,-1.617558 0.61782,-0.636538 1.7224,-0.636538 0.44932,0 0.81252,0.104841 z m -0.996,2.448803 0.28457,-1.988248 q -0.10484,-0.0075 -0.20219,-0.0075 -0.76759,0 -1.16824,0.49051 -0.40064,0.486765 -0.40064,1.089604 0,0.415623 0.19096,0.681471 0.19471,0.262105 0.49051,0.262105 0.23589,0 0.51672,-0.23215 0.28083,-0.235894 0.28831,-0.295803 z" />
          <path
             inkscape:connector-curvature="0"
             id="path8091"
             style="font-style:italic;font-variant:normal;font-weight:normal;font-stretch:normal;font-size:7.66842127px;line-height:1.25;font-family:'Gill Sans';-inkscape-font-specification:'Gill Sans Italic';letter-spacing:0px;word-spacing:0px;fill:#000000;fill-opacity:1;stroke:none;stroke-width:0.84423596"
             d="m -722.53199,48.885531 -0.0899,0.599096 q 0.60284,-0.651517 1.20193,-0.651517 0.6665,0 0.78257,0.77508 0.62905,-0.77508 1.28806,-0.77508 0.36694,0 0.58786,0.250872 0.22466,0.250871 0.22466,0.703937 0,0.142285 -0.0225,0.31078 l -0.31452,2.231631 h -0.65152 l 0.32202,-2.261585 q 0.0187,-0.116075 0.0187,-0.217172 0,-0.505487 -0.37069,-0.505487 -0.0936,0 -0.20594,0.04119 -0.11233,0.03744 -0.25087,0.127307 -0.13854,0.08987 -0.37818,0.325759 -0.2359,0.235893 -0.24713,0.303292 l -0.31452,2.186698 h -0.65152 l 0.30704,-2.17921 q 0.0262,-0.161007 0.0262,-0.288314 0,-0.51672 -0.40814,-0.51672 -0.25836,0 -0.64402,0.363201 -0.38193,0.359458 -0.39316,0.434345 l -0.30704,2.186698 h -0.65151 l 0.49051,-3.444799 z" />
          <path
             inkscape:connector-curvature="0"
             d="m -760.93203,48.625027 -12.9981,23.39658 m 12.9981,-23.39658 12.70926,23.10774 m -12.70926,-23.10774 0.28885,-23.10775"
             style="fill:none;stroke:#000000;stroke-width:0.59777457;stroke-linecap:butt;stroke-linejoin:miter;stroke-miterlimit:4;stroke-dasharray:none;stroke-opacity:1"
             id="path8099" />
          <g
             aria-label="A"
             style="font-style:italic;font-variant:normal;font-weight:normal;font-stretch:normal;font-size:38.34210587px;line-height:1.25;font-family:'Gill Sans';-inkscape-font-specification:'Gill Sans Italic';letter-spacing:0px;word-spacing:0px;fill:#000000;fill-opacity:1;stroke:none;stroke-width:0.84423596"
             id="text8103">
            <path
               d="m -786.17765,106.21502 1.01847,5.26081 h -0.64403 l -0.31453,-1.64002 h -1.64002 l -0.68896,1.64002 h -0.70019 l 2.31026,-5.26081 z m -1.3517,3.06662 h 1.30677 l -0.40064,-2.14551 z"
               style="font-size:7.66842127px;stroke-width:0.84423596"
               id="path8198" />
          </g>
          <g
             aria-label="B"
             style="font-style:italic;font-variant:normal;font-weight:normal;font-stretch:normal;font-size:38.34210587px;line-height:1.25;font-family:'Gill Sans';-inkscape-font-specification:'Gill Sans Italic';letter-spacing:0px;word-spacing:0px;fill:#000000;fill-opacity:1;stroke:none;stroke-width:0.84423596"
             id="text8107">
            <path
               d="m -788.49273,142.02942 h 0.7676 q 0.80503,0 1.23189,0.35571 0.42685,0.35571 0.42685,0.97353 0,0.68147 -0.72266,1.03344 1.08212,0.37443 1.08212,1.40413 0,0.65152 -0.52421,1.05965 -0.52421,0.40439 -1.36294,0.40439 h -1.62505 z m 0.60659,0.59909 -0.20594,1.494 h 0.37443 q 0.4306,0 0.68522,-0.21343 0.25836,-0.21717 0.25836,-0.56914 0,-0.72266 -0.8949,-0.72266 -0.1011,0 -0.21717,0.0112 z m -0.29206,2.07811 -0.27334,1.96953 h 0.79006 q 0.60284,0 0.92485,-0.23589 0.32202,-0.2359 0.32202,-0.67399 0,-0.44557 -0.37069,-0.75261 -0.37069,-0.30704 -0.88367,-0.30704 z"
               style="font-size:7.66842127px;stroke-width:0.84423596"
               id="path8195" />
          </g>
          <g
             aria-label="1"
             style="font-style:italic;font-variant:normal;font-weight:normal;font-stretch:normal;font-size:38.34210587px;line-height:1.25;font-family:'Gill Sans';-inkscape-font-specification:'Gill Sans Italic';letter-spacing:0px;word-spacing:0px;fill:#000000;fill-opacity:1;stroke:none;stroke-width:0.84423596"
             id="text8111">
            <path
               d="m -712.27868,89.342047 -0.8275,5.29825 h -0.69271 l 0.83874,-5.29825 z"
               style="font-size:7.66842127px;stroke-width:0.84423596"
               id="path8192" />
          </g>
          <g
             aria-label="2"
             style="font-style:italic;font-variant:normal;font-weight:normal;font-stretch:normal;font-size:38.34210587px;line-height:1.25;font-family:'Gill Sans';-inkscape-font-specification:'Gill Sans Italic';letter-spacing:0px;word-spacing:0px;fill:#000000;fill-opacity:1;stroke:none;stroke-width:0.84423596"
             id="text8115">
            <path
               d="m -714.50301,126.79023 0.0974,-0.74512 q 0.60284,-0.35946 1.18321,-0.35946 0.5654,0 0.91362,0.34448 0.35197,0.34448 0.35197,0.90613 0,0.5654 -0.498,1.35171 -0.49425,0.78257 -1.55765,2.0519 h 1.992 l -0.0899,0.64403 h -3.1752 q 1.52769,-1.86843 2.09309,-2.72963 0.56539,-0.86494 0.56539,-1.26559 0,-0.30329 -0.1947,-0.47553 -0.19471,-0.17598 -0.53919,-0.17598 -0.52795,0 -1.14203,0.45306 z"
               style="font-size:7.66842127px;stroke-width:0.84423596"
               id="path8189" />
          </g>
          <g
             aria-label="3"
             style="font-style:italic;font-variant:normal;font-weight:normal;font-stretch:normal;font-size:38.34210587px;line-height:1.25;font-family:'Gill Sans';-inkscape-font-specification:'Gill Sans Italic';letter-spacing:0px;word-spacing:0px;fill:#000000;fill-opacity:1;stroke:none;stroke-width:0.84423596"
             id="text8119">
            <path
               d="m -713.86714,163.04817 0.10109,-0.72266 q 0.5317,-0.2284 1.08212,-0.2284 0.63279,0 1.01472,0.37069 0.38566,0.37069 0.38566,0.98476 0,0.87243 -1.01846,1.25061 0.70394,0.29955 0.70394,1.18321 0,0.61033 -0.47928,1.09335 -0.47553,0.48302 -1.33673,0.48302 -0.61407,0 -1.2581,-0.28831 l 0.0936,-0.62156 q 0.57663,0.29206 1.13454,0.29206 0.50548,0 0.81626,-0.26585 0.31078,-0.26585 0.31078,-0.69271 0,-0.42311 -0.28457,-0.66275 -0.28457,-0.24338 -0.66649,-0.21342 l 0.0824,-0.62156 q 0.56539,-0.0412 0.87243,-0.31453 0.31078,-0.27334 0.31078,-0.61407 0,-0.33325 -0.22466,-0.53544 -0.22466,-0.20594 -0.59535,-0.20594 -0.53544,0 -1.04467,0.3295 z"
               style="font-size:7.66842127px;stroke-width:0.84423596"
               id="path8186" />
          </g>
          <g
             aria-label="4"
             style="font-style:italic;font-variant:normal;font-weight:normal;font-stretch:normal;font-size:38.34210587px;line-height:1.25;font-family:'Gill Sans';-inkscape-font-specification:'Gill Sans Italic';letter-spacing:0px;word-spacing:0px;fill:#000000;fill-opacity:1;stroke:none;stroke-width:0.84423596"
             id="text8123">
            <path
               d="m -712.42885,198.42642 -0.48302,3.12653 h 0.75261 l -0.0786,0.56165 h -0.77508 l -0.25087,1.61007 h -0.67024 l 0.27709,-1.61007 h -1.96204 v -0.29955 l 2.77456,-3.38863 z m -2.31026,3.12653 h 1.16824 l 0.30703,-1.81601 z"
               style="font-size:7.66842127px;stroke-width:0.84423596"
               id="path8183" />
          </g>
          <path
             inkscape:connector-curvature="0"
             id="path8129"
             style="font-style:italic;font-variant:normal;font-weight:normal;font-stretch:normal;font-size:7.66842127px;line-height:1.25;font-family:'Gill Sans';-inkscape-font-specification:'Gill Sans Italic';letter-spacing:0px;word-spacing:0px;fill:#000000;fill-opacity:1;stroke:none;stroke-width:0.78808004"
             d="m -779.27451,5.0047007 -2.20565,5.2757843 h -0.23166 l -0.88421,-3.7106475 -1.54983,3.7106475 h -0.23819 l -1.0767,-5.2757843 h 0.57424 l 0.75371,3.7031585 1.53677,-3.7031585 h 0.23492 l 0.89074,3.7668124 1.56288,-3.7668124 z" />
          <path
             inkscape:connector-curvature="0"
             id="path8131"
             style="font-style:italic;font-variant:normal;font-weight:normal;font-stretch:normal;font-size:7.66842127px;line-height:1.25;font-family:'Gill Sans';-inkscape-font-specification:'Gill Sans Italic';letter-spacing:0px;word-spacing:0px;fill:#000000;fill-opacity:1;stroke:none;stroke-width:0.78808004"
             d="m -774.76177,5.0047007 -0.64276,5.2308523 h -0.62646 l 0.28713,-2.3140065 h -2.46667 l -0.2806,2.3140065 h -0.62646 l 0.63951,-5.2308523 h 0.62319 l -0.27406,2.2615852 h 2.46339 l 0.27408,-2.2615852 z" />
          <path
             inkscape:connector-curvature="0"
             id="path8133"
             style="font-style:italic;font-variant:normal;font-weight:normal;font-stretch:normal;font-size:7.66842127px;line-height:1.25;font-family:'Gill Sans';-inkscape-font-specification:'Gill Sans Italic';letter-spacing:0px;word-spacing:0px;fill:#000000;fill-opacity:1;stroke:none;stroke-width:0.78808004"
             d="m -772.9922,5.0047007 -0.64278,5.2308523 h -0.62645 l 0.6395,-5.2308523 z" />
          <path
             inkscape:connector-curvature="0"
             id="path8135"
             style="font-style:italic;font-variant:normal;font-weight:normal;font-stretch:normal;font-size:7.66842127px;line-height:1.25;font-family:'Gill Sans';-inkscape-font-specification:'Gill Sans Italic';letter-spacing:0px;word-spacing:0px;fill:#000000;fill-opacity:1;stroke:none;stroke-width:0.78808004"
             d="m -768.83039,5.0047007 -0.0816,0.6515162 h -1.28228 l -0.5612,4.5793361 h -0.62973 l 0.56121,-4.5793361 h -1.28228 l 0.0816,-0.6515162 z" />
          <path
             inkscape:connector-curvature="0"
             id="path8137"
             style="font-style:italic;font-variant:normal;font-weight:normal;font-stretch:normal;font-size:7.66842127px;line-height:1.25;font-family:'Gill Sans';-inkscape-font-specification:'Gill Sans Italic';letter-spacing:0px;word-spacing:0px;fill:#000000;fill-opacity:1;stroke:none;stroke-width:0.78808004"
             d="m -765.36662,5.0047007 -0.0751,0.6215615 h -1.82389 l -0.19902,1.6400237 h 1.60855 l -0.0718,0.6215615 h -1.61834 l -0.2186,1.7261439 h 1.97504 l -0.0566,0.6215617 h -2.59377 l 0.66235,-5.2308523 z"
             sodipodi:nodetypes="ccccccccccccc" />
          <path
             inkscape:connector-curvature="0"
             id="path8139"
             style="font-style:italic;font-variant:normal;font-weight:normal;font-stretch:normal;font-size:7.66842127px;line-height:1.25;font-family:'Gill Sans';-inkscape-font-specification:'Gill Sans Italic';letter-spacing:0px;word-spacing:0px;fill:#000000;fill-opacity:1;stroke:none;stroke-width:0.78808004"
             d="m -756.6165,5.0047007 -2.20565,5.2757843 h -0.23165 l -0.88422,-3.7106475 -1.54983,3.7106475 h -0.23819 l -1.0767,-5.2757843 h 0.57424 l 0.75372,3.7031585 1.53676,-3.7031585 h 0.23492 l 0.89074,3.7668124 1.56287,-3.7668124 z" />
          <path
             inkscape:connector-curvature="0"
             id="path8141"
             style="font-style:italic;font-variant:normal;font-weight:normal;font-stretch:normal;font-size:7.66842127px;line-height:1.25;font-family:'Gill Sans';-inkscape-font-specification:'Gill Sans Italic';letter-spacing:0px;word-spacing:0px;fill:#000000;fill-opacity:1;stroke:none;stroke-width:0.78808004"
             d="m -752.01734,5.0047007 -0.64275,5.2308523 h -0.62647 l 0.28712,-2.3140065 h -2.46666 l -0.2806,2.3140065 h -0.62646 l 0.63951,-5.2308523 h 0.62319 l -0.27407,2.2615852 h 2.4634 l 0.27408,-2.2615852 z" />
          <path
             inkscape:connector-curvature="0"
             id="path8143"
             style="font-style:italic;font-variant:normal;font-weight:normal;font-stretch:normal;font-size:7.66842127px;line-height:1.25;font-family:'Gill Sans';-inkscape-font-specification:'Gill Sans Italic';letter-spacing:0px;word-spacing:0px;fill:#000000;fill-opacity:1;stroke:none;stroke-width:0.78808004"
             d="m -749.28797,4.9747459 0.88747,5.2608071 h -0.56119 l -0.27407,-1.6400242 h -1.42912 l -0.60035,1.6400242 h -0.61014 l 2.01314,-5.2608071 z m -1.17787,3.0666197 h 1.13872 l -0.34912,-2.1455105 z" />
          <path
             inkscape:connector-curvature="0"
             id="path8145"
             style="font-style:italic;font-variant:normal;font-weight:normal;font-stretch:normal;font-size:7.66842127px;line-height:1.25;font-family:'Gill Sans';-inkscape-font-specification:'Gill Sans Italic';letter-spacing:0px;word-spacing:0px;fill:#000000;fill-opacity:1;stroke:none;stroke-width:0.78808004"
             d="m -746.346,5.0047007 -0.5971,4.6467336 h 1.87285 l -0.075,0.5841187 h -2.44384 l 0.63951,-5.2308523 z" />
          <path
             inkscape:connector-curvature="0"
             id="path8147"
             style="font-style:italic;font-variant:normal;font-weight:normal;font-stretch:normal;font-size:7.66842127px;line-height:1.25;font-family:'Gill Sans';-inkscape-font-specification:'Gill Sans Italic';letter-spacing:0px;word-spacing:0px;fill:#000000;fill-opacity:1;stroke:none;stroke-width:0.78808004"
             d="m -741.19528,5.0047007 -0.075,0.6215615 h -1.82391 l -0.19903,1.6400237 h 1.60855 l -0.0718,0.6215615 h -1.61835 l -0.21861,1.7261439 h 2.0497 l -0.0815,0.6215617 h -2.64354 l 0.66234,-5.2308523 z"
             sodipodi:nodetypes="ccccccccccccc" />
        </g>
      </g>
    </g>
  </g>
</svg>
