<?xml version="1.0" encoding="UTF-8" standalone="no"?>
<svg
   inkscape:version="1.2.2 (732a01da63, 2022-12-09)"
   sodipodi:docname="whitewhale.svg"
   id="svg4541"
   version="1.1"
   viewBox="0 0 23.848023 100.54167"
   height="379.99997"
   width="90.134254"
   xmlns:inkscape="http://www.inkscape.org/namespaces/inkscape"
   xmlns:sodipodi="http://sodipodi.sourceforge.net/DTD/sodipodi-0.dtd"
   xmlns:xlink="http://www.w3.org/1999/xlink"
   xmlns="http://www.w3.org/2000/svg"
   xmlns:svg="http://www.w3.org/2000/svg"
   xmlns:rdf="http://www.w3.org/1999/02/22-rdf-syntax-ns#"
   xmlns:cc="http://creativecommons.org/ns#"
   xmlns:dc="http://purl.org/dc/elements/1.1/">
  <defs
     id="defs4535" />
  <sodipodi:namedview
     inkscape:document-rotation="0"
     units="px"
     inkscape:window-maximized="1"
     inkscape:window-y="-8"
     inkscape:window-x="2552"
     inkscape:window-height="1017"
     inkscape:window-width="1920"
     fit-margin-bottom="0"
     fit-margin-right="0"
     fit-margin-left="0"
     fit-margin-top="0"
     showgrid="false"
     inkscape:current-layer="g12848"
     inkscape:document-units="mm"
     inkscape:cy="51.407147"
     inkscape:cx="-50.085249"
     inkscape:zoom="3.4041959"
     inkscape:pageshadow="2"
     inkscape:pageopacity="0.0"
     borderopacity="1.0"
     bordercolor="#666666"
     pagecolor="#ffffff"
     id="base"
     inkscape:showpageshadow="2"
     inkscape:pagecheckerboard="0"
     inkscape:deskcolor="#d1d1d1" />
  <metadata
     id="metadata4538">
    <rdf:RDF>
      <cc:Work
         rdf:about="">
        <dc:format>image/svg+xml</dc:format>
        <dc:type
           rdf:resource="http://purl.org/dc/dcmitype/StillImage" />
      </cc:Work>
    </rdf:RDF>
  </metadata>
  <g
     style="display:inline"
     transform="translate(-61.978028,-53.744307)"
     id="g1076"
     inkscape:groupmode="layer"
     inkscape:label="Panel">
    <path
       style="fill:#e6e6e6;fill-opacity:1;fill-rule:nonzero;stroke:none;stroke-width:0.243105"
       d="M 62.051345,53.817626 H 85.753808 V 154.21373 H 62.051345 Z m 0,0"
       id="path980" />
  </g>
  <g
     style="display:inline"
     inkscape:label="Image"
     inkscape:groupmode="layer"
     id="g978"
     transform="translate(-61.978028,-53.744307)">
    <image
       xlink:href="whitewhale.jpg"
       transform="translate(1.2916667e-6)"
       y="53.817627"
       x="61.941311"
       id="image1010"
       preserveAspectRatio="none"
       height="100.54166"
       width="23.8125"
       style="display:inline;opacity:0.502;stroke-width:0.88074" />
  </g>
  <g
     style="display:inline"
     transform="translate(-61.978028,-53.744307)"
     id="layer1"
     inkscape:groupmode="layer"
     inkscape:label="Graphics">
    <path
       id="path6189"
       style="fill:none;stroke:#000000;stroke-width:0.165;stroke-linecap:butt;stroke-linejoin:miter;stroke-miterlimit:4;stroke-dasharray:none;stroke-opacity:1"
       d="m 70.608496,120.07055 -3.587785,6.45802 m 3.587785,-6.45802 3.508058,6.37829"
       inkscape:connector-curvature="0"
       sodipodi:nodetypes="cccc" />
    <path
       inkscape:connector-curvature="0"
       d="m 70.553537,67.165971 -3.587785,6.458013 m 3.587785,-6.458013 3.508058,6.378286 m -3.508058,-6.378286 0.07973,-6.378288"
       style="fill:none;stroke:#000000;stroke-width:0.165;stroke-linecap:butt;stroke-linejoin:miter;stroke-miterlimit:4;stroke-dasharray:none;stroke-opacity:1"
       id="path8099" />
  </g>
  <g
     style="display:inline"
     inkscape:label="Text"
     id="layer5"
     inkscape:groupmode="layer">
    <text
       id="text880"
       y="2.7411652"
       x="6.6764989"
       style="font-style:italic;font-size:50.8px;line-height:100%;font-family:CoreHumanistSans;-inkscape-font-specification:'CoreHumanistSans, Italic';letter-spacing:0px;word-spacing:0px;writing-mode:lr-tb;display:inline;fill:none;stroke:#000000;stroke-width:0.264583px;stroke-linecap:butt;stroke-linejoin:miter;stroke-opacity:1"
       xml:space="preserve"><tspan
         style="font-style:italic;font-variant:normal;font-weight:normal;font-stretch:normal;font-size:1.94028px;font-family:CoreHumanistSans;-inkscape-font-specification:'CoreHumanistSans, Italic';font-variant-ligatures:normal;font-variant-caps:normal;font-variant-numeric:normal;font-variant-east-asian:normal;fill:#000000;fill-opacity:1;stroke:none;stroke-width:0.264583px"
         y="2.7411652"
         x="6.6764989"
         id="tspan878"
         sodipodi:role="line">WHITE WHALE</tspan></text>
    <text
       id="text884"
       y="14.334001"
       x="15.275068"
       style="font-style:italic;font-variant:normal;font-weight:normal;font-stretch:normal;font-size:1.94049px;line-height:100%;font-family:CoreHumanistSans;-inkscape-font-specification:'CoreHumanistSans, Italic';font-variant-ligatures:normal;font-variant-caps:normal;font-variant-numeric:normal;font-variant-east-asian:normal;letter-spacing:0px;word-spacing:0px;writing-mode:lr-tb;display:inline;fill:none;stroke:#000000;stroke-width:0.264612px;stroke-linecap:butt;stroke-linejoin:miter;stroke-opacity:1"
       xml:space="preserve"
       transform="scale(0.99984863,1.0001514)"><tspan
         style="font-style:italic;font-variant:normal;font-weight:normal;font-stretch:normal;font-size:1.94049px;font-family:CoreHumanistSans;-inkscape-font-specification:'CoreHumanistSans, Italic';font-variant-ligatures:normal;font-variant-caps:normal;font-variant-numeric:normal;font-variant-east-asian:normal;fill:#000000;fill-opacity:1;stroke:none;stroke-width:0.264612px"
         y="14.334001"
         x="15.275068"
         id="tspan882"
         sodipodi:role="line">param</tspan></text>
    <text
       xml:space="preserve"
       style="font-style:italic;font-variant:normal;font-weight:normal;font-stretch:normal;font-size:1.94028px;line-height:100%;font-family:CoreHumanistSans;-inkscape-font-specification:'CoreHumanistSans, Italic';font-variant-ligatures:normal;font-variant-caps:normal;font-variant-numeric:normal;font-variant-east-asian:normal;letter-spacing:0px;word-spacing:0px;writing-mode:lr-tb;display:inline;fill:none;stroke:#000000;stroke-width:0.264583px;stroke-linecap:butt;stroke-linejoin:miter;stroke-opacity:1"
       x="21.261061"
       y="25.539885"
       id="text884-0"><tspan
         sodipodi:role="line"
         id="tspan882-9"
         x="21.261061"
         y="25.539885"
         style="font-style:italic;font-variant:normal;font-weight:normal;font-stretch:normal;font-size:1.94028px;font-family:CoreHumanistSans;-inkscape-font-specification:'CoreHumanistSans, Italic';font-variant-ligatures:normal;font-variant-caps:normal;font-variant-numeric:normal;font-variant-east-asian:normal;fill:#000000;fill-opacity:1;stroke:none;stroke-width:0.264583px">1</tspan></text>
    <text
       xml:space="preserve"
       style="font-style:italic;font-variant:normal;font-weight:normal;font-stretch:normal;font-size:1.94028px;line-height:100%;font-family:CoreHumanistSans;-inkscape-font-specification:'CoreHumanistSans, Italic';font-variant-ligatures:normal;font-variant-caps:normal;font-variant-numeric:normal;font-variant-east-asian:normal;letter-spacing:0px;word-spacing:0px;writing-mode:lr-tb;display:inline;fill:none;stroke:#000000;stroke-width:0.264583px;stroke-linecap:butt;stroke-linejoin:miter;stroke-opacity:1"
       x="1.1823156"
       y="30.24744"
       id="text884-2"><tspan
         sodipodi:role="line"
         id="tspan882-3"
         x="1.1823156"
         y="30.24744"
         style="font-style:italic;font-variant:normal;font-weight:normal;font-stretch:normal;font-size:1.94028px;font-family:CoreHumanistSans;-inkscape-font-specification:'CoreHumanistSans, Italic';font-variant-ligatures:normal;font-variant-caps:normal;font-variant-numeric:normal;font-variant-east-asian:normal;fill:#000000;fill-opacity:1;stroke:none;stroke-width:0.264583px">A</tspan></text>
    <text
       id="text884-2-8"
       y="35.619431"
       x="21.186872"
       style="font-style:italic;font-variant:normal;font-weight:normal;font-stretch:normal;font-size:1.94028px;line-height:100%;font-family:CoreHumanistSans;-inkscape-font-specification:'CoreHumanistSans, Italic';font-variant-ligatures:normal;font-variant-caps:normal;font-variant-numeric:normal;font-variant-east-asian:normal;letter-spacing:0px;word-spacing:0px;writing-mode:lr-tb;display:inline;fill:none;stroke:#000000;stroke-width:0.264583px;stroke-linecap:butt;stroke-linejoin:miter;stroke-opacity:1"
       xml:space="preserve"><tspan
         style="font-style:italic;font-variant:normal;font-weight:normal;font-stretch:normal;font-size:1.94028px;font-family:CoreHumanistSans;-inkscape-font-specification:'CoreHumanistSans, Italic';font-variant-ligatures:normal;font-variant-caps:normal;font-variant-numeric:normal;font-variant-east-asian:normal;fill:#000000;fill-opacity:1;stroke:none;stroke-width:0.264583px"
         y="35.619431"
         x="21.186872"
         id="tspan882-3-3"
         sodipodi:role="line">2</tspan></text>
    <text
       id="text884-2-5"
       y="40.225388"
       x="1.1012235"
       style="font-style:italic;font-variant:normal;font-weight:normal;font-stretch:normal;font-size:1.94028px;line-height:100%;font-family:CoreHumanistSans;-inkscape-font-specification:'CoreHumanistSans, Italic';font-variant-ligatures:normal;font-variant-caps:normal;font-variant-numeric:normal;font-variant-east-asian:normal;letter-spacing:0px;word-spacing:0px;writing-mode:lr-tb;display:inline;fill:none;stroke:#000000;stroke-width:0.264583px;stroke-linecap:butt;stroke-linejoin:miter;stroke-opacity:1"
       xml:space="preserve"><tspan
         style="font-style:italic;font-variant:normal;font-weight:normal;font-stretch:normal;font-size:1.94028px;font-family:CoreHumanistSans;-inkscape-font-specification:'CoreHumanistSans, Italic';font-variant-ligatures:normal;font-variant-caps:normal;font-variant-numeric:normal;font-variant-east-asian:normal;fill:#000000;fill-opacity:1;stroke:none;stroke-width:0.264583px"
         y="40.225388"
         x="1.1012235"
         id="tspan882-3-0"
         sodipodi:role="line">B</tspan></text>
    <text
       xml:space="preserve"
       style="font-style:italic;font-variant:normal;font-weight:normal;font-stretch:normal;font-size:1.94028px;line-height:100%;font-family:CoreHumanistSans;-inkscape-font-specification:'CoreHumanistSans, Italic';font-variant-ligatures:normal;font-variant-caps:normal;font-variant-numeric:normal;font-variant-east-asian:normal;letter-spacing:0px;word-spacing:0px;writing-mode:lr-tb;display:inline;fill:none;stroke:#000000;stroke-width:0.264583px;stroke-linecap:butt;stroke-linejoin:miter;stroke-opacity:1"
       x="21.103924"
       y="45.588432"
       id="text884-2-5-3"><tspan
         sodipodi:role="line"
         id="tspan882-3-0-9"
         x="21.103924"
         y="45.588432"
         style="font-style:italic;font-variant:normal;font-weight:normal;font-stretch:normal;font-size:1.94028px;font-family:CoreHumanistSans;-inkscape-font-specification:'CoreHumanistSans, Italic';font-variant-ligatures:normal;font-variant-caps:normal;font-variant-numeric:normal;font-variant-east-asian:normal;fill:#000000;fill-opacity:1;stroke:none;stroke-width:0.264583px">3</tspan></text>
    <text
       xml:space="preserve"
       style="font-style:italic;font-variant:normal;font-weight:normal;font-stretch:normal;font-size:1.94028px;line-height:100%;font-family:CoreHumanistSans;-inkscape-font-specification:'CoreHumanistSans, Italic';font-variant-ligatures:normal;font-variant-caps:normal;font-variant-numeric:normal;font-variant-east-asian:normal;letter-spacing:0px;word-spacing:0px;writing-mode:lr-tb;display:inline;fill:none;stroke:#000000;stroke-width:0.264583px;stroke-linecap:butt;stroke-linejoin:miter;stroke-opacity:1"
       x="21.153358"
       y="55.554691"
       id="text884-2-5-4"><tspan
         sodipodi:role="line"
         id="tspan882-3-0-4"
         x="21.153358"
         y="55.554691"
         style="font-style:italic;font-variant:normal;font-weight:normal;font-stretch:normal;font-size:1.94028px;font-family:CoreHumanistSans;-inkscape-font-specification:'CoreHumanistSans, Italic';font-variant-ligatures:normal;font-variant-caps:normal;font-variant-numeric:normal;font-variant-east-asian:normal;fill:#000000;fill-opacity:1;stroke:none;stroke-width:0.264583px">4</tspan></text>
    <text
       id="text884-2-5-2-7"
       y="67.594711"
       x="15.196758"
       style="font-style:italic;font-variant:normal;font-weight:normal;font-stretch:normal;font-size:1.94028px;line-height:100%;font-family:CoreHumanistSans;-inkscape-font-specification:'CoreHumanistSans, Italic';font-variant-ligatures:normal;font-variant-caps:normal;font-variant-numeric:normal;font-variant-east-asian:normal;letter-spacing:0px;word-spacing:0px;writing-mode:lr-tb;display:inline;fill:none;stroke:#000000;stroke-width:0.264583px;stroke-linecap:butt;stroke-linejoin:miter;stroke-opacity:1"
       xml:space="preserve"><tspan
         style="font-style:italic;font-variant:normal;font-weight:normal;font-stretch:normal;font-size:1.94028px;font-family:CoreHumanistSans;-inkscape-font-specification:'CoreHumanistSans, Italic';font-variant-ligatures:normal;font-variant-caps:normal;font-variant-numeric:normal;font-variant-east-asian:normal;fill:#000000;fill-opacity:1;stroke:none;stroke-width:0.264583px"
         y="67.594711"
         x="15.196758"
         id="tspan882-3-0-3-1"
         sodipodi:role="line">clock</tspan></text>
    <text
       xml:space="preserve"
       style="font-style:italic;font-variant:normal;font-weight:normal;font-stretch:normal;font-size:1.94028px;line-height:100%;font-family:CoreHumanistSans;-inkscape-font-specification:'CoreHumanistSans, Italic';font-variant-ligatures:normal;font-variant-caps:normal;font-variant-numeric:normal;font-variant-east-asian:normal;letter-spacing:0px;word-spacing:0px;writing-mode:lr-tb;display:inline;fill:none;stroke:#000000;stroke-width:0.264583px;stroke-linecap:butt;stroke-linejoin:miter;stroke-opacity:1"
       x="6.0755754"
       y="85.091576"
       id="text884-2-5-2-7-7"><tspan
         sodipodi:role="line"
         id="tspan882-3-0-3-1-7"
         x="6.0755754"
         y="85.091576"
         style="font-style:italic;font-variant:normal;font-weight:normal;font-stretch:normal;font-size:1.94028px;font-family:CoreHumanistSans;-inkscape-font-specification:'CoreHumanistSans, Italic';font-variant-ligatures:normal;font-variant-caps:normal;font-variant-numeric:normal;font-variant-east-asian:normal;fill:#000000;fill-opacity:1;stroke:none;stroke-width:0.264583px">in</tspan></text>
    <text
       id="text884-2-5-2-7-7-0"
       y="84.885124"
       x="15.214735"
       style="font-style:italic;font-variant:normal;font-weight:normal;font-stretch:normal;font-size:1.94028px;line-height:100%;font-family:CoreHumanistSans;-inkscape-font-specification:'CoreHumanistSans, Italic';font-variant-ligatures:normal;font-variant-caps:normal;font-variant-numeric:normal;font-variant-east-asian:normal;letter-spacing:0px;word-spacing:0px;writing-mode:lr-tb;display:inline;fill:none;stroke:#000000;stroke-width:0.264583px;stroke-linecap:butt;stroke-linejoin:miter;stroke-opacity:1"
       xml:space="preserve"><tspan
         style="font-style:italic;font-variant:normal;font-weight:normal;font-stretch:normal;font-size:1.94028px;font-family:CoreHumanistSans;-inkscape-font-specification:'CoreHumanistSans, Italic';font-variant-ligatures:normal;font-variant-caps:normal;font-variant-numeric:normal;font-variant-east-asian:normal;fill:#000000;fill-opacity:1;stroke:none;stroke-width:0.264583px"
         y="84.885124"
         x="15.214735"
         id="tspan882-3-0-3-1-7-7"
         sodipodi:role="line">out</tspan></text>
  </g>
  <g
     style="display:inline"
     inkscape:label="Text copy"
     id="g12848"
     inkscape:groupmode="layer">
    <g
       aria-label="WHITE WHALE"
       id="text12806"
       style="font-style:italic;font-size:50.8px;line-height:100%;font-family:CoreHumanistSans;-inkscape-font-specification:'CoreHumanistSans, Italic';letter-spacing:0px;word-spacing:0px;display:inline;fill:none;stroke:#000000;stroke-width:0.264583px">
      <path
         d="m 8.3969815,1.6004928 c 0.015158,-0.036949 -0.00284,-0.079582 -0.039791,-0.09474 -0.036001,-0.015158 -0.078634,0.00189 -0.093793,0.038844 L 7.8711732,2.4938932 7.6722187,1.6137564 c -0.00663,-0.030317 -0.032212,-0.052107 -0.063476,-0.055897 -0.030317,-0.00284 -0.059686,0.013264 -0.07295,0.040738 L 7.1198832,2.4910509 6.9635618,1.5607019 c -0.00663,-0.039791 -0.043581,-0.066318 -0.083371,-0.059686 -0.038844,0.00663 -0.065371,0.044528 -0.058739,0.083371 l 0.1942175,1.1596205 c 0.00568,0.031264 0.030317,0.054949 0.061581,0.059686 0.031264,0.00379 0.061581,-0.012316 0.074845,-0.040738 L 7.5774785,1.8515544 7.7802226,2.747797 c 0.00663,0.031264 0.033159,0.054002 0.064423,0.055897 0.031264,0.00284 0.060634,-0.015158 0.07295,-0.044528 z"
         style="font-size:1.94028px;fill:#000000;stroke:none"
         id="path12850" />
      <path
         d="m 9.6248149,1.5815447 c 0.00474,-0.039791 -0.023685,-0.075792 -0.063476,-0.080529 -0.039791,-0.00474 -0.075792,0.022738 -0.080529,0.062529 L 9.420176,2.0571407 H 8.7437308 l 0.058739,-0.475596 c 0.00474,-0.039791 -0.023685,-0.075792 -0.062528,-0.080529 -0.039791,-0.00474 -0.075792,0.022738 -0.080529,0.062529 L 8.5173016,2.7231645 c -0.00474,0.039791 0.022738,0.075792 0.062529,0.080529 0.039791,0.00474 0.075792,-0.023685 0.080529,-0.063476 l 0.066318,-0.5381246 h 0.6764453 l -0.064423,0.5210713 c -0.00474,0.039791 0.023685,0.075792 0.063476,0.080529 0.038843,0.00474 0.075792,-0.023685 0.080529,-0.063476 z"
         style="font-size:1.94028px;fill:#000000;stroke:none"
         id="path12852" />
      <path
         d="m 10.134517,1.5815447 c 0.0047,-0.039791 -0.02369,-0.075792 -0.06253,-0.080529 -0.03979,-0.00474 -0.075792,0.022738 -0.080529,0.062529 L 9.8493493,2.7231645 c -0.00474,0.039791 0.022738,0.075792 0.062529,0.080529 0.039791,0.00474 0.075792,-0.022738 0.080529,-0.062528 z"
         style="font-size:1.94028px;fill:#000000;stroke:none"
         id="path12854" />
      <path
         d="m 11.355719,1.5730181 c 0,-0.040738 -0.03221,-0.07295 -0.072,-0.07295 h -0.869715 c -0.03979,0 -0.072,0.032212 -0.072,0.07295 0,0.039791 0.03221,0.072003 0.072,0.072003 h 0.353381 l -0.132636,1.0781438 c -0.0047,0.039791 0.02369,0.075792 0.06348,0.080529 0.03884,0.00474 0.07484,-0.022738 0.07958,-0.062528 l 0.134531,-1.0961445 h 0.371381 c 0.03979,0 0.072,-0.032212 0.072,-0.072003 z"
         style="font-size:1.94028px;fill:#000000;stroke:none"
         id="path12856" />
      <path
         d="m 12.323964,1.5730181 c 0,-0.040738 -0.03221,-0.07295 -0.072,-0.07295 h -0.612969 c -0.036,0 -0.06632,0.027475 -0.07105,0.063476 l -0.14211,1.1596204 c -0.0057,0.042633 0.02842,0.081477 0.07105,0.081477 h 0.597811 c 0.03979,0 0.07295,-0.033159 0.07295,-0.07295 0,-0.039791 -0.03316,-0.072002 -0.07295,-0.072002 h -0.516335 l 0.054,-0.4348577 h 0.46707 c 0.03979,0 0.072,-0.032212 0.072,-0.072003 0,-0.039791 -0.03221,-0.072003 -0.072,-0.072003 h -0.450016 l 0.054,-0.435805 h 0.548546 c 0.03979,0 0.072,-0.032212 0.072,-0.072003 z"
         style="font-size:1.94028px;fill:#000000;stroke:none"
         id="path12858" />
      <path
         d="m 14.521938,1.6004928 c 0.01516,-0.036949 -0.0028,-0.079582 -0.03979,-0.09474 -0.036,-0.015158 -0.07864,0.00189 -0.09379,0.038844 L 13.996129,2.4938932 13.797175,1.6137564 c -0.0066,-0.030317 -0.03221,-0.052107 -0.06348,-0.055897 -0.03032,-0.00284 -0.05969,0.013264 -0.07295,0.040738 l -0.41591,0.8924529 -0.156321,-0.930349 c -0.0066,-0.039791 -0.04358,-0.066318 -0.08337,-0.059686 -0.03884,0.00663 -0.06537,0.044528 -0.05874,0.083371 l 0.194217,1.1596205 c 0.0057,0.031264 0.03032,0.054949 0.06158,0.059686 0.03126,0.00379 0.06158,-0.012316 0.07484,-0.040738 l 0.425384,-0.911401 0.202744,0.8962426 c 0.0066,0.031264 0.03316,0.054002 0.06442,0.055897 0.03126,0.00284 0.06063,-0.015158 0.07295,-0.044528 z"
         style="font-size:1.94028px;fill:#000000;stroke:none"
         id="path12860" />
      <path
         d="m 15.749771,1.5815447 c 0.0047,-0.039791 -0.02369,-0.075792 -0.06348,-0.080529 -0.03979,-0.00474 -0.07579,0.022738 -0.08053,0.062529 l -0.06063,0.4935966 h -0.676445 l 0.05874,-0.475596 c 0.0047,-0.039791 -0.02369,-0.075792 -0.06253,-0.080529 -0.03979,-0.00474 -0.07579,0.022738 -0.08053,0.062529 l -0.14211,1.1596204 c -0.0047,0.039791 0.02274,0.075792 0.06253,0.080529 0.03979,0.00474 0.07579,-0.023685 0.08053,-0.063476 l 0.06632,-0.5381246 h 0.676445 l -0.06442,0.5210713 c -0.0047,0.039791 0.02369,0.075792 0.06348,0.080529 0.03884,0.00474 0.07579,-0.023685 0.08053,-0.063476 z"
         style="font-size:1.94028px;fill:#000000;stroke:none"
         id="path12862" />
      <path
         d="m 16.575906,1.5502804 c -0.0085,-0.029369 -0.03505,-0.049265 -0.06537,-0.049265 -0.02558,0 -0.04832,0.013264 -0.06063,0.036949 l -0.599706,1.1681471 c -0.01705,0.033159 -0.0038,0.07295 0.02937,0.090003 0.03221,0.017053 0.07484,0.00379 0.0919,-0.02937 L 16.12589,2.4673659 h 0.566547 l 0.08148,0.2870629 c 0.01137,0.038844 0.05116,0.059686 0.08906,0.045475 0.03221,-0.011369 0.05021,-0.046423 0.04074,-0.081477 z M 16.19505,2.33094 16.491587,1.7530245 16.653593,2.33094 Z"
         style="font-size:1.94028px;fill:#000000;stroke:none"
         id="path12864" />
      <path
         d="m 17.810371,2.7316911 c 0,-0.039791 -0.03221,-0.072002 -0.072,-0.072002 h -0.455701 l 0.132637,-1.0781439 c 0.0047,-0.039791 -0.02369,-0.075792 -0.06348,-0.080529 -0.03884,-0.00474 -0.07484,0.023685 -0.07958,0.063476 l -0.14211,1.158673 c -0.0047,0.038843 0.02937,0.081477 0.07105,0.081477 h 0.537177 c 0.03979,0 0.072,-0.033159 0.072,-0.07295 z"
         style="font-size:1.94028px;fill:#000000;stroke:none"
         id="path12866" />
      <path
         d="m 18.926411,1.5730181 c 0,-0.040738 -0.03221,-0.07295 -0.072,-0.07295 h -0.612969 c -0.036,0 -0.06632,0.027475 -0.07106,0.063476 l -0.142111,1.1596204 c -0.0057,0.042633 0.02842,0.081477 0.07106,0.081477 h 0.597811 c 0.03979,0 0.07295,-0.033159 0.07295,-0.07295 0,-0.039791 -0.03316,-0.072002 -0.07295,-0.072002 h -0.516334 l 0.054,-0.4348577 h 0.467069 c 0.03979,0 0.072,-0.032212 0.072,-0.072003 0,-0.039791 -0.03221,-0.072003 -0.072,-0.072003 H 18.25186 l 0.054,-0.435805 h 0.548546 c 0.03979,0 0.072,-0.032212 0.072,-0.072003 z"
         style="font-size:1.94028px;fill:#000000;stroke:none"
         id="path12868" />
    </g>
    <g
       aria-label="param"
       transform="scale(0.99984863,1.0001514)"
       id="text12810"
       style="font-style:italic;font-size:1.94049px;line-height:100%;font-family:CoreHumanistSans;-inkscape-font-specification:'CoreHumanistSans, Italic';letter-spacing:0px;word-spacing:0px;display:inline;fill:none;stroke:#000000;stroke-width:0.264612px">
      <path
         d="m 16.225416,13.882041 c 0,-0.248247 -0.167709,-0.439643 -0.422587,-0.439643 -0.06538,0 -0.148759,0.02653 -0.205609,0.04738 -0.01137,-0.018 -0.02937,-0.03032 -0.05211,-0.03316 -0.03885,-0.0047 -0.07485,0.02369 -0.07959,0.06253 l -0.142126,1.155956 c -0.0047,0.0398 0.02274,0.0758 0.06253,0.08054 0.0398,0.0047 0.0758,-0.02369 0.08054,-0.06348 l 0.04169,-0.332574 c 0.06254,0.02084 0.164866,0.05116 0.234034,0.05116 0.308887,0 0.483228,-0.238771 0.483228,-0.528707 z m -0.144969,-0.0019 c 0,0.211293 -0.107068,0.386582 -0.338259,0.386582 -0.05022,0 -0.151601,-0.03032 -0.216031,-0.05401 l 0.06917,-0.575136 c 0.03506,-0.01611 0.146863,-0.05117 0.207504,-0.05117 0.173393,0 0.277618,0.126018 0.277618,0.293727 z"
         style="fill:#000000;stroke:none"
         id="path12871" />
      <path
         d="m 17.258196,13.539044 c 0.0047,-0.03885 -0.02369,-0.0758 -0.06254,-0.08054 -0.02369,-0.0028 -0.04738,0.0066 -0.06348,0.02369 -0.04737,-0.01895 -0.119386,-0.0398 -0.207504,-0.0398 -0.307939,0 -0.496492,0.239719 -0.496492,0.531551 0,0.240666 0.156338,0.436799 0.407427,0.436799 0.0758,0 0.141178,-0.02274 0.191396,-0.04927 0.01042,0.01895 0.03032,0.03222 0.05306,0.03506 0.03979,0.0047 0.0758,-0.02274 0.08054,-0.06253 z m -0.223611,0.658516 c -0.01611,0.02179 -0.125071,0.06917 -0.198976,0.06917 -0.170551,0 -0.262459,-0.132651 -0.262459,-0.292779 0,-0.213189 0.123176,-0.38753 0.351524,-0.38753 0.08622,0 0.149706,0.02653 0.177184,0.04074 z"
         style="fill:#000000;stroke:none"
         id="path12873" />
      <path
         d="m 18.110003,13.575049 c 0.01611,-0.036 0,-0.07864 -0.03695,-0.0957 -0.0076,-0.0028 -0.08148,-0.03506 -0.158233,-0.03506 -0.06064,0 -0.138336,0.03222 -0.200871,0.06443 -0.0085,-0.02558 -0.03127,-0.04548 -0.05969,-0.04927 -0.0398,-0.0047 -0.0758,0.02274 -0.08054,0.06254 l -0.09759,0.794009 c -0.0047,0.03979 0.02369,0.0758 0.06348,0.08054 0.03885,0.0047 0.0758,-0.02274 0.08054,-0.06253 l 0.07959,-0.670834 c 0.06443,-0.03979 0.168656,-0.0739 0.215084,-0.0739 0.03885,0 0.08527,0.01611 0.100435,0.02274 0.03601,0.01611 0.07864,0 0.09475,-0.03695 z"
         style="fill:#000000;stroke:none"
         id="path12875" />
      <path
         d="m 19.028135,13.539044 c 0.0047,-0.03885 -0.02369,-0.0758 -0.06254,-0.08054 -0.02369,-0.0028 -0.04738,0.0066 -0.06348,0.02369 -0.04737,-0.01895 -0.119386,-0.0398 -0.207504,-0.0398 -0.307939,0 -0.496492,0.239719 -0.496492,0.531551 0,0.240666 0.156338,0.436799 0.407427,0.436799 0.0758,0 0.141178,-0.02274 0.191396,-0.04927 0.01042,0.01895 0.03032,0.03222 0.05306,0.03506 0.0398,0.0047 0.0758,-0.02274 0.08054,-0.06253 z m -0.223611,0.658516 c -0.01611,0.02179 -0.125071,0.06917 -0.198976,0.06917 -0.170551,0 -0.262459,-0.132651 -0.262459,-0.292779 0,-0.213189 0.123176,-0.38753 0.351524,-0.38753 0.08622,0 0.149706,0.02653 0.177184,0.04074 z"
         style="fill:#000000;stroke:none"
         id="path12877" />
      <path
         d="m 20.573516,13.822348 c 0.02748,-0.219821 -0.09001,-0.37995 -0.318362,-0.37995 -0.124123,0 -0.229296,0.06822 -0.293727,0.122229 -0.06348,-0.08528 -0.15918,-0.122229 -0.264353,-0.122229 -0.08149,0 -0.153496,0.03222 -0.211294,0.07201 -0.0057,-0.02937 -0.03032,-0.05306 -0.06159,-0.05685 -0.0398,-0.0047 -0.0758,0.02369 -0.08054,0.06254 l -0.09665,0.794009 c -0.0047,0.03979 0.02274,0.0758 0.06254,0.08054 0.0398,0.0047 0.0758,-0.02274 0.08054,-0.06254 l 0.0758,-0.638619 c 0,0 0.130756,-0.10612 0.231192,-0.10612 0.138335,0 0.190448,0.08622 0.173393,0.216978 l -0.06538,0.509758 c -0.0047,0.03979 0.02369,0.0758 0.06348,0.08054 0.03885,0.0047 0.0758,-0.02274 0.08054,-0.06254 l 0.06443,-0.509758 c 0.0057,-0.04169 0.0047,-0.09665 9.48e-4,-0.128861 0.03222,-0.03411 0.130755,-0.10612 0.240666,-0.10612 0.141178,0 0.192343,0.08338 0.175288,0.216978 l -0.06443,0.511653 c -0.0047,0.03979 0.02274,0.0758 0.06253,0.08054 0.0398,0.0047 0.0758,-0.02274 0.08054,-0.06253 z"
         style="fill:#000000;stroke:none"
         id="path12879" />
    </g>
    <g
       aria-label="1"
       id="text12814"
       style="font-style:italic;font-size:1.94028px;line-height:100%;font-family:CoreHumanistSans;-inkscape-font-specification:'CoreHumanistSans, Italic';letter-spacing:0px;word-spacing:0px;display:inline;fill:none;stroke:#000000;stroke-width:0.264583px">
      <path
         d="m 22.006666,25.529463 c 0,-0.03979 -0.03316,-0.072 -0.07295,-0.072 h -0.192322 l 0.09663,-0.791081 c 0.0028,-0.02369 -0.0057,-0.04642 -0.02369,-0.06253 -0.01705,-0.01516 -0.04074,-0.02179 -0.06348,-0.01705 l -0.297485,0.06158 c -0.03979,0.0085 -0.06442,0.04642 -0.0559,0.08621 0.0076,0.03884 0.04642,0.06253 0.08527,0.05495 l 0.198954,-0.04074 -0.08716,0.708657 h -0.213165 c -0.03979,0 -0.072,0.03221 -0.072,0.072 0,0.04074 0.03221,0.07295 0.072,0.07295 h 0.552335 c 0.03979,0 0.07295,-0.03221 0.07295,-0.07295 z"
         style="fill:#000000;stroke:none"
         id="path12882" />
    </g>
    <g
       aria-label="A"
       id="text12818"
       style="font-style:italic;font-size:1.94028px;line-height:100%;font-family:CoreHumanistSans;-inkscape-font-specification:'CoreHumanistSans, Italic';letter-spacing:0px;word-spacing:0px;display:inline;fill:none;stroke:#000000;stroke-width:0.264583px">
      <path
         d="m 1.9004465,29.056556 c -0.00853,-0.02937 -0.035054,-0.04927 -0.065371,-0.04927 -0.02558,0 -0.048318,0.01326 -0.060634,0.03695 l -0.5997056,1.168147 c -0.017053,0.03316 -0.00379,0.07295 0.029369,0.09 0.032212,0.01705 0.074845,0.0038 0.091898,-0.02937 L 1.4504304,29.973641 H 2.016977 l 0.081477,0.287063 c 0.011369,0.03884 0.05116,0.05969 0.089056,0.04547 0.032212,-0.01137 0.050212,-0.04642 0.040738,-0.08148 z M 1.5195908,29.837215 1.8161277,29.2593 1.9781335,29.837215 Z"
         style="fill:#000000;stroke:none"
         id="path12885" />
    </g>
    <g
       aria-label="2"
       id="text12822"
       style="font-style:italic;font-size:1.94028px;line-height:100%;font-family:CoreHumanistSans;-inkscape-font-specification:'CoreHumanistSans, Italic';letter-spacing:0px;word-spacing:0px;display:inline;fill:none;stroke:#000000;stroke-width:0.264583px">
      <path
         d="m 22.026271,34.977092 c 0.02653,-0.215061 -0.163901,-0.327801 -0.358118,-0.327801 -0.09285,0 -0.217903,0.02558 -0.276642,0.04358 -0.03884,0.01232 -0.05969,0.05306 -0.04832,0.09095 0.01232,0.0379 0.05211,0.05969 0.09095,0.04737 0.04263,-0.01326 0.154427,-0.0379 0.234009,-0.0379 0.102319,0 0.229271,0.04263 0.214113,0.166743 -0.01042,0.08905 -0.04642,0.103266 -0.180954,0.144952 -0.05306,0.01611 -0.114636,0.03505 -0.183796,0.06537 -0.234956,0.101372 -0.261483,0.324011 -0.274747,0.431068 -0.0047,0.04263 0.02842,0.08053 0.07106,0.08053 h 0.560863 c 0.03979,0 0.072,-0.03221 0.072,-0.072 0,-0.03979 -0.03221,-0.072 -0.072,-0.072 h -0.476544 c 0.0199,-0.09663 0.06158,-0.184744 0.177164,-0.234956 0.06158,-0.02653 0.118426,-0.04453 0.168638,-0.05969 0.133584,-0.04074 0.259588,-0.07958 0.282326,-0.26622 z"
         style="fill:#000000;stroke:none"
         id="path12888" />
    </g>
    <g
       aria-label="B"
       id="text12826"
       style="font-style:italic;font-size:1.94028px;line-height:100%;font-family:CoreHumanistSans;-inkscape-font-specification:'CoreHumanistSans, Italic';letter-spacing:0px;word-spacing:0px;display:inline;fill:none;stroke:#000000;stroke-width:0.264583px">
      <path
         d="m 2.1329446,39.317776 c 0,-0.174322 -0.160111,-0.333485 -0.334433,-0.333485 H 1.4309195 c -0.036949,0 -0.067266,0.02747 -0.072003,0.06348 L 1.217754,40.207387 c -0.00474,0.04263 0.027475,0.08148 0.071055,0.08148 h 0.4310681 c 0.2235869,0 0.3865401,-0.170533 0.3865401,-0.391278 0,-0.110846 -0.050212,-0.214113 -0.1383207,-0.280431 0.092845,-0.06821 0.164848,-0.181901 0.164848,-0.299379 z m -0.1440052,0 c 0,0.110846 -0.12032,0.228324 -0.2311661,0.228324 H 1.4432357 l 0.05116,-0.416857 h 0.3041162 c 0.093793,0 0.1904278,0.09379 0.1904278,0.188533 z m -0.026527,0.580758 c 0,0.141163 -0.099477,0.245377 -0.242535,0.245377 H 1.3702857 l 0.055897,-0.452858 h 0.3315908 c 0.1155831,0 0.2046389,0.09285 0.2046389,0.207481 z"
         style="fill:#000000;stroke:none"
         id="path12891" />
    </g>
    <g
       aria-label="3"
       id="text12830"
       style="font-style:italic;font-size:1.94028px;line-height:100%;font-family:CoreHumanistSans;-inkscape-font-specification:'CoreHumanistSans, Italic';letter-spacing:0px;word-spacing:0px;display:inline;fill:none;stroke:#000000;stroke-width:0.264583px">
      <path
         d="m 21.91869,45.004832 c 0.02937,-0.242535 -0.17148,-0.38654 -0.396014,-0.38654 -0.09,0 -0.223587,0.02558 -0.229272,0.02653 -0.03884,0.0076 -0.06442,0.04547 -0.05684,0.08432 0.0076,0.03884 0.04547,0.06442 0.08432,0.05685 0.03505,-0.0066 0.138321,-0.02369 0.201797,-0.02369 0.136426,0 0.270957,0.07011 0.252009,0.225482 -0.01516,0.126952 -0.113689,0.198955 -0.27001,0.198955 h -0.1459 c -0.03979,0 -0.072,0.03316 -0.072,0.07295 0,0.03979 0.03221,0.072 0.072,0.072 h 0.130742 c 0.139268,0 0.248219,0.07674 0.230218,0.226429 -0.0199,0.167691 -0.180954,0.202745 -0.312642,0.202745 -0.07958,0 -0.199902,-0.02463 -0.20085,-0.02558 -0.03884,-0.0076 -0.07769,0.01705 -0.08527,0.0559 -0.0085,0.03884 0.01611,0.07769 0.0559,0.08621 0.0047,9.47e-4 0.135478,0.02748 0.230219,0.02748 0.261483,0 0.432015,-0.123163 0.456647,-0.328749 0.01421,-0.11653 -0.02558,-0.228324 -0.114635,-0.305063 0.105161,-0.06348 0.157269,-0.166743 0.169585,-0.266221 z"
         style="fill:#000000;stroke:none"
         id="path12894" />
    </g>
    <g
       aria-label="4"
       id="text12834"
       style="font-style:italic;font-size:1.94028px;line-height:100%;font-family:CoreHumanistSans;-inkscape-font-specification:'CoreHumanistSans, Italic';letter-spacing:0px;word-spacing:0px;display:inline;fill:none;stroke:#000000;stroke-width:0.264583px">
      <path
         d="m 22.110235,55.502584 c 0,-0.03979 -0.03221,-0.072 -0.072,-0.072 h -0.124109 l 0.03032,-0.246325 c 0.0047,-0.03979 -0.02369,-0.07579 -0.06348,-0.08053 -0.03884,-0.0047 -0.07579,0.02369 -0.08053,0.06348 l -0.03221,0.263378 h -0.422542 l 0.466122,-0.719079 c 0.02179,-0.03316 0.01232,-0.07769 -0.02084,-0.09948 -0.03411,-0.02179 -0.07863,-0.01232 -0.100424,0.02084 l -0.538125,0.830872 c -0.01421,0.02179 -0.01516,0.05021 -0.0028,0.07295 0.01326,0.02369 0.03695,0.0379 0.06348,0.0379 h 0.538124 l -0.02653,0.216007 c -0.0047,0.03884 0.02369,0.07579 0.06253,0.08053 0.03979,0.0057 0.07579,-0.02369 0.08053,-0.06348 l 0.02842,-0.233061 h 0.14211 c 0.03979,0 0.072,-0.03221 0.072,-0.072 z"
         style="fill:#000000;stroke:none"
         id="path12897" />
    </g>
    <g
       aria-label="clock"
       id="text12838"
       style="font-style:italic;font-size:1.94028px;line-height:100%;font-family:CoreHumanistSans;-inkscape-font-specification:'CoreHumanistSans, Italic';letter-spacing:0px;word-spacing:0px;display:inline;fill:none;stroke:#000000;stroke-width:0.264583px">
      <path
         d="m 16.038052,66.830158 c 0.01137,-0.0379 -0.01042,-0.07769 -0.04832,-0.09 -0.07011,-0.02179 -0.144953,-0.03695 -0.21885,-0.03695 -0.305063,0 -0.491702,0.234008 -0.491702,0.524861 0,0.248219 0.178112,0.443384 0.432016,0.443384 0.06158,0 0.121267,-0.0057 0.180954,-0.02369 0.0379,-0.01137 0.06158,-0.04832 0.05305,-0.08716 -0.0095,-0.03884 -0.04832,-0.06253 -0.08716,-0.05306 -0.05021,0.01137 -0.09379,0.0199 -0.146847,0.0199 -0.173375,0 -0.287063,-0.129794 -0.287063,-0.297485 0,-0.212218 0.121267,-0.38275 0.346749,-0.38275 0.05969,0 0.12032,0.01421 0.177164,0.03126 0.0379,0.01137 0.07863,-0.0095 0.09,-0.04832 z"
         style="fill:#000000;stroke:none"
         id="path12900" />
      <path
         d="m 16.480488,66.426564 c 0.0047,-0.03979 -0.02274,-0.07579 -0.06253,-0.08053 -0.03979,-0.0047 -0.07579,0.02369 -0.08053,0.06253 l -0.143058,1.168147 c -0.0047,0.03979 0.02274,0.07579 0.06253,0.08053 0.03979,0.0047 0.07579,-0.02274 0.08053,-0.06253 z"
         style="fill:#000000;stroke:none"
         id="path12902" />
      <path
         d="m 17.558632,67.15038 c 0,-0.241588 -0.172427,-0.445279 -0.422541,-0.445279 -0.290853,0 -0.482228,0.244429 -0.482228,0.520123 0,0.241588 0.172427,0.446227 0.421594,0.446227 0.290853,0 0.483175,-0.24443 0.483175,-0.521071 z m -0.144952,0 c 0,0.196112 -0.1279,0.376118 -0.338223,0.376118 -0.168637,0 -0.277589,-0.139268 -0.277589,-0.300326 0,-0.19706 0.128847,-0.377066 0.338223,-0.377066 0.169585,0 0.277589,0.139268 0.277589,0.301274 z"
         style="fill:#000000;stroke:none"
         id="path12904" />
      <path
         d="m 18.519298,66.830158 c 0.01137,-0.0379 -0.01042,-0.07769 -0.04832,-0.09 -0.07011,-0.02179 -0.144953,-0.03695 -0.21885,-0.03695 -0.305064,0 -0.491702,0.234008 -0.491702,0.524861 0,0.248219 0.178112,0.443384 0.432015,0.443384 0.06158,0 0.121268,-0.0057 0.180954,-0.02369 0.0379,-0.01137 0.06158,-0.04832 0.05305,-0.08716 -0.0095,-0.03884 -0.04832,-0.06253 -0.08716,-0.05306 -0.05021,0.01137 -0.09379,0.0199 -0.146848,0.0199 -0.173374,0 -0.287062,-0.129794 -0.287062,-0.297485 0,-0.212218 0.121267,-0.38275 0.346749,-0.38275 0.05969,0 0.12032,0.01421 0.177164,0.03126 0.0379,0.01137 0.07863,-0.0095 0.09,-0.04832 z"
         style="fill:#000000;stroke:none"
         id="path12906" />
      <path
         d="m 19.460069,66.742049 c -0.02558,-0.03032 -0.07106,-0.03411 -0.101372,-0.0076 l -0.493597,0.418752 0.08906,-0.726658 c 0.0047,-0.03884 -0.02369,-0.07579 -0.06253,-0.08053 -0.03979,-0.0057 -0.07579,0.02369 -0.08053,0.06348 l -0.143058,1.1672 c -0.0047,0.03979 0.02274,0.07579 0.06253,0.08053 0.03979,0.0047 0.07579,-0.02369 0.08053,-0.06348 l 0.02842,-0.228324 0.154427,-0.131689 0.270009,0.393172 c 0.02274,0.03316 0.06821,0.04074 0.101372,0.018 0.03221,-0.02274 0.04074,-0.06727 0.018,-0.100425 l -0.278536,-0.404541 0.347696,-0.295589 c 0.03032,-0.02653 0.03411,-0.072 0.0076,-0.10232 z"
         style="fill:#000000;stroke:none"
         id="path12908" />
    </g>
    <g
       aria-label="in"
       id="text12842"
       style="font-style:italic;font-size:1.94028px;line-height:100%;font-family:CoreHumanistSans;-inkscape-font-specification:'CoreHumanistSans, Italic';letter-spacing:0px;word-spacing:0px;display:inline;fill:none;stroke:#000000;stroke-width:0.264583px">
      <path
         d="m 6.4772739,83.850479 c 0.034107,-0.03505 0.033159,-0.09095 -0.00189,-0.125058 -0.035054,-0.03316 -0.090951,-0.03221 -0.1250571,0.0028 l -0.039791,0.04169 c -0.034107,0.03505 -0.033159,0.09095 0.00189,0.125057 0.035054,0.03411 0.090951,0.03221 0.1250571,-0.0028 z m -0.071055,0.447173 c 0.00474,-0.03884 -0.023685,-0.07579 -0.062529,-0.08053 -0.039791,-0.0057 -0.075792,0.02369 -0.080529,0.06348 l -0.096635,0.792976 c -0.00474,0.03979 0.022738,0.07579 0.062528,0.08053 0.039791,0.0047 0.075792,-0.02369 0.080529,-0.06348 z"
         style="fill:#000000;stroke:none"
         id="path12911" />
      <path
         d="M 7.4654146,84.598926 C 7.494784,84.368708 7.3725691,84.20007 7.1328764,84.20007 c -0.1051617,0 -0.1970597,0.03884 -0.2662201,0.08242 -0.00189,-0.03411 -0.028422,-0.06253 -0.063476,-0.06727 -0.039791,-0.0047 -0.075792,0.02369 -0.080529,0.06253 l -0.096635,0.793923 c -0.00474,0.03979 0.022738,0.07579 0.062529,0.08053 0.039791,0.0047 0.075792,-0.02274 0.080529,-0.06253 l 0.075792,-0.63097 c 0,0 0.1449526,-0.113688 0.2880104,-0.113688 0.1506369,0 0.2074811,0.09284 0.1894804,0.234955 l -0.062528,0.493597 c -0.00474,0.03979 0.022738,0.07579 0.062528,0.08053 0.038844,0.0047 0.075792,-0.02274 0.080529,-0.06253 z"
         style="fill:#000000;stroke:none"
         id="path12913" />
    </g>
    <g
       aria-label="out"
       id="text12846"
       style="font-style:italic;font-size:1.94028px;line-height:100%;font-family:CoreHumanistSans;-inkscape-font-specification:'CoreHumanistSans, Italic';letter-spacing:0px;word-spacing:0px;display:inline;fill:none;stroke:#000000;stroke-width:0.264583px">
      <path
         d="m 16.200981,84.440793 c 0,-0.241588 -0.172427,-0.44528 -0.422542,-0.44528 -0.290852,0 -0.482227,0.24443 -0.482227,0.520124 0,0.241588 0.172427,0.446227 0.421594,0.446227 0.290852,0 0.483175,-0.24443 0.483175,-0.521071 z m -0.144953,0 c 0,0.196112 -0.127899,0.376118 -0.338222,0.376118 -0.168638,0 -0.277589,-0.139268 -0.277589,-0.300326 0,-0.19706 0.128847,-0.377066 0.338222,-0.377066 0.169585,0 0.277589,0.139268 0.277589,0.301274 z"
         style="fill:#000000;stroke:none"
         id="path12916" />
      <path
         d="m 17.279125,84.091201 c 0.0047,-0.03979 -0.02369,-0.07579 -0.06348,-0.08053 -0.03884,-0.0047 -0.07579,0.02274 -0.08053,0.06253 l -0.07579,0.640444 c 0,0 -0.144952,0.104215 -0.28801,0.104215 -0.151584,0 -0.206534,-0.0919 -0.188533,-0.234956 l 0.06253,-0.493597 c 0.0047,-0.03979 -0.02369,-0.07579 -0.06253,-0.08053 -0.03979,-0.0047 -0.07674,0.02274 -0.08148,0.06253 l -0.06158,0.492649 c -0.02842,0.229271 0.0919,0.398856 0.331591,0.398856 0.106109,0 0.19706,-0.03884 0.26622,-0.08242 0.0028,0.03411 0.02842,0.06253 0.06348,0.06727 0.03979,0.0047 0.07579,-0.02369 0.08053,-0.06253 z"
         style="fill:#000000;stroke:none"
         id="path12918" />
      <path
         d="m 18.113786,84.082674 c 0,-0.03979 -0.03221,-0.072 -0.072,-0.072 H 17.83525 l 0.02842,-0.228324 c 0.0047,-0.03979 -0.02369,-0.07579 -0.06348,-0.08053 -0.03884,-0.0047 -0.07579,0.02274 -0.08053,0.06253 l -0.03032,0.246325 h -0.12411 c -0.03979,0 -0.072,0.03221 -0.072,0.072 0,0.03979 0.03221,0.072 0.072,0.072 h 0.106109 l -0.05211,0.423489 c -0.02747,0.221692 0.05969,0.383698 0.298432,0.383698 0.06821,0 0.130741,-0.02653 0.137373,-0.03032 0.036,-0.01611 0.05211,-0.05874 0.036,-0.09474 -0.01611,-0.036 -0.05874,-0.05305 -0.09474,-0.03695 -0.01137,0.0047 -0.04737,0.018 -0.07863,0.018 -0.146848,0 -0.17148,-0.09 -0.155374,-0.221693 l 0.05495,-0.441489 h 0.224534 c 0.03979,0 0.072,-0.03221 0.072,-0.072 z"
         style="fill:#000000;stroke:none"
         id="path12920" />
    </g>
  </g>
</svg>
